<?xml version="1.0" encoding="utf-8"?>
<!-- Generator: Adobe Illustrator 19.1.0, SVG Export Plug-In . SVG Version: 6.00 Build 0)  -->
<!DOCTYPE svg PUBLIC "-//W3C//DTD SVG 1.1//EN" "http://www.w3.org/Graphics/SVG/1.1/DTD/svg11.dtd">
<svg version="1.1" id="Layer_1" xmlns="http://www.w3.org/2000/svg" xmlns:xlink="http://www.w3.org/1999/xlink" x="0px" y="0px"
	 viewBox="340 151 1280 300" enable-background="new 340 151 1280 300" xml:space="preserve">
<metadata><?xpacket begin="﻿" id="W5M0MpCehiHzreSzNTczkc9d"?>
<x:xmpmeta xmlns:x="adobe:ns:meta/" x:xmptk="Adobe XMP Core 5.6-c067 79.157747, 2015/03/30-23:40:42        ">
   <rdf:RDF xmlns:rdf="http://www.w3.org/1999/02/22-rdf-syntax-ns#">
      <rdf:Description rdf:about=""/>
   </rdf:RDF>
</x:xmpmeta>
                                                                                                    
                                                                                                    
                                                                                                    
                                                                                                    
                                                                                                    
                                                                                                    
                                                                                                    
                                                                                                    
                                                                                                    
                                                                                                    
                                                                                                    
                                                                                                    
                                                                                                    
                                                                                                    
                                                                                                    
                                                                                                    
                                                                                                    
                                                                                                    
                                                                                                    
                                                                                                    
                           
<?xpacket end="w"?></metadata>
<g>
	<path d="M368.9,220.7c0.4,15.2,11.9,21.7,21.4,21.7c12,0,21-7.9,21-20.9c0-10.5-7.6-20.4-23.4-20.4h-4.3v-2.9h4.3
		c12.6,0,18.9-8.2,18.9-17.2c0-8.2-5.6-15.9-15.7-15.9c-8.8,0-16.3,5.9-17,15.2h-3c0.7-12.2,11.1-18.1,19.7-18.1
		c12.4,0,19.2,8.9,19.2,18.9c0,8.4-5.7,15.7-12.9,18.2v0.2c9.8,2.7,17.3,11,17.3,21.2c0,13.3-8.8,24.6-24.6,24.6
		c-14.7,0-24.2-11.1-24.3-24.7h3.4V220.7z"/>
	<path d="M420,188.4c0-23,19.6-26.3,25.4-26.3c14.1,0,25.9,10,25.9,25.4V220c0,20.5-18.5,25.4-25.4,25.4c-9.3,0-25.9-5.9-25.9-25.4
		V188.4z M423.3,220c0,14.4,11,22.4,22.5,22.4c7.8,0,22.5-5,22.5-22.4v-32.5c0-10.6-7-22.5-22.8-22.5c-11.6,0-22.1,7.8-22.1,23
		L423.3,220z"/>
	<path d="M503.8,212.9v25.8h-3v-25.8h-23.2v-3h23.2V184h3v25.8H527v3L503.8,212.9z"/>
	<path d="M574.1,264.1h11.6l8.9-20.5L573,189.1h-11.4v-2.7h26.6v2.7h-11.9l20.1,50.3l21.5-50.3h-11.5v-2.7H633v2.7h-11.6L589.1,264
		h11.5v2.7H574L574.1,264.1L574.1,264.1z"/>
	<path d="M632.7,215.4c0.2,18.7,15.9,27,27.1,26.8c10.6,0,19.9-5.4,24.5-15.1h3.4c-5.4,12.2-16.3,18.1-28,18
		c-17.4,0-30.1-13-30.1-30.1v0.1c0-17.2,13.2-30.2,30.2-30.2c15.4,0,29.3,11.1,30.1,28.7l-0.1,1.7L632.7,215.4z M686.8,212.7
		c-0.7-13.9-13.5-25.3-27-24.7c-14.1,0-26.1,10.2-27,24.7H686.8z"/>
	<path d="M752.3,229.4h-0.2c-5,9.7-14.5,15.8-26.6,15.8c-18.8,0-30.1-14.7-30.1-30.1c0-15.8,11.6-30.1,30.1-30.1
		c13.9,0,23.8,8.6,26.6,16h0.2v-14.5h14.9v2.7h-11.9v51.9h11.9v2.7h-14.9V229.4z M752.6,215.1c0-15.7-11.9-27.2-27.2-27.2
		c-14.9,0-27.1,11.1-27.1,27.2c0.1,13,8.9,27.2,27.4,27.2C741.6,242.3,752.6,229.9,752.6,215.1z"/>
	<path d="M772.2,186.5h14.9v10.4h0.2c5.3-10.8,15.1-11.5,20-11.9v3c-3.5,0.1-7.4,0.2-12.5,3.9c-6.8,6.2-7.7,12.9-7.7,20.8V241h11.7
		v2.7h-26.6V241h11.9v-51.8h-11.9V186.5z"/>
	<path d="M844.1,199.5c-0.4-8.3-7-11.5-13.4-11.5c-9.1,0-13.5,5.7-13.5,11.7c0,6.3,3.4,9.2,14.1,12c11.1,2.9,18.7,6.3,18.7,17.3
		c0,8.4-7.3,16.2-18.2,16.2c-7.9,0-13.2-3.4-16.1-7.9v6.5h-2.9v-15.9h3c0.1,9.2,7.6,14.4,16,14.4c9.1,0,15.2-5.9,15.2-13.3
		c0-7.5-4-11.4-15.8-14.3c-10.3-2.6-17-5.6-17-14.8c0-9.5,8.2-14.9,16.7-14.9c6.3,0,10.6,2.3,13.3,6.2v-4.7h2.9v13.6h-2.9v-0.6
		H844.1z"/>
	<path d="M917.4,185c17.2,0,30.2,13,30.2,30.1c0,17.2-13,30.1-30.2,30.1c-17.1,0-30.1-12.9-30.1-30.1C887.3,198,900.3,185,917.4,185
		z M917.4,242.3c15.4,0,27.2-11.6,27.2-27.2s-11.7-27.2-27.2-27.2c-15.4,0-27.1,11.6-27.1,27.2S901.9,242.3,917.4,242.3z"/>
	<path d="M946.5,241.1h11.9v-51.8h-11.9v-2.8h11.9v-5.6c0-11.9,6.3-18,17.9-18.5v2.9c-8.3,0.2-14.9,3.9-14.9,15.2v5.9h12.4v2.8
		h-12.4V241h12.4v2.7h-27.3L946.5,241.1L946.5,241.1z"/>
	<path d="M1014.9,215.4c0.2,18.7,15.9,27,27.1,26.8c10.6,0,19.9-5.4,24.5-15.1h3.4c-5.4,12.2-16.3,18.1-28,18
		c-17.4,0-30.1-13-30.1-30.1v0.1c0-17.1,13.2-30.1,30.2-30.1c15.4,0,29.3,11.1,30.1,28.7l-0.1,1.7H1014.9z M1068.9,212.7
		c-0.7-13.9-13.5-25.3-27-24.7c-14.1,0-26.1,10.2-27,24.7H1068.9z"/>
	<path d="M1067.5,241.1h11.5l17.3-26.1l-17.3-25.8h-11.5v-2.7h26.6v2.7h-11.3l15.3,22.9l15.4-22.9h-11.2v-2.7h26.6v2.7h-11.7
		l-17.3,25.8l17.3,26.1h11.8v2.7h-26.6v-2.7h11.2l-15.4-23.2l-15.3,23.2h11.3v2.7h-26.6v-2.7H1067.5z"/>
	<path d="M1132,186.5h14.9v14.3h0.2c5-9.7,14.5-15.8,26.6-15.8c18.8,0,30.1,14.7,30.1,30.1c0,15.8-11.6,30.1-30.1,30.1
		c-13.9,0-23.8-8.6-26.6-16h-0.2v34.9h11.7v2.7H1132v-2.7h11.9v-74.9H1132V186.5L1132,186.5z M1146.5,215.1
		c0,15.7,11.9,27.2,27.2,27.2c14.9,0,27.1-11.1,27.1-27.2c-0.1-13-8.9-27.2-27.4-27.2C1157.6,187.9,1146.5,200.3,1146.5,215.1z"/>
	<path d="M1212.5,215.4c0.2,18.7,15.9,27,27.1,26.8c10.6,0,19.9-5.4,24.5-15.1h3.4c-5.4,12.2-16.3,18.1-28,18
		c-17.4,0-30.1-13-30.1-30.1v0.1c0-17.2,13.2-30.2,30.2-30.2c15.4,0,29.3,11.1,30.1,28.7l-0.1,1.7L1212.5,215.4z M1266.5,212.7
		c-0.7-13.9-13.5-25.3-27-24.7c-14.1,0-26.1,10.2-27,24.7H1266.5z"/>
	<path d="M1269,186.5h14.9v10.4h0.2c5.3-10.8,15.1-11.5,20-11.9v3c-3.5,0.1-7.4,0.2-12.5,3.9c-6.8,6.2-7.7,12.9-7.7,20.8V241h11.7
		v2.7H1269V241h11.9v-51.8H1269V186.5z"/>
	<path d="M1308,186.5h14.9v54.6h11.7v2.7H1308v-2.7h11.9v-51.9H1308V186.5L1308,186.5z M1322.9,173.6h-3v-9.7h3V173.6z"/>
	<path d="M1337.2,215.4c0.2,18.7,15.9,27,27.1,26.8c10.6,0,19.9-5.4,24.5-15.1h3.4c-5.4,12.2-16.3,18.1-28,18
		c-17.4,0-30.1-13-30.1-30.1v0.1c0-17.2,13.2-30.2,30.2-30.2c15.4,0,29.3,11.1,30.1,28.7l-0.1,1.7L1337.2,215.4z M1391.2,212.7
		c-0.7-13.9-13.5-25.3-27-24.7c-14.1,0-26.1,10.2-27,24.7H1391.2z"/>
	<path d="M1394.8,186.5h14.9v11.1h0.2c3.6-8.4,14-12.6,23-12.5c7.4,0,13.4,2,17.9,5.8c5.7,4.7,8.4,12.4,8.4,22.7v27.5h11.7v2.7
		h-26.6v-2.7h11.9v-27.6c0-10-2.7-16.3-7-20.2c-4.5-4-10.4-5.4-16.2-5.4c-14.3,0.2-23.3,8.5-23.3,22.8V241h11.7v2.7h-26.6V241h11.9
		v-51.8h-11.9V186.5z"/>
	<path d="M1523.2,203.1c-3.5-9.3-12.1-15.3-24.2-15.2c-8.1,0.1-13.4,2.3-19.3,7.6c-4.6,4.2-7.8,11.7-7.8,19.6
		c0,16.2,12.5,27.2,27.1,27.2c13-0.1,22.3-8.1,25.1-16.6h3.4c-4,11.6-14.8,19.2-28.4,19.5c-16.7,0-30.1-12.1-30.1-30
		c0-17,12.7-30.2,30.1-30.2c11.4,0,19.6,4.7,24.3,11.7v-10.2h2.9v16.7L1523.2,203.1z"/>
	<path d="M1536.6,215.4c0.2,18.7,15.9,27,27.1,26.8c10.6,0,19.9-5.4,24.5-15.1h3.4c-5.4,12.2-16.3,18.1-28,18
		c-17.4,0-30.1-13-30.1-30.1v0.1c0-17.2,13.2-30.2,30.2-30.2c15.4,0,29.3,11.1,30.1,28.7l-0.1,1.7L1536.6,215.4z M1590.7,212.7
		c-0.7-13.9-13.5-25.3-27-24.7c-14.1,0-26.1,10.2-27,24.7H1590.7z"/>
	<path d="M545.3,291.5h14.9v54.6h11.7v2.7h-26.6v-2.7h11.9v-51.9h-11.9V291.5L545.3,291.5z M560.2,278.7h-3V269h3V278.7z"/>
	<path d="M575.9,291.5h14.9v11.1h0.2c3.6-8.4,14-12.6,23-12.5c7.4,0,13.4,2,17.9,5.8c5.7,4.7,8.4,12.4,8.4,22.7v27.5H652v2.7h-26.6
		v-2.7h11.9v-27.5c0-10-2.7-16.3-7-20.2c-4.5-4-10.4-5.4-16.2-5.4c-14.3,0.2-23.3,8.5-23.3,22.8v30.3h11.7v2.7h-26.6v-2.7h11.9
		v-51.9h-11.9L575.9,291.5L575.9,291.5z"/>
	<path d="M697.4,268.8h3v22.7h14.7v2.8h-14.7v51.8h14.7v2.7h-17.7v-54.5h-12.6v-2.8h12.6V268.8z"/>
	<path d="M718.2,268.9h15v33.7h0.2c3.6-8.4,14-12.6,23-12.5c7.4,0,13.4,2,17.9,5.8c5.7,4.7,8.4,12.4,8.4,22.7v27.5h11.6v2.7h-26.6
		v-2.7h12v-27.5c0-10-2.7-16.3-7-20.2c-4.5-4-10.4-5.4-16.2-5.4c-14.3,0.2-23.3,8.5-23.3,22.8v30.3h11.6v2.7h-26.6v-2.7h12v-74.5
		h-12V268.9z"/>
	<path d="M793.4,320.5c0.2,18.7,15.9,27,27.1,26.8c10.6,0,19.9-5.4,24.5-15.1h3.4c-5.4,12.2-16.3,18.1-28,18
		c-17.4,0-30.1-13-30.1-30.1v0.1c0-17.2,13.2-30.2,30.2-30.2c15.4,0,29.3,11.1,30.1,28.7l-0.1,1.7L793.4,320.5z M847.4,317.7
		c-0.7-13.9-13.5-25.3-27-24.7c-14.1,0-26.1,10.2-27,24.7H847.4z"/>
	<path d="M919.4,304.5c-0.4-8.3-7-11.5-13.4-11.5c-9.1,0-13.5,5.7-13.5,11.7c0,6.3,3.4,9.2,14.1,12c11.1,2.9,18.7,6.3,18.7,17.3
		c0,8.4-7.3,16.2-18.2,16.2c-7.9,0-13.2-3.4-16.1-7.9v6.5h-3v-15.9h3c0.1,9.2,7.6,14.4,16,14.4c9.1,0,15.2-5.9,15.2-13.3
		c0-7.5-4-11.4-15.8-14.3c-10.3-2.6-17-5.6-17-14.8c0-9.5,8.2-14.9,16.7-14.9c6.3,0,10.6,2.3,13.3,6.2v-4.7h2.9v13.6h-2.9V304.5z"/>
	<path d="M960.5,290.1c17.2,0,30.2,13,30.2,30.1c0,17.2-13,30.1-30.2,30.1c-17.1,0-30.1-12.9-30.1-30.1S943.4,290.1,960.5,290.1z
		 M960.5,347.3c15.4,0,27.2-11.6,27.2-27.2c0-15.5-11.7-27.2-27.2-27.2c-15.4,0-27.1,11.6-27.1,27.2S945.1,347.3,960.5,347.3z"/>
	<path d="M1052.3,291.5v54.6h11.9v2.7h-14.9v-11.5h-0.2c-3.6,8.8-13.5,13.1-23,13c-7.4,0-13.4-2-17.9-5.8
		c-5.7-4.7-8.4-12.4-8.4-22.7v-27.5h-11.9v-2.7h14.9v30.2c0,10,2.8,16.3,7,20.2c4.5,4,10.4,5.4,16.2,5.4
		c14.4-0.1,23.3-8.5,23.3-23.3v-29.9h-11.9v-2.7H1052.3z"/>
	<path d="M1072.2,268.8h3v22.7h14.7v2.8h-14.7v51.8h14.7v2.7h-17.7v-54.5h-12.6v-2.8h12.6V268.8z"/>
	<path d="M1096,268.9h15v33.7h0.2c3.6-8.4,14-12.6,23-12.5c7.4,0,13.4,2,17.9,5.8c5.7,4.7,8.4,12.4,8.4,22.7v27.5h11.6v2.7h-26.6
		v-2.7h12v-27.5c0-10-2.7-16.3-7-20.2c-4.5-4-10.4-5.4-16.2-5.4c-14.3,0.2-23.3,8.5-23.3,22.8v30.3h11.6v2.7H1096v-2.7h12v-74.5h-12
		V268.9z"/>
	<path d="M1176.5,268.9h14.9V306h0.2c4-8.3,12.7-15.8,26.6-16c18.5,0,30.1,14.3,30.1,30.1c0,15.4-11.3,30.1-30.1,30.1
		c-12.1,0-21.6-6-26.6-15.8h-0.2v14.3h-14.9V346h11.9v-74.5h-11.9V268.9z M1245.2,320.1c0-16.1-12.2-27.2-27.1-27.2
		c-15.3,0-27.2,11.5-27.2,27.2c0,14.8,11.1,27.2,26.8,27.2C1236.3,347.3,1245.1,333.1,1245.2,320.1z"/>
	<path d="M1310.8,334.5h-0.2c-5,9.7-14.5,15.8-26.6,15.8c-18.8,0-30.1-14.7-30.1-30.1c0-15.8,11.6-30.1,30.1-30.1
		c13.9,0,23.8,8.6,26.6,16h0.2v-14.5h14.9v2.7h-11.9v51.9h11.9v2.7h-14.9V334.5z M1311.1,320.1c0-15.7-11.9-27.2-27.2-27.2
		c-14.9,0-27.1,11.1-27.1,27.2c0.1,13,8.9,27.2,27.4,27.2C1300,347.3,1311.1,334.9,1311.1,320.1z"/>
	<path d="M1343.1,369.1h11.6l8.9-20.5l-21.6-54.5h-11.4v-2.7h26.6v2.7h-11.9l20.1,50.3l21.5-50.3h-11.5v-2.7h26.6v2.7h-11.6
		l-32.3,74.9h11.5v2.7H1343v-2.6H1343.1z"/>
	<path d="M1402.6,348.8h-3.2v-8.7h3.2V348.8z"/>
</g>
<g>
	<rect x="930.8" y="439.1" fill="#FDDC2F" width="47.4" height="11.9"/>
	<rect x="880.3" y="439.1" fill="#FDDC2F" width="47.4" height="11.9"/>
	<rect x="930.8" y="424.3" fill="#FDDC2F" width="47.4" height="11.9"/>
	<rect x="981.2" y="439.1" fill="#FDDC2F" width="47.4" height="11.9"/>
	<rect x="981.2" y="424.3" fill="#FDDC2F" width="47.4" height="11.9"/>
	<rect x="981.2" y="409.4" fill="#FDDC2F" width="47.4" height="11.9"/>
	<rect x="1031.7" y="439.1" fill="#FDDC2F" width="47.4" height="11.9"/>
	<rect x="1031.7" y="424.3" fill="#FDDC2F" width="47.4" height="11.9"/>
	<polygon fill="#FDDC2F" points="1079.1,406.3 1031.7,406.3 1055.4,394.5 	"/>
	<rect x="1031.7" y="409.4" fill="#FDDC2F" width="47.4" height="11.9"/>
</g>
<polygon fill="#FFFFFF" points="340,151 340,266.7 523.5,266.7 523.5,382.4 1436.5,382.4 1436.5,266.7 1620,266.7 1620,151 "/>
</svg>
