<?xml version="1.0" encoding="utf-8"?>
<!-- Generator: Adobe Illustrator 19.2.0, SVG Export Plug-In . SVG Version: 6.00 Build 0)  -->
<!DOCTYPE svg PUBLIC "-//W3C//DTD SVG 1.1//EN" "http://www.w3.org/Graphics/SVG/1.1/DTD/svg11.dtd">
<svg version="1.1" id="Layer_1" xmlns="http://www.w3.org/2000/svg" xmlns:xlink="http://www.w3.org/1999/xlink" x="0px" y="0px"
	 viewBox="0 0 150 150" style="enable-background:new 0 0 150 150;" xml:space="preserve">
<metadata><?xpacket begin="﻿" id="W5M0MpCehiHzreSzNTczkc9d"?>
<x:xmpmeta xmlns:x="adobe:ns:meta/" x:xmptk="Adobe XMP Core 5.6-c111 79.158366, 2015/09/25-01:12:00        ">
   <rdf:RDF xmlns:rdf="http://www.w3.org/1999/02/22-rdf-syntax-ns#">
      <rdf:Description rdf:about=""/>
   </rdf:RDF>
</x:xmpmeta>
                                                                                                    
                                                                                                    
                                                                                                    
                                                                                                    
                                                                                                    
                                                                                                    
                                                                                                    
                                                                                                    
                                                                                                    
                                                                                                    
                                                                                                    
                                                                                                    
                                                                                                    
                                                                                                    
                                                                                                    
                                                                                                    
                                                                                                    
                                                                                                    
                                                                                                    
                                                                                                    
                           
<?xpacket end="w"?></metadata>
<style type="text/css">
	.st0{fill:#CDCCCC;}
	.st1{fill:#FFFFFF;stroke:#231F20;stroke-width:2;stroke-miterlimit:10;}
	.st2{fill:none;stroke:#231F20;stroke-width:2;stroke-miterlimit:10;}
	.st3{fill:#FCDE2B;stroke:#231F20;stroke-width:2;stroke-miterlimit:10;}
	.st4{fill:none;stroke:#231F20;stroke-width:2;stroke-linecap:square;stroke-miterlimit:10;}
</style>
<circle class="st0" cx="75" cy="75" r="75"/>
<polygon class="st1" points="53.9,121.8 49,121.8 49,32 51.4,31.2 53.9,32 "/>
<line class="st2" x1="65.3" y1="41" x2="65.3" y2="45.1"/>
<line class="st2" x1="98" y1="41" x2="98" y2="45.1"/>
<rect x="57.1" y="45.9" class="st3" width="50.6" height="31"/>
<rect x="57.1" y="35.3" class="st1" width="51.5" height="4.9"/>
<polygon class="st1" points="43.2,40.2 42.4,37.7 43.2,35.3 45.7,35.3 45.7,40.2 "/>
<g>
	<path class="st2" d="M71.2,58.1c0,0,0-3.4-3.4-3.4c-3.4,0-3.4,3.4-3.4,3.4l6.8,6.8c0,0,0,3.4-3.4,3.4c-3.4,0-3.4-3.4-3.4-3.4"/>
	<path class="st2" d="M80.7,58.1c0,0,0-3.4-3.4-3.4c-3.4,0-3.4,3.4-3.4,3.4v6.8c0,0,0,3.4,3.4,3.4c3.4,0,3.4-3.4,3.4-3.4V58.1z"/>
	<path class="st2" d="M97,68.3c3.4,0,3.4-3.4,3.4-3.4v-6.8c0,0,0-3.4-3.4-3.4h-3.4v13.6H97z"/>
	<polyline class="st4" points="84.1,54.7 84.1,68.3 90.9,68.3 	"/>
</g>
</svg>
