<?xml version="1.0" encoding="utf-8"?>
<!-- Generator: Adobe Illustrator 19.2.0, SVG Export Plug-In . SVG Version: 6.00 Build 0)  -->
<!DOCTYPE svg PUBLIC "-//W3C//DTD SVG 1.1//EN" "http://www.w3.org/Graphics/SVG/1.1/DTD/svg11.dtd">
<svg version="1.1" id="Layer_1" xmlns="http://www.w3.org/2000/svg" xmlns:xlink="http://www.w3.org/1999/xlink" x="0px" y="0px"
	 viewBox="0 0 150 150" style="enable-background:new 0 0 150 150;" xml:space="preserve">
<metadata><?xpacket begin="﻿" id="W5M0MpCehiHzreSzNTczkc9d"?>
<x:xmpmeta xmlns:x="adobe:ns:meta/" x:xmptk="Adobe XMP Core 5.6-c111 79.158366, 2015/09/25-01:12:00        ">
   <rdf:RDF xmlns:rdf="http://www.w3.org/1999/02/22-rdf-syntax-ns#">
      <rdf:Description rdf:about=""/>
   </rdf:RDF>
</x:xmpmeta>
                                                                                                    
                                                                                                    
                                                                                                    
                                                                                                    
                                                                                                    
                                                                                                    
                                                                                                    
                                                                                                    
                                                                                                    
                                                                                                    
                                                                                                    
                                                                                                    
                                                                                                    
                                                                                                    
                                                                                                    
                                                                                                    
                                                                                                    
                                                                                                    
                                                                                                    
                                                                                                    
                           
<?xpacket end="w"?></metadata>
<style type="text/css">
	.st0{fill:#CDCCCC;}
	.st1{fill:#FFFFFF;stroke:#010101;stroke-width:2;stroke-miterlimit:10;}
	.st2{fill:#FCDE2B;stroke:#010101;stroke-width:2;stroke-miterlimit:10;}
	.st3{fill:#FCDE2B;}
	.st4{fill:none;stroke:#010101;stroke-width:2;stroke-miterlimit:10;}
</style>
<circle class="st0" cx="75" cy="75" r="75"/>
<polygon class="st1" points="90.3,118.4 75,111.7 59.7,118.4 59.7,38.3 90.3,38.3 "/>
<polygon class="st2" points="80.3,71.4 80.3,114 75,111.7 69.7,114 69.7,71.4 "/>
<g>
	<polygon class="st3" points="105.2,60 100.9,64.1 103.7,69.3 98.3,71.9 99.4,77.8 93.5,78.5 92.7,84.4 86.9,83.3 84.3,88.7 
		79.1,85.9 75,90.2 70.9,85.9 65.7,88.7 63.1,83.3 57.3,84.4 56.5,78.5 50.6,77.8 51.7,71.9 46.3,69.3 49.1,64.1 44.8,60 49.1,55.9 
		46.3,50.7 51.7,48.1 50.6,42.3 56.5,41.5 57.3,35.6 63.1,36.7 65.7,31.3 70.9,34.1 75,29.8 79.1,34.1 84.3,31.3 86.9,36.7 
		92.7,35.6 93.5,41.5 99.4,42.3 98.3,48.1 103.7,50.7 100.9,55.9 	"/>
	<polygon class="st4" points="105.2,60 100.9,64.1 103.7,69.3 98.3,71.9 99.4,77.8 93.5,78.5 92.7,84.4 86.9,83.3 84.3,88.7 
		79.1,85.9 75,90.2 70.9,85.9 65.7,88.7 63.1,83.3 57.3,84.4 56.5,78.5 50.6,77.8 51.7,71.9 46.3,69.3 49.1,64.1 44.8,60 49.1,55.9 
		46.3,50.7 51.7,48.1 50.6,42.3 56.5,41.5 57.3,35.6 63.1,36.7 65.7,31.3 70.9,34.1 75,29.8 79.1,34.1 84.3,31.3 86.9,36.7 
		92.7,35.6 93.5,41.5 99.4,42.3 98.3,48.1 103.7,50.7 100.9,55.9 	"/>
</g>
<circle class="st1" cx="75" cy="60" r="19.2"/>
<path class="st1" d="M75,112"/>
<path class="st4" d="M76.8,59.4"/>
<path class="st4" d="M65.2,64.4c0,2.3,1.8,4.1,4.1,4.1c2.3,0,4.1-1.8,4.1-4.1c0-2.3-1.8-4.1-4.1-4.1c2.3,0,4.1-1.8,4.1-4.1
	s-1.8-4.1-4.1-4.1c-2.3,0-4.1,1.8-4.1,4.1"/>
<path class="st4" d="M76.6,64.4c0,2.3,1.8,4.1,4.1,4.1c2.3,0,4.1-1.8,4.1-4.1c0-2.3-1.8-4.1-4.1-4.1h-4.1v-8.2h8.2"/>
</svg>
