<?xml version="1.0" encoding="utf-8"?>
<!-- Generator: Adobe Illustrator 19.1.0, SVG Export Plug-In . SVG Version: 6.00 Build 0)  -->
<!DOCTYPE svg PUBLIC "-//W3C//DTD SVG 1.1//EN" "http://www.w3.org/Graphics/SVG/1.1/DTD/svg11.dtd">
<svg version="1.1" id="Layer_1" xmlns="http://www.w3.org/2000/svg" xmlns:xlink="http://www.w3.org/1999/xlink" x="0px" y="0px"
	 viewBox="510 131.2 1420 238.8" enable-background="new 510 131.2 1420 238.8" xml:space="preserve">
<metadata><?xpacket begin="﻿" id="W5M0MpCehiHzreSzNTczkc9d"?>
<x:xmpmeta xmlns:x="adobe:ns:meta/" x:xmptk="Adobe XMP Core 5.6-c067 79.157747, 2015/03/30-23:40:42        ">
   <rdf:RDF xmlns:rdf="http://www.w3.org/1999/02/22-rdf-syntax-ns#">
      <rdf:Description rdf:about=""/>
   </rdf:RDF>
</x:xmpmeta>
                                                                                                    
                                                                                                    
                                                                                                    
                                                                                                    
                                                                                                    
                                                                                                    
                                                                                                    
                                                                                                    
                                                                                                    
                                                                                                    
                                                                                                    
                                                                                                    
                                                                                                    
                                                                                                    
                                                                                                    
                                                                                                    
                                                                                                    
                                                                                                    
                                                                                                    
                                                                                                    
                           
<?xpacket end="w"?></metadata>
<g>
	<rect x="1309.2" y="319.5" fill="#FDDE2C" width="198.5" height="49.6"/>
	<rect x="1098.2" y="319.5" fill="#FDDE2C" width="198.5" height="49.6"/>
	<rect x="1309.2" y="257.2" fill="#FDDE2C" width="198.5" height="49.6"/>
	<rect x="1520.4" y="319.5" fill="#FDDE2C" width="198.5" height="49.6"/>
	<rect x="1520.4" y="257.2" fill="#FDDE2C" width="198.5" height="49.6"/>
	<rect x="1520.4" y="195" fill="#FDDE2C" width="198.5" height="49.6"/>
	<rect x="1731.5" y="319.5" fill="#FDDE2C" width="198.5" height="49.6"/>
	<rect x="1731.5" y="257.2" fill="#FDDE2C" width="198.5" height="49.6"/>
	<polygon fill="#FDDE2C" points="1930,182.4 1731.5,182.4 1830.7,132.7 	"/>
	<rect x="1731.5" y="195" fill="#FDDE2C" width="198.5" height="49.6"/>
</g>
<g enable-background="new    ">
	<path d="M623.7,212.8h10.4V228h-38.8v-15.2h10.3v-55.4L579.3,228h-12.8l-27.1-70.6v55.4h11.1V228h-39.6v-15.2h10.4V148h-10.4v-15.2
		h35.8l25.9,67.2l25.9-67.2h35.8V148h-10.4V212.8z"/>
</g>
<g enable-background="new    ">
	<path d="M699,218.4c-5.2,7.9-13.6,11.5-22.9,11.5c-20.4,0-36.6-16.9-36.6-37.1c0-20.7,16.5-37.9,37.4-37.9c9.2,0,17.2,4.3,22.1,12
		v-10.1h25.5V172h-8.9v40.8h8.9V228H699V218.4z M699.2,192c0-11.7-9.7-21.2-21.5-21.2c-12.1,0-21.5,10-21.5,22
		c0,11.6,9.7,21.2,21.2,21.2C689.8,214,699.2,204.1,699.2,192z"/>
</g>
<g enable-background="new    ">
	<path d="M803.3,212.8h9.2V228h-24.1v-8.8c-4.7,6.9-13.2,10.7-21.5,10.7c-7.6,0-14.8-3.2-19.7-9.1c-5.2-6.1-6.3-12.9-6.3-20.7V172
		h-9.2v-15.2h25.5v38.6c0,4.5,0.1,9.5,2.8,13.3c2.7,4.1,7.2,6.1,12,6.1c4.5,0,9.2-2.3,12-5.9c3.1-4.3,3.1-9.1,3.1-14V172h-9.2v-15.2
		h25.5V212.8z"/>
</g>
<g enable-background="new    ">
	<path d="M822.9,172h-9.1v-15.2h25.5V168c5.2-8.1,13.7-12,23.3-12c20.1,0,36.3,16.5,36.3,36.7c0,19.5-15.7,36.4-35.5,36.4
		c-9.3,0-18.4-3.6-24.1-11.1v20.8h9.2V254h-34.7v-15.2h9.1V172z M882.1,192.6c0-11.6-9.2-21.7-21.1-21.7c-12,0-21.9,9.3-21.9,21.6
		c0,11.9,9.6,21.5,21.5,21.5C872.4,214,882.1,204.4,882.1,192.6z"/>
</g>
<g enable-background="new    ">
	<path d="M928.1,212.8h9.2V228h-34.8v-15.2h9.3V172h-9.2v-15.2h25.5V212.8z M928.1,150h-16.3v-17.2h16.3V150z"/>
</g>
<g enable-background="new    ">
	<path d="M952.4,172h-9.2v-15.2h25.5v10.1c4.3-7.9,12.3-11.7,21.1-11.7c7.7,0,15.3,3.2,20.5,8.8c5.9,6.5,6,12.8,6,20.9v27.9h9.2V228
		h-34.7v-15.2h9.2v-23.1c0-4.4,0-8.9-2.8-12.8c-2.9-3.9-7.7-5.7-12.5-5.7c-4.9,0-10,2-12.9,6c-3.1,4-3.1,10.1-3.1,14.9v20.7h9.2V228
		h-34.7v-15.2h9.2V172z"/>
</g>
<g enable-background="new    ">
	<path d="M521.7,290h-10.3v-15.2H554c9.3,0,17.5,0.9,24.9,7.3c7.5,6.4,11.3,15.3,11.3,25.1c0,13.7-9.2,27.5-23.6,28.7l14.8,18.9
		h10.8V370H570l-30.2-42.8v27.6h8.1V370h-36.6v-15.2h10.3V290z M549.7,325.4c5.6,0,11.1-0.3,15.9-3.9c4.3-3.3,6.5-8.4,6.5-13.7
		c0-5.1-2.1-10.3-6.3-13.5c-4-3.3-8.4-3.3-13.5-3.3h-12.5v34.4H549.7z"/>
</g>
<g enable-background="new    ">
	<path d="M666.3,349.1c-5.6,13.6-18.8,22.8-33.6,22.8c-20.8,0-37.5-16.3-37.5-37.2c0-21.1,15.9-38,37.1-38c9.9,0,19.7,4.4,26.7,11.5
		c7.1,7.5,10,16.5,10,26.7l-0.5,5.7h-57.6c2.1,9.9,11.2,17.1,21.3,17.1c7.1,0,13.2-2.7,17.2-8.5H666.3z M653.9,328
		c-2.8-10.3-11.9-16.8-22.4-16.8c-9.6,0-18.8,7.5-20.8,16.8H653.9z"/>
</g>
<g enable-background="new    ">
	<path d="M734.2,360.4c-5.2,7.9-13.6,11.5-22.9,11.5c-20.4,0-36.6-16.9-36.6-37.1c0-20.7,16.5-37.9,37.4-37.9
		c9.2,0,17.2,4.3,22.1,12v-10.1h25.5V314h-8.9v40.8h8.9V370h-25.5V360.4z M734.4,334c0-11.7-9.7-21.2-21.5-21.2
		c-12.1,0-21.5,10-21.5,22c0,11.6,9.7,21.2,21.2,21.2C725,356,734.4,346.1,734.4,334z"/>
</g>
<g enable-background="new    ">
	<path d="M793.2,354.8h9.2V370H767v-15.2h9.9V290h-9.2v-15.2h25.5V354.8z"/>
</g>
<g enable-background="new    ">
	<path d="M825.9,354.8h12.9V370h-29.2v-56h-11.2v-15.2h11.2v-24h16.3v24H838V314h-12.1V354.8z"/>
</g>
<g enable-background="new    ">
	<path d="M842,334.1c0-20.8,16.9-37.5,37.6-37.5c20.5,0,37.1,17.1,37.1,37.4c0,20.8-16.5,37.9-37.5,37.9
		C858.4,371.9,842,354.7,842,334.1z M900.7,334.4c0-11.6-9.2-21.7-21.1-21.7c-11.7,0-21.6,9.5-21.6,21.3c0,11.7,9.1,21.9,21.2,21.9
		C891.1,355.9,900.7,346.3,900.7,334.4z"/>
</g>
<g enable-background="new    ">
	<path d="M943.9,310.9c4.1-8.4,12.1-12.5,21.3-12.9v16.7c-5.2,0.3-10,1.6-14,5.2c-5.3,4.5-6.1,10.3-6.1,16.9v18h9.2V370h-34.7v-15.2
		h9.2V314h-9.2v-15.2h24.3V310.9z"/>
	<path d="M991,349.3c0.5,6.4,4.8,10.7,11.5,10.7c4.9,0,9.7-3.5,9.7-8.8c0-7.1-6.7-8.3-12.1-9.7c-12.4-3.2-26-7.1-26-22.7
		c0-13.6,11.5-21.5,24.1-21.5c6.4,0,12.1,1.3,16.1,6.4v-4.9h12v19.3h-15.7c-0.3-5.1-4.1-8.4-9.2-8.4c-4.4,0-9.1,2.5-9.1,7.5
		c0,6.7,6.5,8.1,11.7,9.3c12.8,2.9,26.5,6.9,26.5,22.9c0,14.4-12.1,22.4-25.5,22.4c-7.2,0-13.7-2.3-18.4-7.7v5.9h-12.4v-20.7H991z"
		/>
</g>
</svg>
