<?xml version="1.0" encoding="utf-8"?>
<!-- Generator: Adobe Illustrator 18.1.1, SVG Export Plug-In . SVG Version: 6.00 Build 0)  -->
<!DOCTYPE svg PUBLIC "-//W3C//DTD SVG 1.1//EN" "http://www.w3.org/Graphics/SVG/1.1/DTD/svg11.dtd">
<svg version="1.1" id="Layer_1" xmlns="http://www.w3.org/2000/svg" xmlns:xlink="http://www.w3.org/1999/xlink" x="0px" y="0px"
	 viewBox="0 0 800 281.8" enable-background="new 0 0 800 281.8" xml:space="preserve">
<g>
	<rect x="207.8" y="178.5" fill="#FDDC2F" width="186" height="46.5"/>
	<rect x="10" y="178.5" fill="#FDDC2F" width="185.9" height="46.5"/>
	<rect x="207.8" y="120.3" fill="#FDDC2F" width="186" height="46.5"/>
	<rect x="405.5" y="178.5" fill="#FDDC2F" width="186" height="46.5"/>
	<rect x="405.5" y="120.3" fill="#FDDC2F" width="186" height="46.5"/>
	<rect x="405.5" y="61.9" fill="#FDDC2F" width="186" height="46.5"/>
	<rect x="603.3" y="178.5" fill="#FDDC2F" width="186" height="46.5"/>
	<rect x="603.3" y="120.3" fill="#FDDC2F" width="186" height="46.5"/>
	<polygon fill="#FDDC2F" points="789.3,50.1 603.3,50.1 696.3,3.6 	"/>
	<rect x="603.3" y="61.9" fill="#FDDC2F" width="186" height="46.5"/>
</g>
<g>
	<path fill="#FDDC2F" d="M15.7,261.6c0.4,2.4,2.2,4.2,4.7,4.2c2.6,0,4.7-2.1,4.7-4.7c0-3.1-2.3-4.9-5.2-4.9h-1.1l-0.2,0v-4.3h1.2
		c2.4,0,4.6-1,4.6-3.8c0-2.2-1.6-3.7-3.7-3.7c-2,0-3.5,1.4-3.6,3.4h-5.1c0-4.8,4.3-8,8.8-8c4.5,0,8.6,3,8.6,7.7c0,2.4-1.2,5-3.4,6.1
		c3.1,1.1,5,4.3,5,7.6c0,2.6-1.2,5-3.1,6.7c-2,1.9-4.4,2.8-7.1,2.8c-5.4,0-10.3-3.3-10.6-9.1H15.7z"/>
	<path fill="#FDDC2F" d="M54.7,259.4c0,3.2-0.5,5.5-2.8,7.8c-2.1,2.1-4.9,3.5-7.9,3.5c-2.8,0-5.5-1.2-7.5-3.1
		c-2.6-2.4-3.1-4.8-3.1-8.3v-8.3c0-3.2,0.5-5.5,2.7-7.8c2.1-2.1,4.9-3.4,7.9-3.4c2.8,0,5.5,1.1,7.5,3c2.6,2.4,3.2,4.8,3.2,8.3
		L54.7,259.4z M38.9,259.5c0,1.5,0,2.9,0.9,4.2c0.9,1.4,2.5,2,4.2,2c1.7,0,3.4-0.7,4.3-2.3c0.7-1.2,0.8-2.5,0.8-3.9v-8.3
		c0-1.5,0-2.9-1-4.2c-0.9-1.4-2.5-2-4.1-2c-1.7,0-3.4,0.8-4.3,2.3c-0.8,1.2-0.8,2.5-0.8,3.9L38.9,259.5z"/>
	<path fill="#FFFFFF" d="M67.5,253.5l0-8.6h3.8l0,8.6h8.6v3.8h-8.6v8.6h-3.8v-8.6H59v-3.8H67.5z"/>
	<path fill="#FDDC2F" d="M111.7,265.4h3.2v4.7h-12v-4.7h3.2v-5.6l-7.8-14.5h-3v-4.7h11.4v4.7H104l5,9.7l4.9-9.7h-2.8v-4.7h11.4v4.7
		h-2.9l-7.8,14.5L111.7,265.4z"/>
	<path fill="#FDDC2F" d="M142.6,263.7c-1.7,4.2-5.8,7.1-10.4,7.1c-6.4,0-11.6-5-11.6-11.5c0-6.5,4.9-11.8,11.5-11.8
		c3.1,0,6.1,1.4,8.3,3.6c2.2,2.3,3.1,5.1,3.1,8.3l-0.2,1.8h-17.8c0.7,3.1,3.5,5.3,6.6,5.3c2.2,0,4.1-0.8,5.3-2.6H142.6z
		 M138.8,257.1c-0.9-3.2-3.7-5.2-6.9-5.2c-3,0-5.8,2.3-6.4,5.2L138.8,257.1z"/>
	<path fill="#FDDC2F" d="M162.7,267.2c-1.6,2.4-4.2,3.6-7.1,3.6c-6.3,0-11.3-5.2-11.3-11.5c0-6.4,5.1-11.7,11.6-11.7
		c2.8,0,5.3,1.3,6.9,3.7v-3.1l7.9,0v4.7h-2.8l0,12.6h2.8v4.7h-7.9V267.2z M162.8,259c0-3.6-3-6.6-6.6-6.6c-3.8,0-6.6,3.1-6.6,6.8
		c0,3.6,3,6.6,6.6,6.6C159.9,265.8,162.8,262.7,162.8,259z"/>
	<path fill="#FDDC2F" d="M179.1,251.8c1.3-2.6,3.8-3.9,6.6-4v5.2c-1.6,0.1-3.1,0.5-4.3,1.6c-1.7,1.4-1.9,3.2-1.9,5.2v5.6h2.8v4.7
		h-10.7v-4.7h2.8v-12.6h-2.8v-4.7h7.5V251.8z"/>
	<path fill="#FDDC2F" d="M192.5,263.7c0.2,2,1.5,3.3,3.6,3.3c1.5,0,3-1.1,3-2.7c0-2.2-2.1-2.6-3.8-3c-3.8-1-8.1-2.2-8.1-7
		c0-4.2,3.6-6.6,7.5-6.6c2,0,3.8,0.4,5,2v-1.5h3.7v6h-4.9c-0.1-1.6-1.3-2.6-2.8-2.6c-1.4,0-2.8,0.8-2.8,2.3c0,2.1,2,2.5,3.6,2.9
		c4,0.9,8.2,2.1,8.2,7.1c0,4.5-3.8,6.9-7.9,6.9c-2.2,0-4.3-0.7-5.7-2.4v1.8h-3.8v-6.4H192.5z"/>
	<path fill="#FDDC2F" d="M218.2,265.4h3.2l0-20.1h-3.2v-4.7l21.8,0v8.9h-5.6v-3.8h-7.4v7.3h8.6v4.4h-8.6l0,7.8h7.4v-4h5.6v8.9h-21.8
		V265.4z"/>
	<path fill="#FDDC2F" d="M257.1,259l5.9,6.4h2.6v4.7h-10.4V266h1.7l-3.2-3.9l-3.3,3.9h1.7v4.1h-10.4v-4.7h2.6l5.8-6.4l-5.7-6.2H242
		v-4.7h10.2v3.9h-1.9l3.4,3.8l3.3-3.8h-1.9v-3.9l10,0v4.7h-2.5L257.1,259z"/>
	<path fill="#FDDC2F" d="M270,252.8h-2.8v-4.7h7.9v3.5c1.6-2.5,4.3-3.7,7.2-3.7c6.2,0,11.2,5.1,11.2,11.4c0,6-4.9,11.3-11,11.3
		c-2.9,0-5.7-1.1-7.5-3.4v6.4h2.8v4.7h-10.7v-4.7h2.8V252.8z M288.3,259.2c0-3.6-2.8-6.7-6.5-6.7c-3.7,0-6.8,2.9-6.8,6.7
		c0,3.7,3,6.6,6.6,6.6C285.3,265.8,288.3,262.8,288.3,259.2z"/>
	<path fill="#FDDC2F" d="M316,263.7c-1.7,4.2-5.8,7.1-10.4,7.1c-6.4,0-11.6-5-11.6-11.5c0-6.5,4.9-11.8,11.5-11.8
		c3.1,0,6.1,1.4,8.3,3.6c2.2,2.3,3.1,5.1,3.1,8.3l-0.2,1.8h-17.8c0.7,3.1,3.5,5.3,6.6,5.3c2.2,0,4.1-0.8,5.3-2.6H316z M312.2,257.1
		c-0.9-3.2-3.7-5.2-6.9-5.2c-3,0-5.8,2.3-6.4,5.2H312.2z"/>
	<path fill="#FDDC2F" d="M325.4,251.8c1.3-2.6,3.8-3.9,6.6-4v5.2c-1.6,0.1-3.1,0.5-4.3,1.6c-1.7,1.4-1.9,3.2-1.9,5.2v5.6h2.8v4.7
		h-10.7l0-4.7h2.8v-12.6h-2.8v-4.7h7.5V251.8z"/>
	<path fill="#FDDC2F" d="M341.4,265.4h2.8v4.7h-10.8v-4.7h2.9v-12.6h-2.8v-4.7h7.9V265.4z M341.4,246h-5v-5.3h5V246z"/>
	<path fill="#FDDC2F" d="M367.4,263.7c-1.7,4.2-5.8,7.1-10.4,7.1c-6.4,0-11.6-5-11.6-11.5c0-6.5,4.9-11.8,11.5-11.8
		c3.1,0,6.1,1.4,8.3,3.6c2.2,2.3,3.1,5.1,3.1,8.3l-0.2,1.8h-17.8c0.7,3.1,3.5,5.3,6.6,5.3c2.2,0,4.1-0.8,5.3-2.6H367.4z
		 M363.6,257.1c-0.9-3.2-3.7-5.2-6.9-5.2c-3,0-5.8,2.3-6.4,5.2H363.6z"/>
	<path fill="#FDDC2F" d="M372.2,252.8h-2.8v-4.7h7.9v3.1c1.3-2.4,3.8-3.6,6.5-3.6c2.4,0,4.7,1,6.4,2.7c1.8,2,1.9,4,1.9,6.5v8.6h2.8
		v4.7h-10.7v-4.7h2.8v-7.1c0-1.4,0-2.8-0.9-4c-0.9-1.2-2.4-1.8-3.9-1.8c-1.5,0-3.1,0.6-4,1.9c-0.9,1.2-0.9,3.1-0.9,4.6v6.4h2.8v4.7
		h-10.7v-4.7h2.8V252.8z"/>
	<path fill="#FDDC2F" d="M417.9,262.7c-1.4,4.7-6.1,8-10.9,8c-6.4,0-11.6-5.2-11.6-11.6c0-6.1,4.8-11.7,11.1-11.7
		c2.5,0,4.7,1,6.3,2.8v-2.1h4.3v7.3h-4.7c-0.6-0.9-1.4-1.7-2.4-2.2c-1-0.5-2-0.8-3.1-0.8c-3.8,0-6.5,3-6.5,6.7c0,3.8,3,6.6,6.6,6.6
		c2.1,0,4.3-1.1,5.3-3.1H417.9z"/>
	<path fill="#FDDC2F" d="M441.1,263.7c-1.7,4.2-5.8,7.1-10.4,7.1c-6.4,0-11.6-5-11.6-11.5c0-6.5,4.9-11.8,11.5-11.8
		c3.1,0,6.1,1.4,8.3,3.6c2.2,2.3,3.1,5.1,3.1,8.3l-0.2,1.8h-17.8c0.7,3.1,3.5,5.3,6.6,5.3c2.2,0,4.1-0.8,5.3-2.6H441.1z
		 M437.3,257.1c-0.9-3.2-3.7-5.2-6.9-5.2c-3,0-5.8,2.3-6.4,5.2H437.3z"/>
	<path fill="#FFFFFF" d="M463.2,265.4h2.8v4.7h-10.8v-4.7h2.9v-12.6h-2.8v-4.7h7.9V265.4z M463.2,246h-5v-5.3h5V246z"/>
	<path fill="#FFFFFF" d="M470.2,252.8h-2.8v-4.7h7.9v3.1c1.3-2.4,3.8-3.6,6.5-3.6c2.4,0,4.7,1,6.4,2.7c1.8,2,1.9,4,1.9,6.5v8.6h2.8
		v4.7h-10.7v-4.7h2.8v-7.1c0-1.4,0-2.8-0.9-4c-0.9-1.2-2.4-1.8-3.9-1.8c-1.5,0-3.1,0.6-4,1.9c-1,1.2-1,3.1-1,4.6v6.4h2.8v4.7h-10.7
		v-4.7h2.8V252.8z"/>
	<path fill="#FFFFFF" d="M514.1,265.4h4v4.7h-9l0-17.3h-3.5v-4.7h3.5v-7.4h5v7.4h3.8v4.7h-3.8V265.4z"/>
	<path fill="#FFFFFF" d="M527.5,251.4c1.4-2.5,3.8-3.8,6.6-3.8c2.6,0,4.7,1.2,6.2,3.2c1.7,2.2,1.8,4.4,1.8,7v7.6h2.8v4.7h-10.7v-4.7
		h2.8v-6.2c0-1.6,0.1-3.2-0.7-4.6c-0.9-1.4-2.4-2-4-2c-1.5,0-2.9,0.6-3.8,1.8c-1.1,1.4-1.1,2.8-1.1,4.4v6.7h2.8v4.7h-10.7v-4.7h2.8
		v-20.1l-2.8,0v-4.7h7.9V251.4z"/>
	<path fill="#FFFFFF" d="M567.6,263.7c-1.7,4.2-5.8,7.1-10.4,7.1c-6.4,0-11.6-5-11.6-11.5c0-6.5,4.9-11.8,11.5-11.8
		c3.1,0,6.1,1.4,8.3,3.6c2.2,2.3,3.1,5.1,3.1,8.3l-0.2,1.8l-17.8,0c0.7,3.1,3.5,5.3,6.6,5.3c2.2,0,4.1-0.8,5.3-2.6H567.6z
		 M563.8,257.1c-0.9-3.2-3.7-5.2-6.9-5.2c-3,0-5.8,2.3-6.4,5.2H563.8z"/>
	<path fill="#FFFFFF" d="M587.2,261.4c0,2.4,1.7,4.5,4.4,4.5c2.4,0,4.3-1.5,4.3-4c0-2.9-2.8-3.7-5-4.3c-2.1-0.6-4-1.2-5.8-2.5
		c-2.1-1.6-3.2-3.8-3.2-6.4c0-4.9,4.2-8.5,8.9-8.5c2,0,4,0.7,5.2,2.3v-1.7l4.3,0v7.9h-5c0-2.2-1.7-3.8-3.8-3.8c-2.2,0-4,1.4-4,3.7
		c0,2.9,2.6,3.5,4.8,4.2c2.3,0.6,4.4,1.2,6.3,2.7c1.9,1.5,2.9,3.7,2.9,6.2c0,5.3-4,9.2-9.3,9.2c-2.3,0-4.3-0.8-5.7-2.5v1.9h-4.5
		v-8.8H587.2z"/>
	<path fill="#FFFFFF" d="M602.8,259c0-6.4,5.2-11.6,11.6-11.6c6.4,0,11.5,5.3,11.5,11.6c0,6.4-5.1,11.7-11.6,11.7
		C607.9,270.7,602.8,265.4,602.8,259z M620.9,259.1c0-3.6-2.8-6.7-6.5-6.7c-3.6,0-6.7,2.9-6.7,6.6c0,3.6,2.8,6.8,6.6,6.8
		C618,265.8,620.9,262.8,620.9,259.1z"/>
	<path fill="#FFFFFF" d="M648.7,265.4h2.8v4.7h-7.5v-2.7c-1.4,2.1-4.1,3.3-6.6,3.3c-2.4,0-4.6-1-6.1-2.8c-1.6-1.9-1.9-4-1.9-6.4
		v-8.7h-2.8v-4.7l7.9,0V260c0,1.4,0,2.9,0.9,4.1c0.8,1.3,2.2,1.9,3.7,1.9c1.4,0,2.8-0.7,3.7-1.8c0.9-1.3,0.9-2.8,0.9-4.3v-7.1h-2.8
		v-4.7h7.9V265.4z"/>
	<path fill="#FFFFFF" d="M661.2,265.4h4v4.7h-9v-17.3h-3.5v-4.7h3.5v-7.4h5v7.4h3.8v4.7h-3.8V265.4z"/>
	<path fill="#FFFFFF" d="M674.6,251.4c1.4-2.5,3.8-3.8,6.6-3.8c2.6,0,4.7,1.2,6.2,3.2c1.7,2.2,1.8,4.4,1.8,7v7.6h2.8v4.7h-10.7v-4.7
		h2.8v-6.2c0-1.6,0.1-3.2-0.7-4.6c-0.9-1.4-2.4-2-4-2c-1.5,0-2.9,0.6-3.8,1.8c-1.1,1.4-1.1,2.8-1.1,4.4v6.7h2.8v4.7h-10.7v-4.7h2.8
		v-20.1h-2.8v-4.7h7.9V251.4z"/>
	<path fill="#FFFFFF" d="M705.4,265.4h3.2l0-20.1l-3.2,0v-4.7h13.1c2.2,0,4.3,0.2,6.1,1.5c1.9,1.4,2.8,3.5,2.8,5.9
		c0,2.7-1.4,5.1-3.8,6.3c3.3,1.3,5.1,4.1,5.1,7.6c0,2.4-1,4.7-2.8,6.2c-2,1.7-4.3,2-6.8,2h-13.7V265.4z M714.2,265.2h3.1
		c1.3,0,2.9,0,4.1-0.7c1.1-0.7,1.7-2,1.7-3.2c0-1.3-0.5-2.5-1.6-3.3c-1.2-0.9-2.6-0.9-4.1-0.9h-3.1V265.2z M714.2,252.4h2.8
		c1.4,0,2.6,0.1,3.8-0.7c0.9-0.7,1.3-1.7,1.3-2.8c0-1.2-0.5-2.3-1.5-2.9c-1-0.7-2.4-0.6-3.6-0.6h-2.9V252.4z"/>
	<path fill="#FFFFFF" d="M747.9,267.2c-1.6,2.4-4.2,3.6-7.1,3.6c-6.3,0-11.3-5.2-11.3-11.5c0-6.4,5.1-11.7,11.6-11.7
		c2.8,0,5.3,1.3,6.9,3.7v-3.1h7.9v4.7H753v12.6h2.8v4.7h-7.9V267.2z M748,259c0-3.6-3-6.6-6.6-6.6c-3.8,0-6.6,3.1-6.6,6.8
		c0,3.6,3,6.6,6.6,6.6C745.1,265.8,748,262.7,748,259z"/>
	<path fill="#FFFFFF" d="M769.5,273.5h2.9v4.7h-10.7v-4.7h2.8l1.5-3.6l-6.7-17.1h-2.9v-4.7h10.4v4.7h-2.1l3.9,10.8l4.2-10.8h-2.1
		v-4.7h10.3v4.7h-2.8L769.5,273.5z"/>
	<path fill="#FDDC2F" d="M789.4,270.1h-5.2v-5.8h5.2V270.1z"/>
</g>
</svg>
