<?xml version="1.0" encoding="utf-8"?>
<!-- Generator: Adobe Illustrator 19.1.0, SVG Export Plug-In . SVG Version: 6.00 Build 0)  -->
<svg version="1.1" xmlns="http://www.w3.org/2000/svg" xmlns:xlink="http://www.w3.org/1999/xlink" x="0px" y="0px"
	 viewBox="175 -37 550 275" style="enable-background:new 175 -37 550 275;" xml:space="preserve">
<style type="text/css">
	.st0{display:none;}
	.st1{display:inline;}
	.st2{enable-background:new    ;}
	.st3{fill:#FDDE2C;}
	.st4{fill:#F2F2F2;}
	.st5{fill:#FFFFFF;}
</style>
<g id="Layer_1">
	<g id="Layer_1_1_" class="st0">
		
			<text transform="matrix(1 0 0 1 1233.4258 -284.0687)" style="display:inline;fill:#FDDE2C; font-family:'ArialMT'; font-size:84.6367px;">Dev</text>
		
			<text transform="matrix(1 0 0 1 1386.0259 -284.0687)" style="display:inline;fill:#FDDE2C; font-family:'ArialMT'; font-size:84.6367px;">e</text>
		
			<text transform="matrix(1 0 0 1 1433.8258 -284.0687)" style="display:inline;fill:#FDDE2C; font-family:'ArialMT'; font-size:84.6367px;">l</text>
		
			<text transform="matrix(1 0 0 1 1458.4258 -284.0687)" style="display:inline;fill:#FDDE2C; font-family:'ArialMT'; font-size:84.6367px;">o</text>
		
			<text transform="matrix(1 0 0 1 1506.3258 -284.0687)" style="display:inline;fill:#FDDE2C; font-family:'ArialMT'; font-size:84.6367px;">pm</text>
		
			<text transform="matrix(1 0 0 1 1641.3258 -284.0687)" style="display:inline;fill:#FDDE2C; font-family:'ArialMT'; font-size:84.6367px;">e</text>
		
			<text transform="matrix(1 0 0 1 1688.126 -284.0687)" style="display:inline;fill:#FDDE2C; font-family:'ArialMT'; font-size:84.6367px;">n</text>
		
			<text transform="matrix(1 0 0 1 1739.4258 -284.0687)" style="display:inline;fill:#FDDE2C; font-family:'ArialMT'; font-size:84.6367px;">t</text>
		<text transform="matrix(1 0 0 1 1375.9221 -265.0679)" class="st1" style="font-family:'ArialMT'; font-size:21px;">Proven</text>
		<text transform="matrix(1 0 0 1 1321.4221 -247.0679)" class="st1" style="font-family:'ArialMT'; font-size:21px;">EXCELLENCE.</text>
	</g>
	<g id="Layer_3" class="st0">
		<g class="st1">
			<path class="st3" d="M1383.3-284.1h-30v-12.4h5.8V-332h-5.8v-12.4h29c11.5,0,17.6,6.2,17.6,15.3c0,5.8-2.6,10.2-7.7,12.7
				c6.5,2.8,10,8.1,10,15C1402.1-291.7,1395.5-284.1,1383.3-284.1z M1378.6-331.8h-4.6v10.4h4.7c3.9,0,7.6-0.4,7.6-5.2
				C1386.2-331.1,1382.7-331.8,1378.6-331.8z M1379.3-309.4h-5.3v12.2h4.7c4.7,0,8.5-0.9,8.5-6.1
				C1387.1-307.4,1384.3-309.4,1379.3-309.4z"/>
			<path class="st3" d="M1435.8-284.1v-4.7c-3,3.8-8.1,5.6-12.7,5.6c-8.5,0-16-6.3-16-17.4v-16.8h-4.8v-12.4h18.3v25.4
				c0,6,2.5,8.8,6.9,8.8c5.1,0,7.3-3.2,7.3-9.3v-12.5h-4.9v-12.4h18.7v33.2h4.8v12.4L1435.8-284.1L1435.8-284.1z"/>
			<path class="st3" d="M1496.6-317.3l-15.3,36.8h4.7v12.4h-22.9v-12.4h4.1l1.9-5l-12.5-31.8h-4.6v-12.4h22v12.4h-2.6l5,15.3
				l5.5-15.3h-2.6v-12.4h21.5v12.4C1500.8-317.3,1496.6-317.3,1496.6-317.3z"/>
			<path class="st3" d="M1545.8-301.8h-33.9c2.2,4.8,6.5,7.3,11.2,7.3c3.1,0,5.9-1,7.9-3.1h13.7c-3.7,9-12,15.1-21.6,15.1
				c-12.9,0-24-10-24-24.2c0-13.9,10.7-24.2,23.7-24.2c12.5,0,23.7,9.7,23.7,23.9C1546.5-305,1546.1-303.3,1545.8-301.8z
				 M1522.6-319.2c-4.6,0-9,2.8-10.8,7.5h22.3C1531.9-316.8,1527.3-319.2,1522.6-319.2z"/>
			<path class="st3" d="M1566.2-305v8.5h4.7v12.4h-23v-12.4h4.8v-20.8h-4.8v-12.4h17.1v6.9c3.7-5.6,7.4-7.1,13-7.5v13.8
				C1570.3-316.1,1566.2-312.1,1566.2-305z"/>
			<path class="st3" d="M1602.8-283.1c-6.3,0-9.2-1.9-11.6-3.9v2.9h-9.2v-13.1h12.9c0.5,3.1,2.3,4.5,5.7,4.5c2.9,0,4.6-1.4,4.6-3.6
				c0-3.2-3.2-4-12.2-6.4c-7.4-2-12-6.9-12-13.5c0-8,6.6-14.4,16.6-14.4c6,0,8.2,2.1,9.8,3.6v-2.8h8.9v13.2H1604
				c-0.3-2.6-1.9-4.1-4.6-4.1c-2.5,0-4.3,1.4-4.3,3.3c0,7.3,24.2,2.3,24.2,19.7C1619.3-289.6,1613.1-283.1,1602.8-283.1z"/>
		</g>
		<g class="st1">
			<path class="st4" d="M1530.6-265.1l-3.8-5.5v2.4h0.9v3.1h-6.1v-3.1h1.4v-8.8h-1.4v-3.1h7.1c3.6,0,5.5,2.3,5.5,5.3
				c0,2.2-1.2,4.1-3.1,4.5l1.8,2.2h1.5v3.1L1530.6-265.1L1530.6-265.1L1530.6-265.1z M1528.4-276.8h-1.6v4.4h1.2
				c1.7,0,2.5-0.9,2.5-2.2C1530.5-275.7,1529.9-276.8,1528.4-276.8z"/>
			<path class="st4" d="M1535.3-265.1v-3.1h1.4v-8.8h-1.4v-3.1h11.4v4.9h-3.7v-1.6h-2.6v2.6h3.5v2.9h-3.5v2.8h2.6v-1.5h3.7v4.9
				L1535.3-265.1L1535.3-265.1z"/>
			<path class="st4" d="M1559.5-265.1v-1.6c-1.1,1.2-2.6,1.9-4.5,1.9c-4.2,0-7.8-3.4-7.8-7.9s3.7-7.7,7.7-7.7c2.2,0,3.4,0.9,4.2,1.4
				v-1.1h3.1v4.9h-4.1c-0.8-1-1.7-1.5-3-1.5c-2.3,0-4.1,1.7-4.1,4c0,2.4,1.9,4.1,4.1,4.1c1.4,0,2.6-0.7,3.3-2h-4.3v-3.1h8.4v8.4h-3
				L1559.5-265.1L1559.5-265.1z"/>
			<path class="st4" d="M1563.8-265.1v-3.1h1.4v-8.8h-1.4v-3.1h6.6v3.1h-1.4v8.8h1.4v3.1H1563.8L1563.8-265.1z"/>
			<path class="st4" d="M1576.7-264.8c-1.1,0-1.9-0.3-2.6-1v0.7h-2.9v-4.8h3.4c0,1.3,0.7,1.9,1.6,1.9s1.5-0.6,1.5-1.4
				c0-1.7-2.8-1.3-5-3.1c-1.1-0.9-1.7-2-1.7-3.3c0-2.5,2-4.6,4.7-4.6c1.3,0,1.9,0.5,2.4,0.9v-0.6h2.8v4.3h-3.3
				c-0.1-1-0.7-1.5-1.4-1.5c-0.8,0-1.4,0.5-1.4,1.3c0,1.7,2.3,1.4,4.5,2.7c1.4,0.8,2.1,2.1,2.1,3.7
				C1581.5-266.9,1579.4-264.8,1576.7-264.8z"/>
			<path class="st4" d="M1591.2-274.9v-1.9h-1.6v8.7h1.4v3.1h-6.6v-3.1h1.4v-8.7h-1.5v1.9h-2.9v-5.2h12.6v5.2H1591.2L1591.2-274.9z"
				/>
			<path class="st4" d="M1594.4-265.1v-3.1h1.4v-8.8h-1.4v-3.1h11.4v4.9h-3.7v-1.6h-2.6v2.6h3.5v2.9h-3.5v2.8h2.6v-1.5h3.7v4.9
				L1594.4-265.1L1594.4-265.1z"/>
			<path class="st4" d="M1615.4-265.1l-3.8-5.5v2.4h0.9v3.1h-6.1v-3.1h1.4v-8.8h-1.4v-3.1h7.1c3.6,0,5.5,2.3,5.5,5.3
				c0,2.2-1.2,4.1-3.1,4.5l1.8,2.2h1.5v3.1L1615.4-265.1L1615.4-265.1L1615.4-265.1z M1613.3-276.8h-1.6v4.4h1.2
				c1.7,0,2.5-0.9,2.5-2.2C1615.4-275.7,1614.7-276.8,1613.3-276.8z"/>
			<path class="st4" d="M1530.1-247.1v-3.1h1.4v-2.8h-4.7v2.8h1.4v3.1h-6.6v-3.1h1.4v-8.8h-1.4v-3.1h6.6v3.1h-1.4v2.6h4.7v-2.6h-1.4
				v-3.1h6.6v3.1h-1.4v8.8h1.4v3.1H1530.1L1530.1-247.1z"/>
			<path class="st4" d="M1537.6-247.1v-3.1h1.4v-8.8h-1.4v-3.1h11.4v4.9h-3.7v-1.6h-2.6v2.6h3.5v2.9h-3.5v2.8h2.6v-1.5h3.7v4.9
				C1549-247.1,1537.6-247.1,1537.6-247.1z"/>
			<path class="st4" d="M1558.7-247.1l-3.8-5.5v2.4h0.9v3.1h-6.1v-3.1h1.4v-8.8h-1.4v-3.1h7.1c3.6,0,5.5,2.3,5.5,5.3
				c0,2.2-1.2,4.1-3.1,4.5l1.8,2.2h1.5v3.1L1558.7-247.1L1558.7-247.1L1558.7-247.1z M1556.5-258.8h-1.6v4.4h1.2
				c1.7,0,2.5-0.9,2.5-2.2C1558.6-257.7,1558-258.8,1556.5-258.8z"/>
			<path class="st4" d="M1563.4-247.1v-3.1h1.4v-8.8h-1.4v-3.1h11.4v4.9h-3.7v-1.6h-2.6v2.6h3.5v2.9h-3.5v2.8h2.6v-1.5h3.7v4.9
				C1574.8-247.1,1563.4-247.1,1563.4-247.1z"/>
			<path class="st4" d="M1575.8-247.1v-3.4h3.4v3.4H1575.8z"/>
		</g>
	</g>
	<g id="Layer_4" class="st0">
		<g class="st1">
			<path d="M1384.7-283c-4.3,0-7.5-1.1-10.3-3.9v2.8h-11.7v-19.4h13.6c0.1,5.3,2.6,7.8,6.5,7.8c3.6,0,6.2-2.4,6.2-5.8
				c0-7-11.1-5.4-20-12.5c-4.3-3.5-6.7-8-6.7-13.2c0-10.1,8.1-18.7,18.8-18.7c5.3,0,7.8,2.1,9.7,3.7v-2.4h11.3v17.6h-13.3
				c-0.3-4-2.6-6.1-5.8-6.1c-3.3,0-5.7,2-5.7,5.2c0,6.8,9.4,5.8,18.1,10.8c5.6,3.2,8.5,8.3,8.5,14.8
				C1404.1-291.3,1395.8-283,1384.7-283z"/>
			<path d="M1452-301.8h-33.9c2.2,4.8,6.5,7.3,11.2,7.3c3.1,0,5.9-1,7.9-3.1h13.7c-3.7,9-12,15.1-21.6,15.1c-12.9,0-24-10-24-24.2
				c0-13.9,10.7-24.2,23.7-24.2c12.5,0,23.7,9.7,23.7,23.9C1452.7-305,1452.4-303.3,1452-301.8z M1428.8-319.2
				c-4.6,0-9,2.8-10.7,7.5h22.3C1438.1-316.8,1433.6-319.2,1428.8-319.2z"/>
			<path d="M1454.3-284.1v-12.4h4.8V-332h-4.8v-12.4h18.3v48h4.8v12.4L1454.3-284.1L1454.3-284.1L1454.3-284.1z"/>
			<path d="M1479.5-284.1v-12.4h4.8V-332h-4.8v-12.4h18.3v48h4.8v12.4L1479.5-284.1L1479.5-284.1L1479.5-284.1z"/>
			<path d="M1550.9-301.8H1517c2.2,4.8,6.5,7.3,11.2,7.3c3.1,0,5.9-1,7.9-3.1h13.7c-3.7,9-12,15.1-21.6,15.1c-12.9,0-24-10-24-24.2
				c0-13.9,10.7-24.2,23.7-24.2c12.5,0,23.7,9.7,23.7,23.9C1551.5-305,1551.2-303.3,1550.9-301.8z M1527.7-319.2
				c-4.6,0-9,2.8-10.8,7.5h22.3C1537-316.8,1532.4-319.2,1527.7-319.2z"/>
			<path d="M1571.9-305v8.5h4.7v12.4h-23v-12.4h4.8v-20.8h-4.8v-12.4h17.1v6.9c3.7-5.6,7.4-7.1,13-7.5v13.8
				C1576-316.1,1571.9-312.1,1571.9-305z"/>
			<path d="M1607.7-283.1c-6.3,0-9.2-1.9-11.6-3.9v2.9h-9.2v-13.1h12.9c0.5,3.1,2.3,4.5,5.7,4.5c2.9,0,4.6-1.4,4.6-3.6
				c0-3.2-3.2-4-12.2-6.4c-7.4-2-12-6.9-12-13.5c0-8,6.6-14.4,16.6-14.4c6,0,8.2,2.1,9.8,3.6v-2.8h8.9v13.2H1609
				c-0.3-2.6-1.9-4.1-4.6-4.1c-2.5,0-4.3,1.4-4.3,3.3c0,7.3,24.2,2.3,24.2,19.7C1624.2-289.6,1617.9-283.1,1607.7-283.1z"/>
		</g>
		<g class="st1">
			<path class="st4" d="M1488.9-265.1l-3.8-5.5v2.4h0.9v3.1h-6v-3.1h1.4v-8.8h-1.4v-3.1h7.1c3.6,0,5.5,2.3,5.5,5.3
				c0,2.2-1.2,4.1-3.1,4.5l1.8,2.2h1.5v3.1L1488.9-265.1L1488.9-265.1L1488.9-265.1z M1486.8-276.8h-1.6v4.4h1.2
				c1.7,0,2.5-0.9,2.5-2.2C1488.9-275.7,1488.3-276.8,1486.8-276.8z"/>
			<path class="st4" d="M1493.7-265.1v-3.1h1.4v-8.8h-1.4v-3.1h11.4v4.9h-3.7v-1.6h-2.6v2.6h3.5v2.9h-3.5v2.8h2.6v-1.5h3.7v4.9
				L1493.7-265.1L1493.7-265.1z"/>
			<path class="st4" d="M1517.8-265.1v-1.6c-1.1,1.2-2.6,1.9-4.5,1.9c-4.2,0-7.8-3.4-7.8-7.9s3.7-7.7,7.7-7.7c2.2,0,3.4,0.9,4.2,1.4
				v-1.1h3.1v4.9h-4.1c-0.8-1-1.7-1.5-3-1.5c-2.3,0-4.1,1.7-4.1,4c0,2.4,1.9,4.1,4.1,4.1c1.4,0,2.6-0.7,3.3-2h-4.3v-3.1h8.4v8.4h-3
				L1517.8-265.1L1517.8-265.1z"/>
			<path class="st4" d="M1522.1-265.1v-3.1h1.4v-8.8h-1.4v-3.1h6.6v3.1h-1.4v8.8h1.4v3.1H1522.1L1522.1-265.1z"/>
			<path class="st4" d="M1535-264.8c-1.1,0-1.9-0.3-2.6-1v0.7h-2.9v-4.8h3.4c0,1.3,0.7,1.9,1.6,1.9s1.5-0.6,1.5-1.4
				c0-1.7-2.8-1.3-5-3.1c-1.1-0.9-1.7-2-1.7-3.3c0-2.5,2-4.6,4.7-4.6c1.3,0,1.9,0.5,2.4,0.9v-0.6h2.8v4.3h-3.2
				c-0.1-1-0.7-1.5-1.4-1.5c-0.8,0-1.4,0.5-1.4,1.3c0,1.7,2.3,1.4,4.5,2.7c1.4,0.8,2.1,2.1,2.1,3.7
				C1539.8-266.9,1537.7-264.8,1535-264.8z"/>
			<path class="st4" d="M1549.5-274.9v-1.9h-1.5v8.7h1.4v3.1h-6.6v-3.1h1.4v-8.7h-1.5v1.9h-2.9v-5.2h12.6v5.2H1549.5L1549.5-274.9z"
				/>
			<path class="st4" d="M1552.7-265.1v-3.1h1.4v-8.8h-1.4v-3.1h11.4v4.9h-3.7v-1.6h-2.6v2.6h3.5v2.9h-3.5v2.8h2.6v-1.5h3.7v4.9
				L1552.7-265.1L1552.7-265.1z"/>
			<path class="st4" d="M1573.8-265.1l-3.8-5.5v2.4h0.9v3.1h-6.1v-3.1h1.4v-8.8h-1.4v-3.1h7.1c3.6,0,5.5,2.3,5.5,5.3
				c0,2.2-1.2,4.1-3.1,4.5l1.8,2.2h1.5v3.1L1573.8-265.1L1573.8-265.1L1573.8-265.1z M1571.6-276.8h-1.6v4.4h1.2
				c1.7,0,2.5-0.9,2.5-2.2C1573.7-275.7,1573.1-276.8,1571.6-276.8z"/>
			<path class="st4" d="M1488.5-247.1v-3.1h1.4v-2.8h-4.7v2.8h1.4v3.1h-6.6v-3.1h1.4v-8.8h-1.4v-3.1h6.6v3.1h-1.4v2.6h4.7v-2.6h-1.4
				v-3.1h6.6v3.1h-1.4v8.8h1.4v3.1H1488.5L1488.5-247.1z"/>
			<path class="st4" d="M1496-247.1v-3.1h1.4v-8.8h-1.4v-3.1h11.4v4.9h-3.7v-1.6h-2.6v2.6h3.5v2.9h-3.5v2.8h2.6v-1.5h3.7v4.9
				C1507.4-247.1,1496-247.1,1496-247.1z"/>
			<path class="st4" d="M1517-247.1l-3.8-5.5v2.4h0.9v3.1h-6.1v-3.1h1.4v-8.8h-1.4v-3.1h7.1c3.6,0,5.5,2.3,5.5,5.3
				c0,2.2-1.2,4.1-3.1,4.5l1.8,2.2h1.5v3.1L1517-247.1L1517-247.1z M1514.9-258.8h-1.6v4.4h1.2c1.7,0,2.5-0.9,2.5-2.2
				C1517-257.7,1516.3-258.8,1514.9-258.8z"/>
			<path class="st4" d="M1521.7-247.1v-3.1h1.4v-8.8h-1.4v-3.1h11.4v4.9h-3.7v-1.6h-2.6v2.6h3.5v2.9h-3.5v2.8h2.6v-1.5h3.7v4.9
				C1533.1-247.1,1521.7-247.1,1521.7-247.1z"/>
			<path class="st4" d="M1534.1-247.1v-3.4h3.4v3.4H1534.1z"/>
		</g>
	</g>
	<g id="Layer_2">
		<g>
			<path class="st5" d="M322.6,110.9v-9.7h5.2l-1.6-4.9H311l-1.4,4.9h5.2v9.7h-24.1V99.7h5.2l13.1-32h-5.2v-11h21l17.5,43.2h5.2
				v11.2L322.6,110.9L322.6,110.9z M318.5,72.2l-4.3,13.7h8.6L318.5,72.2z"/>
			<path class="st5" d="M377.8,111.8c-4.9,0-8.5-1.8-11.6-5.3v4.5h-16.5V99.8h4.4v-32h-4.4v-11h16.5v17.4c2.6-3.2,6.3-4.9,11.2-4.9
				c11.5,0,20.2,10.2,20.2,21.5C397.6,102.8,387.8,111.8,377.8,111.8z M375.7,80.5c-5.5,0-9.8,4.4-9.8,9.8s4.3,10.1,9.9,10.1
				c5.4,0,9.6-4.5,9.6-9.9C385.4,85,381.2,80.5,375.7,80.5z"/>
			<path class="st5" d="M420.5,112.3c-12.1,0-21.9-9.8-21.9-21.9s9.7-21.8,21.9-21.8s21.9,9.6,21.9,21.7S432.6,112.3,420.5,112.3z
				 M420.5,80.5c-5.3,0-9.6,4.5-9.6,9.9c0,5.4,4.2,10,9.6,10s9.6-4.6,9.6-10C430.1,84.9,425.9,80.5,420.5,80.5z"/>
			<path class="st5" d="M471.9,110.9v-4.2c-2.7,3.4-7.3,5-11.4,5c-7.6,0-14.4-5.7-14.4-15.7V81h-4.3V69.8h16.5v22.9
				c0,5.4,2.2,7.9,6.2,7.9c4.6,0,6.6-2.9,6.6-8.4V81h-4.4V69.8h16.8v29.9h4.3v11.2H471.9L471.9,110.9z"/>
			<path class="st5" d="M491.6,110.9v-30h-5.7V69.8h5.7V56.5h12.1v13.3h5.7V81h-5.7v18.7h5.9v11.2H491.6L491.6,110.9z"/>
			<path class="st5" d="M571.3,67.7v25c0,11.6-7.1,19.3-20.4,19.3c-13.2,0-20.2-7.7-20.2-19.3v-25h-5.3V56.6H548v11.2h-4v23.6
				c0,5.6,2.8,8.1,7,8.1s6.9-2.5,6.9-8.1V67.7h-4V56.6h22.6v11.2L571.3,67.7L571.3,67.7z"/>
			<path class="st5" d="M594.5,111.8c-5.7,0-8.3-1.7-10.4-3.5v2.6h-8.3V99.1h11.6c0.5,2.8,2.1,4,5.1,4c2.6,0,4.1-1.3,4.1-3.2
				c0-2.9-2.9-3.6-11-5.8c-6.7-1.8-10.8-6.2-10.8-12.1c0-7.2,5.9-13,14.9-13c5.4,0,7.4,1.9,8.8,3.2v-2.5h8v11.9h-11
				c-0.3-2.3-1.7-3.7-4.1-3.7c-2.2,0-3.9,1.3-3.9,3c0,6.6,21.8,2.1,21.8,17.7C609.3,106,603.7,111.8,594.5,111.8z"/>
		</g>
		<g>
			<path d="M349.5,128v-2.8h1.3v-7.9h-1.3v-2.8h10.3v4.4h-3.3v-1.4h-2.3v2.3h3.1v2.6h-3.1v2.5h2.3v-1.3h3.3v4.4H349.5L349.5,128z"/>
			<path d="M367.2,128v-2.6h1.2l-1.8-2l-1.8,2h1.1v2.6h-6v-2.8h1.3l3.5-4.1l-3.4-4h-1.2v-2.8h5.9v2.6h-0.9l1.5,1.8l1.6-1.8h-0.9
				v-2.6h6v2.8H372l-3.5,4l3.5,4.1h1.3v2.8H367.2z"/>
			<path d="M379.6,123.8H378v1.5h1.3v2.8h-5.9v-2.8h1.3v-8h-1.3v-2.8h5.5c1.1,0,2,0.2,2.7,0.4c1.6,0.6,2.7,2.2,2.7,4.1
				C384.3,121.7,382.5,123.8,379.6,123.8z M379,117.5h-1v3.3h1.2c1.2,0,1.7-0.7,1.7-1.6S380.3,117.5,379,117.5z"/>
			<path d="M384.7,128v-2.8h1.3v-7.9h-1.3v-2.8H395v4.4h-3.3v-1.4h-2.3v2.3h3.2v2.6h-3.2v2.5h2.3v-1.3h3.3v4.4H384.7L384.7,128z"/>
			<path d="M403.7,128l-3.4-5v2.2h0.8v2.8h-5.5v-2.8h1.3v-7.9h-1.3v-2.8h6.4c3.2,0,5,2.1,5,4.8c0,2-1.1,3.7-2.8,4.1l1.6,2h1.4v2.8
				L403.7,128L403.7,128z M401.8,117.5h-1.4v4h1.1c1.5,0,2.2-0.8,2.2-2C403.7,118.5,403.1,117.5,401.8,117.5z"/>
			<path d="M408,128v-2.8h1.3v-7.9H408v-2.8h5.9v2.8h-1.3v7.9h1.3v2.8H408z"/>
			<path d="M414.7,128v-2.8h1.3v-7.9h-1.3v-2.8H425v4.4h-3.3v-1.4h-2.3v2.3h3.2v2.6h-3.2v2.5h2.3v-1.3h3.3v4.4H414.7L414.7,128z"/>
			<path d="M438.5,117.3V128h-3.1l-5.2-7.4v4.6h1.3v2.8h-5.9v-2.8h1.3v-7.9h-1.3v-2.8h4.2l5.3,7.6v-4.8h-1.3v-2.8h5.9v2.8
				C439.7,117.3,438.5,117.3,438.5,117.3z"/>
			<path d="M447.1,128.3c-3.7,0-6.9-3.1-6.9-7.1s3.2-6.9,6.8-6.9c1.5,0,2.8,0.5,3.8,1.4v-1.2h2.8v5h-3.2c-0.7-1.3-2-1.9-3.2-1.9
				c-2,0-3.5,1.4-3.5,3.6c0,2.1,1.6,3.8,3.6,3.8c1.3,0,2.5-0.7,3.1-2h3.6C453,126.4,449.9,128.3,447.1,128.3z"/>
			<path d="M454.4,128v-2.8h1.3v-7.9h-1.3v-2.8h10.3v4.4h-3.3v-1.4h-2.3v2.3h3.1v2.6h-3.1v2.5h2.3v-1.3h3.3v4.4H454.4L454.4,128z"/>
			<path d="M480,128.6l-1.8-1.8c-1.2,1-2.3,1.5-4,1.5c-2.3,0-4.5-1.5-4.5-3.8c0-1.9,1.2-2.8,2.5-3.7l-0.1-0.2
				c-0.5-0.6-1.1-1.4-1.1-2.8c0-2.2,1.7-3.5,3.7-3.5c1.9,0,3.5,1.3,3.5,3.2c0,1.3-0.6,2.3-1.8,3.3l1.6,1.6l1-2.2h3.1v2.7h-1.2
				l-0.9,1.6l2,2.1L480,128.6z M474.1,122.6c-0.7,0.4-1.1,0.9-1.1,1.5c0,0.8,0.5,1.3,1.4,1.3c0.7,0,1.3-0.4,1.7-0.9L474.1,122.6z
				 M474.7,116.8c-0.5,0-0.7,0.4-0.7,0.9s0.3,1.1,0.5,1.3l0.2,0.2c0.4-0.4,0.8-1,0.8-1.4C475.5,117.2,475.1,116.8,474.7,116.8z"/>
			<path d="M349.5,144.2v-2.8h1.3v-7.9h-1.3v-2.8h5.9v2.8h-1.3v7.9h1.3v2.8H349.5z"/>
			<path d="M369.2,133.5v10.7h-3.1l-5.2-7.4v4.6h1.3v2.8h-5.9v-2.8h1.3v-7.9h-1.3v-2.8h4.2l5.3,7.6v-4.8h-1.3v-2.8h5.9v2.8
				L369.2,133.5L369.2,133.5z"/>
			<path d="M379.1,135.4v-1.7h-1.4v7.8h1.3v2.8h-5.9v-2.8h1.3v-7.8H373v1.7h-2.6v-4.7h11.3v4.7H379.1z"/>
			<path d="M382,144.2v-2.8h1.3v-7.9H382v-2.8h10.3v4.4H389v-1.4h-2.3v2.3h3.1v2.6h-3.1v2.5h2.3v-1.3h3.3v4.4
				C392.3,144.2,382,144.2,382,144.2z"/>
			<path d="M403.7,144.2v-1.4c-1,1.1-2.3,1.7-4,1.7c-3.8,0-7-3.1-7-7.1s3.3-6.9,6.9-6.9c2,0,3.1,0.8,3.8,1.3v-1h2.8v4.4h-3.7
				c-0.7-0.9-1.5-1.4-2.7-1.4c-2.1,0-3.7,1.5-3.7,3.6c0,2.2,1.7,3.7,3.7,3.7c1.3,0,2.3-0.6,3-1.8h-3.9v-2.8h7.6v7.6L403.7,144.2
				L403.7,144.2L403.7,144.2z"/>
			<path d="M415.6,144.2l-3.4-4.9v2.2h0.8v2.8h-5.5v-2.8h1.3v-7.9h-1.3v-2.8h6.4c3.2,0,5,2.1,5,4.8c0,2-1.1,3.7-2.8,4.1l1.6,2h1.4
				v2.8L415.6,144.2L415.6,144.2z M413.7,133.7h-1.4v4h1.1c1.5,0,2.2-0.8,2.2-2C415.5,134.7,415,133.7,413.7,133.7z"/>
			<path d="M419.8,144.2v-2.8h1.3v-7.9h-1.3v-2.8h5.9v2.8h-1.3v7.9h1.3v2.8H419.8z"/>
			<path d="M434.8,135.4v-1.7h-1.4v7.8h1.3v2.8h-5.9v-2.8h1.3v-7.8h-1.4v1.7h-2.6v-4.7h11.3v4.7H434.8z"/>
			<path d="M448.4,133.5l-3.3,5.9v2.1h1.3v2.8h-5.9v-2.8h1.3v-2.1l-3.2-5.9h-1.2v-2.8h5.6v2.8h-1l1.5,3.1l1.6-3.1h-1v-2.8h5.5v2.8
				H448.4z"/>
			<path d="M449.1,144.2v-3h3.1v3.1h-3.1V144.2z"/>
		</g>
	</g>
</g>
<g id="Layer_2_1_">
</g>
</svg>
