<?xml version="1.0" encoding="utf-8"?>
<!-- Generator: Adobe Illustrator 19.1.0, SVG Export Plug-In . SVG Version: 6.00 Build 0)  -->
<!DOCTYPE svg PUBLIC "-//W3C//DTD SVG 1.1//EN" "http://www.w3.org/Graphics/SVG/1.1/DTD/svg11.dtd">
<svg version="1.1" id="Layer_1" xmlns="http://www.w3.org/2000/svg" xmlns:xlink="http://www.w3.org/1999/xlink" x="0px" y="0px"
	 viewBox="0 0 300 50" enable-background="new 0 0 300 50" xml:space="preserve">
<metadata><?xpacket begin="﻿" id="W5M0MpCehiHzreSzNTczkc9d"?>
<x:xmpmeta xmlns:x="adobe:ns:meta/" x:xmptk="Adobe XMP Core 5.6-c067 79.157747, 2015/03/30-23:40:42        ">
   <rdf:RDF xmlns:rdf="http://www.w3.org/1999/02/22-rdf-syntax-ns#">
      <rdf:Description rdf:about=""/>
   </rdf:RDF>
</x:xmpmeta>
                                                                                                    
                                                                                                    
                                                                                                    
                                                                                                    
                                                                                                    
                                                                                                    
                                                                                                    
                                                                                                    
                                                                                                    
                                                                                                    
                                                                                                    
                                                                                                    
                                                                                                    
                                                                                                    
                                                                                                    
                                                                                                    
                                                                                                    
                                                                                                    
                                                                                                    
                                                                                                    
                           
<?xpacket end="w"?></metadata>
<rect fill="#FFFFFF" width="300" height="50"/>
<g>
	<path fill="#FDDE2C" d="M12.8,41.4v-6.8H16V15.2h-3.2V8.4h14.5v6.8h-3.2v19.4h3.2v6.8H12.8z"/>
	<path fill="#FDDE2C" d="M64.1,15.2v26.2h-7.4L44,23.5v11.2h3.2v6.8H32.7v-6.8h3.2V15.2h-3.2V8.4H43l13,18.5V15.2h-3.2V8.4h14.5v6.8
		H64.1z"/>
	<path fill="#FDDE2C" d="M88.1,41.4v-6.8h3.2V15.2h-3.2V8.4h25.1v10.9h-8.1v-3.6h-5.7v5.8h7.7v6.3h-7.7v6.2h5.7v-3.6h8.1v10.9H88.1z
		"/>
	<path fill="#FDDE2C" d="M130.8,42c-2.4,0-4.1-0.6-5.6-2.1v1.5h-6.4V30.8h7.4c0,2.9,1.4,4.2,3.6,4.2c2,0,3.4-1.3,3.4-3.1
		c0-3.8-6.1-3-10.9-6.8c-2.4-1.9-3.6-4.3-3.6-7.2c0-5.5,4.4-10.2,10.3-10.2c2.9,0,4.2,1.2,5.3,2V8.4h6.1V18h-7.3
		c-0.1-2.2-1.4-3.3-3.1-3.3c-1.8,0-3.1,1.1-3.1,2.8c0,3.7,5.1,3.1,9.9,5.9c3,1.8,4.7,4.5,4.7,8.1C141.4,37.4,136.9,42,130.8,42z"/>
	<path fill="#FDDE2C" d="M160.1,42.1c-8.9,0-17-7.4-17-17.4c0-9.7,7.9-17,16.7-17c3.7,0,6.8,1.2,9.2,3.6v-3h6.7v12.1h-7.9
		c-1.8-3.1-4.8-4.6-7.9-4.6c-4.8,0-8.7,3.6-8.7,8.7c0,5,3.9,9.2,8.9,9.2c3.2,0,6.1-1.7,7.7-4.8h8.9
		C174.3,37.5,166.9,42.1,160.1,42.1z"/>
	<path fill="#FDDE2C" d="M200.7,41.4l-8.3-12.1v5.3h2v6.8h-13.3v-6.8h3.2V15.3h-3.2V8.4h15.5c7.9,0,12.1,5.1,12.1,11.6
		c0,4.8-2.6,8.9-6.9,9.8l4.1,4.8h3.3v6.8H200.7z M196,15.7h-3.5v9.6h2.5c3.6,0,5.5-2,5.5-4.9C200.6,18,199.2,15.7,196,15.7z"/>
	<path fill="#FDDE2C" d="M228.4,42.1c-9.4,0-17.2-7.6-17.2-17.1c0-9.5,7.7-17.2,17.3-17.2c9.5,0,17.2,7.6,17.2,17
		C245.7,34.4,237.9,42.1,228.4,42.1z M228.4,16c-5,0-9,4-9,8.9c0,5.1,4.1,9.1,9,9.1c5,0,9.1-4.1,9.1-9.1
		C237.5,19.9,233.4,16,228.4,16z"/>
	<path fill="#FDDE2C" d="M285.1,15.2l-6.7,26.2H271l-5.4-18.7l-5.2,18.7h-7.3l-7.5-26.2h-2.7V8.4h14.4v6.8h-3.1l3.1,12.4l4.9-19.2h7
		l5.5,18.9l2.9-12.1h-3.2V8.4h14.5v6.8H285.1z"/>
</g>
</svg>
