<?xml version="1.0" encoding="utf-8"?>
<!-- Generator: Adobe Illustrator 19.1.0, SVG Export Plug-In . SVG Version: 6.00 Build 0)  -->
<!DOCTYPE svg PUBLIC "-//W3C//DTD SVG 1.1//EN" "http://www.w3.org/Graphics/SVG/1.1/DTD/svg11.dtd">
<svg version="1.1" id="Layer_1" xmlns="http://www.w3.org/2000/svg" xmlns:xlink="http://www.w3.org/1999/xlink" x="0px" y="0px"
	 viewBox="0 0 500 142" enable-background="new 0 0 500 142" xml:space="preserve">
<metadata><?xpacket begin="﻿" id="W5M0MpCehiHzreSzNTczkc9d"?>
<x:xmpmeta xmlns:x="adobe:ns:meta/" x:xmptk="Adobe XMP Core 5.6-c067 79.157747, 2015/03/30-23:40:42        ">
   <rdf:RDF xmlns:rdf="http://www.w3.org/1999/02/22-rdf-syntax-ns#">
      <rdf:Description rdf:about=""/>
   </rdf:RDF>
</x:xmpmeta>
                                                                                                    
                                                                                                    
                                                                                                    
                                                                                                    
                                                                                                    
                                                                                                    
                                                                                                    
                                                                                                    
                                                                                                    
                                                                                                    
                                                                                                    
                                                                                                    
                                                                                                    
                                                                                                    
                                                                                                    
                                                                                                    
                                                                                                    
                                                                                                    
                                                                                                    
                                                                                                    
                           
<?xpacket end="w"?></metadata>
<g>
	<polygon fill="#FDDE2C" points="120.5,111.9 2.2,111.9 2.2,111.9 2.2,111.9 2.2,141.5 2.2,141.5 2.2,141.5 120.5,141.5 
		120.5,141.5 120.5,111.9 120.5,111.9 	"/>
	<polygon fill="#FDDE2C" points="246.3,74.8 128,74.8 128,104.1 128,104.3 246.3,104.3 246.3,104.1 246.3,74.8 246.3,74.8 	"/>
	<polygon fill="#FDDE2C" points="253.9,75 253.9,104.3 372.2,104.3 372.2,75 372.2,74.8 253.9,74.8 	"/>
	<polygon fill="#FDDE2C" points="253.9,38.1 253.9,67.3 253.9,67.5 257.7,67.3 372,67.3 372.2,67.5 372.2,67.3 372.2,38.1 
		372.2,37.7 253.9,37.7 	"/>
	<polygon fill="#FDDE2C" points="379.7,75 379.7,104.3 498,104.3 498,75 498,74.8 379.7,74.8 	"/>
	<polygon fill="#FDDE2C" points="438.8,0.6 379.7,30.2 498,30.2 	"/>
	<polygon fill="#FDDE2C" points="253.9,141.2 253.9,141.5 372.2,141.5 372.2,141.2 372.2,111.9 253.9,111.9 	"/>
	<polygon fill="#FDDE2C" points="379.7,141.2 379.7,141.5 498,141.5 498,141.2 498,111.9 379.7,111.9 	"/>
	<polygon fill="#FDDE2C" points="128,112.1 128,141.5 246.3,141.5 246.3,141.5 246.3,141.5 246.3,112.1 246.3,111.9 128,111.9 	"/>
	<polygon fill="#FDDE2C" points="379.7,38.1 379.7,67.3 379.7,67.5 380.1,67.3 496.2,67.3 498,67.5 498,67.3 498,38.1 498,37.7 
		379.7,37.7 	"/>
</g>
<polygon fill="#FDDE2C" points="128,141.5 246.3,141.5 185.4,134.4 "/>
<polygon fill="#FDDE2C" points="128,112.1 185.4,134.4 246.3,112.1 160.7,117.3 "/>
<polygon fill="#FDDE2C" points="120.5,111.9 120.5,111.9 2.2,111.9 2.2,111.9 91.7,120 20.3,137.1 20.3,137.1 2.2,141.5 2.2,141.5 
	120.5,141.5 91.7,120 "/>
<polygon fill="#FDDE2C" points="246,75.1 246.3,74.8 246.3,74.8 128,74.8 153.4,93.3 "/>
<polygon fill="#FDDE2C" points="128,104.1 128,104.3 246.3,104.3 153.4,93.3 "/>
<polygon fill="#FEEB80" points="253.9,141.2 253.9,141.5 372.2,141.5 372.2,141.2 262.7,134.7 "/>
<polygon fill="#FEF2AB" points="262.7,134.7 372.2,111.9 253.9,111.9 "/>
<polygon fill="#FDE556" points="253.9,104.3 372.2,104.3 311.2,78.9 "/>
<polygon fill="#FDDE2C" points="253.9,75 311.2,78.9 372.2,75 372.2,74.8 253.9,74.8 "/>
<polygon fill="#FDDE2C" points="257.7,67.3 330.4,57.5 372,67.3 283.2,46.4 "/>
<polygon fill="#FDDE2C" points="253.9,38.1 283.2,46.4 372.2,38.1 372.2,37.7 253.9,37.7 "/>
<polygon fill="#FDDE2C" points="379.7,141.2 379.7,141.5 498,141.5 498,141.2 477.8,128.5 "/>
<polygon fill="#FEEB80" points="477.8,128.5 498,111.9 379.7,111.9 "/>
<polygon fill="#FDDE2C" points="448.7,81.7 379.7,74.8 379.7,75 442.1,95.1 "/>
<polygon fill="#FDDE2C" points="379.7,104.3 498,104.3 442.1,95.1 "/>
<polygon fill="#FEF2AB" points="498,30.2 438.8,0.6 421.9,20.8 "/>
<polygon fill="#FEF2AB" points="380.1,67.3 496.2,67.3 403.7,56.3 "/>
<polygon fill="#FEF2AB" points="379.7,38.1 403.7,56.3 498,38.1 458.3,45.8 "/>
<rect x="2.2" y="111.9" fill="#FDDE2C" width="0" height="29.6"/>
<polygon fill="#FEEB80" points="91.7,120 2.2,111.9 20.3,137.1 "/>
<polygon fill="#FDDE2C" points="120.5,141.5 120.5,141.5 120.5,141.5 120.5,111.9 120.5,111.9 "/>
<polygon fill="#FDE556" points="120.5,111.9 91.7,120 120.5,141.5 120.5,141.5 "/>
<polygon fill="#FEEB80" points="128,74.8 128,104.1 153.4,93.3 "/>
<polygon fill="#FDE556" points="128,112.1 128,141.5 185.4,134.4 "/>
<polygon fill="#FDDE2C" points="253.9,111.9 253.9,141.2 262.7,134.7 "/>
<polygon fill="#FDDE2C" points="253.9,75 253.9,104.3 311.2,78.9 "/>
<polygon fill="#FDDE2C" points="253.9,67.5 257.7,67.3 253.9,67.3 "/>
<polygon fill="#FDDE2C" points="253.9,38.1 253.9,67.3 257.7,67.3 283.2,46.4 "/>
<polygon fill="#FDDE2C" points="372.2,141.2 365,120.2 372.2,111.9 262.7,134.7 "/>
<polygon fill="#FEEB80" points="372.2,104.3 372.2,75 311.2,78.9 "/>
<polygon fill="#FDDE2C" points="372.2,67.5 372.2,67.3 372,67.3 "/>
<polygon fill="#FDE556" points="372,67.3 372.2,67.3 372.2,38.1 283.2,46.4 "/>
<polygon fill="#FDDE2C" points="477.8,128.5 379.7,111.9 379.7,141.2 406.3,130.7 "/>
<polygon fill="#FEEB80" points="379.7,75 379.7,104.3 442.1,95.1 "/>
<polygon fill="#FDDE2C" points="379.7,67.5 380.1,67.3 379.7,67.3 "/>
<polygon fill="#FDDE2C" points="379.7,38.1 379.7,67.3 380.1,67.3 403.7,56.3 "/>
<polygon fill="#FDDE2C" points="498,141.2 498,111.9 477.8,128.5 "/>
<polygon fill="#FEEB80" points="498,104.3 498,75 442.1,95.1 "/>
<polygon fill="#FDE556" points="498,67.5 498,67.3 496.2,67.3 "/>
<polygon fill="#FDE556" points="496.2,67.3 498,67.3 498,38.1 403.7,56.3 "/>
<polygon fill="#FDDE2C" points="246.3,141.5 246.3,141.5 246.3,141.5 "/>
<polygon fill="#FEEB80" points="246,75.1 153.4,93.3 246.3,104.3 246.3,104.1 215.9,100.7 "/>
<polygon fill="#FEEB80" points="246.3,141.5 246.3,141.5 246.3,112.1 185.4,134.4 "/>
<polygon fill="#FDDE2C" points="438.8,0.6 379.7,30.2 421.9,20.8 "/>
<polygon fill="#FEEB80" points="421.9,20.8 379.7,30.2 498,30.2 "/>
<polygon fill="#FDDE2C" points="246.3,75 246.3,104.1 246.3,74.8 246.3,74.8 "/>
<polygon fill="#FDDE2C" points="246.3,75 246.3,74.8 246,75.1 "/>
<polygon fill="#FDDE2C" points="246,75.1 215.9,100.7 246.3,104.1 246.3,75 "/>
<polygon fill="#FDE556" points="20.3,137.1 2.2,141.5 20.3,137.1 "/>
<polygon fill="#FDE556" points="2.2,111.9 2.2,141.5 20.3,137.1 "/>
<polygon fill="#FEEB80" points="128,112.1 160.7,117.3 246.3,112.1 246.3,111.9 128,111.9 "/>
<polygon fill="#FEEB80" points="257.7,67.3 372,67.3 330.4,57.5 "/>
<polygon fill="#FDDE2C" points="379.7,38.1 458.3,45.8 498,38.1 498,37.7 379.7,37.7 "/>
<polygon fill="#FDE556" points="448.7,81.7 442.1,95.1 498,75 498,74.8 379.7,74.8 "/>
<polygon fill="#FEEB80" points="406.3,130.7 379.7,141.2 477.8,128.5 "/>
<polygon fill="#FEF2AB" points="372.2,141.2 372.2,111.9 365,120.2 "/>
</svg>
