<?xml version="1.0" encoding="utf-8"?>
<!-- Generator: Adobe Illustrator 19.1.0, SVG Export Plug-In . SVG Version: 6.00 Build 0)  -->
<!DOCTYPE svg PUBLIC "-//W3C//DTD SVG 1.1//EN" "http://www.w3.org/Graphics/SVG/1.1/DTD/svg11.dtd">
<svg version="1.1" id="Layer_1" xmlns="http://www.w3.org/2000/svg" xmlns:xlink="http://www.w3.org/1999/xlink" x="0px" y="0px"
	 viewBox="340 151 1280 300" style="enable-background:new 340 151 1280 300;" xml:space="preserve">
<metadata><?xpacket begin="﻿" id="W5M0MpCehiHzreSzNTczkc9d"?>
<x:xmpmeta xmlns:x="adobe:ns:meta/" x:xmptk="Adobe XMP Core 5.6-c067 79.157747, 2015/03/30-23:40:42        ">
   <rdf:RDF xmlns:rdf="http://www.w3.org/1999/02/22-rdf-syntax-ns#">
      <rdf:Description rdf:about=""/>
   </rdf:RDF>
</x:xmpmeta>
                                                                                                    
                                                                                                    
                                                                                                    
                                                                                                    
                                                                                                    
                                                                                                    
                                                                                                    
                                                                                                    
                                                                                                    
                                                                                                    
                                                                                                    
                                                                                                    
                                                                                                    
                                                                                                    
                                                                                                    
                                                                                                    
                                                                                                    
                                                                                                    
                                                                                                    
                                                                                                    
                           
<?xpacket end="w"?></metadata>
<style type="text/css">
	.st0{fill:#FDDC2F;}
	.st1{fill:#FFFFFF;}
</style>
<g>
	<rect x="938.3" y="427" class="st0" width="47.4" height="11.9"/>
	<rect x="887.8" y="427" class="st0" width="47.4" height="11.9"/>
	<rect x="938.3" y="412.2" class="st0" width="47.4" height="11.9"/>
	<rect x="988.6" y="427" class="st0" width="47.4" height="11.9"/>
	<rect x="988.6" y="412.2" class="st0" width="47.4" height="11.9"/>
	<rect x="988.6" y="397.3" class="st0" width="47.4" height="11.9"/>
	<rect x="1039.1" y="427" class="st0" width="47.4" height="11.9"/>
	<rect x="1039.1" y="412.2" class="st0" width="47.4" height="11.9"/>
	<polygon class="st0" points="1086.4,394.2 1039.1,394.2 1062.7,382.4 	"/>
	<rect x="1039.1" y="397.3" class="st0" width="47.4" height="11.9"/>
</g>
<g>
	<g>
		<path class="st1" d="M423.1,227.7c1,6.5,6.1,11.5,12.8,11.5c7.2,0,13.1-5.8,13.1-12.9c0-8.4-6.4-13.5-14.3-13.5h-3.1l-0.7,0.1V201
			h3.2c6.7,0,12.6-2.8,12.6-10.4c0-6-4.3-10.1-10.2-10.1c-5.4,0-9.7,3.9-9.9,9.4h-14c0.1-13.3,11.7-22,24.2-22
			c12.3,0,23.6,8.2,23.6,21.2c0,6.6-3.4,13.6-9.4,16.7c8.5,3.1,13.8,11.8,13.8,20.9c0,7-3.3,13.6-8.4,18.4c-5.6,5.3-12,7.6-19.6,7.6
			c-14.8,0-28.3-9.2-29.1-25H423.1z"/>
		<path class="st1" d="M525.9,221.6c0,8.7-1.4,15.1-7.6,21.6c-5.8,5.9-13.5,9.5-21.8,9.5c-7.6,0-15-3.2-20.5-8.4
			c-7-6.6-8.6-13.3-8.6-22.7v-22.7c0-8.7,1.2-15.1,7.5-21.6c5.7-5.9,13.5-9.4,21.7-9.4c7.7,0,15.1,3.1,20.7,8.3
			c7,6.6,8.7,13.3,8.7,22.7V221.6z M482.6,221.8c0,4.2,0.1,7.9,2.6,11.6c2.6,3.7,6.9,5.4,11.5,5.4c4.8,0,9.4-2,11.9-6.2
			c2-3.4,2.2-6.9,2.2-10.8v-22.9c0-4.2-0.1-7.9-2.7-11.6c-2.5-3.7-6.9-5.6-11.4-5.6c-4.8,0-9.4,2.2-11.9,6.4
			c-2.2,3.4-2.2,6.9-2.2,10.8V221.8z"/>
		<path class="st1" d="M563.5,207.4v-23.6H574v23.6h23.6v10.4H574v23.6h-10.4v-23.6h-23.6v-10.4H563.5z"/>
		<path class="st1" d="M657.7,238.1h8.9v12.9h-33v-12.9h8.7v-15.3L620.8,183h-8.2V170H644V183h-7.5l13.6,26.8l13.5-26.8h-7.7V170
			h31.2V183h-8.1l-21.3,39.8V238.1z"/>
		<path class="st1" d="M734.6,233.3c-4.8,11.6-16,19.4-28.6,19.4c-17.7,0-31.9-13.9-31.9-31.7c0-17.9,13.5-32.4,31.6-32.4
			c8.4,0,16.8,3.7,22.7,9.8c6,6.4,8.5,14.1,8.5,22.7l-0.5,4.9h-49c1.8,8.4,9.5,14.5,18.2,14.5c6,0,11.2-2.3,14.6-7.3H734.6z
			 M724,215.3c-2.4-8.7-10.1-14.3-19.1-14.3c-8.2,0-16,6.4-17.7,14.3H724z"/>
		<path class="st1" d="M791,242.9c-4.4,6.7-11.6,9.8-19.5,9.8c-17.4,0-31.1-14.4-31.1-31.6c0-17.6,14.1-32.2,31.8-32.2
			c7.8,0,14.6,3.6,18.8,10.2v-8.6h21.7v12.9h-7.6v34.7h7.6v12.9H791V242.9z M791.2,220.4c0-10-8.3-18.1-18.3-18.1
			c-10.3,0-18.3,8.5-18.3,18.7c0,9.9,8.3,18.1,18.1,18.1C783.2,239.2,791.2,230.8,791.2,220.4z"/>
		<path class="st1" d="M839.4,200.8c3.5-7.2,10.3-10.7,18.2-11V204c-4.4,0.2-8.5,1.4-11.9,4.4c-4.5,3.9-5.2,8.7-5.2,14.4v15.3h7.8
			v12.9h-29.5v-12.9h7.8v-34.7h-7.8v-12.9h20.7V200.8z"/>
		<path class="st1" d="M876.3,233.5c0.5,5.4,4.1,9.1,9.8,9.1c4.2,0,8.3-3,8.3-7.5c0-6-5.7-7-10.3-8.3c-10.6-2.7-22.1-6-22.1-19.3
			c0-11.6,9.8-18.3,20.5-18.3c5.4,0,10.3,1.1,13.7,5.4v-4.2h10.2v16.5h-13.4c-0.2-4.3-3.5-7.2-7.8-7.2c-3.7,0-7.7,2.2-7.7,6.4
			c0,5.7,5.6,6.9,10,7.9c10.9,2.5,22.6,5.9,22.6,19.5c0,12.3-10.3,19.1-21.7,19.1c-6.1,0-11.7-1.9-15.7-6.6v5h-10.6v-17.6H876.3z"/>
		<path class="st1" d="M951.4,238.1h8.9V183h-8.9V170h60.1v24.4H996v-10.6h-20.3v20.2h23.6v12h-23.6v21.5H996v-11h15.4v24.5h-60.1
			V238.1z"/>
		<path class="st1" d="M1060.6,220.4l16.2,17.7h7v12.9h-28.6v-11.4h4.8l-8.9-10.8l-9,10.8h4.8v11.4h-28.6v-12.9h7.2l16-17.7
			l-15.7-17h-6.8v-12.9h27.9v10.7h-5.1l9.3,10.6l9.2-10.6h-5.1v-10.7h27.6v12.9h-6.8L1060.6,220.4z"/>
		<path class="st1" d="M1098.2,203.4h-7.7v-12.9h21.7v9.5c4.4-6.9,11.7-10.2,19.9-10.2c17.1,0,30.9,14.1,30.9,31.2
			c0,16.6-13.4,31-30.2,31c-7.9,0-15.7-3.1-20.5-9.4v17.7h7.8v12.9h-29.5v-12.9h7.7V203.4z M1148.6,221c0-9.9-7.8-18.5-17.9-18.5
			c-10.2,0-18.6,7.9-18.6,18.4c0,10.1,8.2,18.3,18.3,18.3C1140.3,239.2,1148.6,231,1148.6,221z"/>
		<path class="st1" d="M1227.2,233.3c-4.8,11.6-16,19.4-28.6,19.4c-17.7,0-31.9-13.9-31.9-31.7c0-17.9,13.5-32.4,31.6-32.4
			c8.4,0,16.8,3.7,22.7,9.8c6,6.4,8.5,14.1,8.5,22.7l-0.5,4.9h-49c1.8,8.4,9.5,14.5,18.2,14.5c6,0,11.2-2.3,14.6-7.3H1227.2z
			 M1216.6,215.3c-2.4-8.7-10.1-14.3-19.1-14.3c-8.2,0-16,6.4-17.7,14.3H1216.6z"/>
		<path class="st1" d="M1250.8,200.8c3.5-7.2,10.3-10.7,18.2-11V204c-4.4,0.2-8.5,1.4-11.9,4.4c-4.5,3.9-5.2,8.7-5.2,14.4v15.3h7.8
			v12.9h-29.5v-12.9h7.8v-34.7h-7.8v-12.9h20.7V200.8z"/>
		<path class="st1" d="M1295.8,238.1h7.8v12.9H1274v-12.9h7.9v-34.7h-7.8v-12.9h21.7V238.1z M1295.8,184.7H1282V170h13.9V184.7z"/>
		<path class="st1" d="M1363.9,233.3c-4.8,11.6-16,19.4-28.6,19.4c-17.7,0-31.9-13.9-31.9-31.7c0-17.9,13.5-32.4,31.6-32.4
			c8.4,0,16.8,3.7,22.7,9.8c6,6.4,8.5,14.1,8.5,22.7l-0.5,4.9h-49c1.8,8.4,9.5,14.5,18.2,14.5c6,0,11.2-2.3,14.6-7.3H1363.9z
			 M1353.4,215.3c-2.4-8.7-10.1-14.3-19.1-14.3c-8.2,0-16,6.4-17.7,14.3H1353.4z"/>
		<path class="st1" d="M1375.7,203.4h-7.8v-12.9h21.7v8.6c3.6-6.7,10.4-10,17.9-10c6.6,0,13.1,2.7,17.5,7.5c5,5.6,5.1,10.9,5.1,17.8
			v23.7h7.8v12.9h-29.5v-12.9h7.8v-19.6c0-3.7,0-7.6-2.4-10.9c-2.5-3.3-6.6-4.9-10.7-4.9c-4.2,0-8.5,1.7-11,5.1
			c-2.6,3.4-2.6,8.6-2.6,12.7v17.6h7.8v12.9h-29.5v-12.9h7.8V203.4z"/>
		<path class="st1" d="M1499.3,230.6c-3.7,12.8-16.8,22-30.1,22c-17.6,0-32-14.2-32-31.9c0-16.8,13.3-32.1,30.5-32.1
			c6.8,0,12.8,2.7,17.4,7.6v-5.8h11.9v20.2H1484c-1.7-2.5-4-4.5-6.5-6c-2.6-1.5-5.6-2.3-8.6-2.3c-10.3,0-17.9,8.3-17.9,18.4
			c0,10.3,8.2,18.3,18.3,18.3c5.9,0,11.9-3.1,14.5-8.4H1499.3z"/>
		<path class="st1" d="M1564.2,233.3c-4.8,11.6-16,19.4-28.6,19.4c-17.7,0-31.9-13.9-31.9-31.7c0-17.9,13.5-32.4,31.6-32.4
			c8.4,0,16.8,3.7,22.7,9.8c6,6.4,8.5,14.1,8.5,22.7l-0.5,4.9h-49c1.8,8.4,9.5,14.5,18.2,14.5c6,0,11.2-2.3,14.6-7.3H1564.2z
			 M1553.6,215.3c-2.4-8.7-10.1-14.3-19.1-14.3c-8.2,0-16,6.4-17.7,14.3H1553.6z"/>
	</g>
	<g>
		<path class="st1" d="M554.8,350h7.8V363H533V350h7.9v-34.7h-7.8v-12.9h21.7V350z M554.8,296.6h-13.9v-14.6h13.9V296.6z"/>
		<path class="st1" d="M576.3,315.3h-7.8v-12.9h21.7v8.6c3.6-6.7,10.4-10,17.9-10c6.6,0,13.1,2.7,17.5,7.5c5,5.6,5.1,10.9,5.1,17.8
			V350h7.8V363H609V350h7.8v-19.6c0-3.7,0-7.6-2.4-10.9c-2.5-3.3-6.6-4.9-10.7-4.9c-4.2,0-8.5,1.7-11,5.1c-2.6,3.4-2.6,8.6-2.6,12.7
			V350h7.8V363h-29.5V350h7.8V315.3z"/>
		<path class="st1" d="M701.4,350h11V363h-24.9v-47.7H678v-12.9h9.5v-20.4h13.9v20.4h10.3v12.9h-10.3V350z"/>
		<path class="st1" d="M740.6,311.4c3.9-6.8,10.3-10.4,18.2-10.4c7,0,13.1,3.3,17.1,8.9c4.5,6.1,5,12,5,19.3V350h7.8V363h-29.5V350
			h7.8v-17.1c0-4.4,0.3-8.9-2-12.7c-2.5-3.9-6.6-5.6-11-5.6c-4.1,0-7.9,1.7-10.4,4.9c-3.1,3.7-3,7.6-3,12.1V350h7.8V363h-29.5V350
			h7.8v-55.2h-7.8v-12.9h21.7V311.4z"/>
		<path class="st1" d="M846.5,345.1c-4.8,11.6-16,19.4-28.6,19.4c-17.7,0-31.9-13.8-31.9-31.7c0-17.9,13.5-32.4,31.6-32.4
			c8.4,0,16.8,3.7,22.7,9.8c6,6.4,8.5,14.1,8.5,22.7l-0.5,4.9h-49c1.8,8.4,9.5,14.5,18.2,14.5c6,0,11.2-2.3,14.6-7.3H846.5z
			 M836,327.2c-2.4-8.7-10.1-14.3-19.1-14.3c-8.2,0-16,6.4-17.7,14.3H836z"/>
		<path class="st1" d="M904.8,338.9c0,6.7,4.5,12.4,12,12.4c6.7,0,11.9-4.2,11.9-11.1c0-8.1-7.6-10.1-13.8-11.9
			c-5.9-1.7-10.9-3.2-15.9-6.9c-5.8-4.3-8.9-10.4-8.9-17.7c0-13.4,11.5-23.4,24.5-23.4c5.6,0,11,1.8,14.4,6.2v-4.5h11.8v21.8H927
			c-0.1-6-4.5-10.6-10.6-10.6c-6,0-11,3.7-11,10.1c0,7.9,7,9.6,13.3,11.5c6.2,1.7,12.1,3.4,17.4,7.4c5.2,4.2,8.1,10.2,8.1,17
			c0,14.6-10.9,25.4-25.7,25.4c-6.2,0-11.7-2.2-15.6-6.9v5.3h-12.3v-24.1H904.8z"/>
		<path class="st1" d="M946.5,332.4c0-17.7,14.4-31.9,32-31.9c17.5,0,31.6,14.5,31.6,31.8c0,17.7-14.1,32.2-31.9,32.2
			C960.5,364.6,946.5,349.9,946.5,332.4z M996.5,332.7c0-9.9-7.8-18.5-17.9-18.5c-10,0-18.4,8.1-18.4,18.2c0,10,7.7,18.6,18.1,18.6
			C988.3,350.9,996.5,342.8,996.5,332.7z"/>
		<path class="st1" d="M1069.5,350h7.8V363h-20.5v-7.5c-4,5.9-11.2,9.1-18.3,9.1c-6.5,0-12.6-2.7-16.8-7.7c-4.4-5.2-5.3-11-5.3-17.6
			v-24h-7.8v-12.9h21.7v32.8c0,3.9,0.1,8.1,2.4,11.4c2.3,3.5,6.1,5.2,10.2,5.2c3.9,0,7.8-1.9,10.2-5c2.6-3.6,2.6-7.7,2.6-11.9v-19.5
			h-7.8v-12.9h21.7V350z"/>
		<path class="st1" d="M1098.8,350h11V363h-24.9v-47.7h-9.5v-12.9h9.5v-20.4h13.8v20.4h10.3v12.9h-10.3V350z"/>
		<path class="st1" d="M1137.9,311.4c3.9-6.8,10.3-10.4,18.2-10.4c7,0,13.1,3.3,17.1,8.9c4.5,6.1,5,12,5,19.3V350h7.8V363h-29.5V350
			h7.8v-17.1c0-4.4,0.3-8.9-2-12.7c-2.5-3.9-6.6-5.6-11-5.6c-4.1,0-7.9,1.7-10.4,4.9c-3.1,3.7-3,7.6-3,12.1V350h7.8V363h-29.5V350
			h7.8v-55.2h-7.8v-12.9h21.7V311.4z"/>
		<path class="st1" d="M1226.9,350h8.7v-55.2h-8.7v-12.9h36c6,0,11.9,0.6,16.8,4.2c5.2,4,7.6,9.6,7.6,16.1c0,7.4-3.7,14.1-10.6,17.3
			c9,3.6,14.1,11.2,14.1,20.9c0,6.5-2.7,12.9-7.6,17.1c-5.4,4.8-11.7,5.4-18.6,5.4h-37.7V350z M1251.1,349.5h8.5
			c3.6,0,8.1,0.1,11.2-2c3-1.9,4.5-5.4,4.5-8.9c0-3.6-1.4-6.9-4.4-9.2c-3.3-2.4-7.3-2.4-11.2-2.4h-8.6V349.5z M1251.2,314.3h7.8
			c3.7,0,7.3,0.2,10.4-2c2.5-1.8,3.6-4.7,3.6-7.7c0-3.3-1.4-6.2-4.2-8.1c-2.8-1.8-6.5-1.6-9.8-1.6h-7.9V314.3z"/>
		<path class="st1" d="M1345.1,354.8c-4.4,6.7-11.6,9.8-19.5,9.8c-17.4,0-31.1-14.4-31.1-31.6c0-17.6,14.1-32.2,31.8-32.2
			c7.8,0,14.6,3.6,18.8,10.2v-8.6h21.7v12.9h-7.6V350h7.6V363h-21.7V354.8z M1345.3,332.3c0-10-8.3-18.1-18.3-18.1
			c-10.3,0-18.3,8.5-18.3,18.7c0,9.9,8.3,18.1,18.1,18.1C1337.3,351,1345.3,342.6,1345.3,332.3z"/>
		<path class="st1" d="M1410.1,372.2h7.9v12.9h-29.5v-12.9h7.6l4.1-10l-18.4-46.9h-7.9v-12.9h28.6v12.9h-5.9l10.8,29.6l11.5-29.6
			h-5.9v-12.9h28.3v12.9h-7.6L1410.1,372.2z"/>
	</g>
</g>
</svg>
