<?xml version="1.0" encoding="utf-8"?>
<!-- Generator: Adobe Illustrator 19.2.0, SVG Export Plug-In . SVG Version: 6.00 Build 0)  -->
<!DOCTYPE svg PUBLIC "-//W3C//DTD SVG 1.1//EN" "http://www.w3.org/Graphics/SVG/1.1/DTD/svg11.dtd">
<svg version="1.1" id="Layer_1" xmlns="http://www.w3.org/2000/svg" xmlns:xlink="http://www.w3.org/1999/xlink" x="0px" y="0px"
	 viewBox="0 0 100 100" style="enable-background:new 0 0 100 100;" xml:space="preserve">
<metadata><?xpacket begin="﻿" id="W5M0MpCehiHzreSzNTczkc9d"?>
<x:xmpmeta xmlns:x="adobe:ns:meta/" x:xmptk="Adobe XMP Core 5.6-c111 79.158366, 2015/09/25-01:12:00        ">
   <rdf:RDF xmlns:rdf="http://www.w3.org/1999/02/22-rdf-syntax-ns#">
      <rdf:Description rdf:about=""/>
   </rdf:RDF>
</x:xmpmeta>
                                                                                                    
                                                                                                    
                                                                                                    
                                                                                                    
                                                                                                    
                                                                                                    
                                                                                                    
                                                                                                    
                                                                                                    
                                                                                                    
                                                                                                    
                                                                                                    
                                                                                                    
                                                                                                    
                                                                                                    
                                                                                                    
                                                                                                    
                                                                                                    
                                                                                                    
                                                                                                    
                           
<?xpacket end="w"?></metadata>
<style type="text/css">
	.st0{fill:#FFFFFF;}
	.st1{fill:#FDDE2C;}
	.st2{fill:#231F20;}
</style>
<g id="XMLID_1_">
	<g>
		<path class="st0" d="M50,30.8c4.3,0,7.6,3.4,7.6,7.6S54.3,46,50,46c-5,0-7.6-4.6-7.6-7.6C42.4,34.1,45.7,30.8,50,30.8z"/>
		<path class="st1" d="M64.1,38.4c0,1.9-0.3,3.7-1.2,5.6L50,73.7L37,44c-0.9-1.9-1.2-3.7-1.2-5.6c0-7.8,6.3-14.1,14.1-14.1
			S64.1,30.5,64.1,38.4z M60.3,38.4C60.3,32.7,55.7,28,50,28s-10.3,4.6-10.3,10.3c0,4.2,3.1,10.4,10.3,10.4
			C55.7,48.7,60.3,44.1,60.3,38.4z"/>
		<path class="st2" d="M57.6,38.4c0-4.3-3.4-7.6-7.6-7.6s-7.6,3.4-7.6,7.6c0,3,2.6,7.6,7.6,7.6C54.3,46,57.6,42.7,57.6,38.4z M50,28
			c5.7,0,10.3,4.6,10.3,10.3S55.7,48.7,50,48.7c-7.3,0-10.3-6.2-10.3-10.4C39.7,32.7,44.3,28,50,28z"/>
		<path class="st2" d="M33.2,38.4c0-9.3,7.5-16.8,16.8-16.8s16.8,7.5,16.8,16.8c0,2.2-0.5,4.5-1.3,6.5L51.3,77.7
			c-0.3,0.5-0.8,0.8-1.3,0.8c-0.6,0-1.1-0.3-1.3-0.8L34.5,44.9C33.7,42.8,33.2,40.6,33.2,38.4z M64.1,38.4c0-7.8-6.3-14.1-14.1-14.1
			s-14.1,6.3-14.1,14.1c0,1.9,0.3,3.7,1.2,5.6l13,29.7L63,44C63.8,42.1,64.1,40.3,64.1,38.4z"/>
	</g>
	<g>
	</g>
</g>
</svg>
