<?xml version="1.0" encoding="utf-8"?>
<!-- Generator: Adobe Illustrator 19.2.0, SVG Export Plug-In . SVG Version: 6.00 Build 0)  -->
<!DOCTYPE svg PUBLIC "-//W3C//DTD SVG 1.1//EN" "http://www.w3.org/Graphics/SVG/1.1/DTD/svg11.dtd">
<svg version="1.1" id="Layer_1" xmlns="http://www.w3.org/2000/svg" xmlns:xlink="http://www.w3.org/1999/xlink" x="0px" y="0px"
	 viewBox="0 0 100 100" style="enable-background:new 0 0 100 100;" xml:space="preserve">
<metadata><?xpacket begin="﻿" id="W5M0MpCehiHzreSzNTczkc9d"?>
<x:xmpmeta xmlns:x="adobe:ns:meta/" x:xmptk="Adobe XMP Core 5.6-c111 79.158366, 2015/09/25-01:12:00        ">
   <rdf:RDF xmlns:rdf="http://www.w3.org/1999/02/22-rdf-syntax-ns#">
      <rdf:Description rdf:about=""/>
   </rdf:RDF>
</x:xmpmeta>
                                                                                                    
                                                                                                    
                                                                                                    
                                                                                                    
                                                                                                    
                                                                                                    
                                                                                                    
                                                                                                    
                                                                                                    
                                                                                                    
                                                                                                    
                                                                                                    
                                                                                                    
                                                                                                    
                                                                                                    
                                                                                                    
                                                                                                    
                                                                                                    
                                                                                                    
                                                                                                    
                           
<?xpacket end="w"?></metadata>
<style type="text/css">
	.st0{fill:#E4E4E4;}
	.st1{fill:#FDDE2C;}
	.st2{fill:#231F20;}
</style>
<circle class="st0" cx="50" cy="50" r="50"/>
<g id="XMLID_1_">
	<g>
		<path class="st1" d="M69.9,30.1c2.6,2.6,4.1,6,4.1,9.7c0,3.7-1.4,7-4.1,9.6s-6,4-9.7,4c-0.9,0-1.7-0.1-2.5-0.3
			c-0.4-0.1-0.9,0-1.2,0.4L46.4,63.7L42.8,64l-9.9,9.9l-6.1-0.6l-0.6-6.1l21-20.9c0.3-0.4,0.5-0.9,0.3-1.4
			c-2.1-5.1-0.9-10.9,3.1-14.8c2.6-2.6,6-4.1,9.6-4.1C63.9,26.2,67.3,27.5,69.9,30.1z M69.4,37c0-1.9-0.8-3.7-2.1-5
			c-2.6-2.6-7.2-2.6-9.8,0c-1.3,1.4-2.1,3.1-2.1,5c0,1.8,0.8,3.6,2.1,4.9c1.4,1.4,3.1,2.1,4.9,2.1c1.9,0,3.7-0.8,4.9-2.1
			C68.5,40.5,69.4,38.8,69.4,37z"/>
		<path class="st2" d="M59.1,40.2c1.7,1.6,4.8,1.6,6.5,0c0.9-0.9,1.3-2,1.3-3.2c0-1.3-0.5-2.4-1.3-3.2c-0.8-0.9-2-1.3-3.2-1.3
			c-1.2,0-2.3,0.5-3.2,1.3c-0.9,0.8-1.3,2-1.3,3.2C57.7,38.1,58.2,39.3,59.1,40.2z M67.3,41.8c-1.3,1.4-3.1,2.1-4.9,2.1
			c-1.8,0-3.6-0.8-4.9-2.1c-1.3-1.3-2.1-3.1-2.1-4.9c0-1.9,0.8-3.7,2.1-5c2.6-2.6,7.2-2.6,9.8,0c1.3,1.4,2.1,3.1,2.1,5
			C69.4,38.8,68.5,40.5,67.3,41.8z"/>
		<path class="st2" d="M43.8,66.2l-9.6,9.7c-0.3,0.3-0.5,0.4-1,0.4l-7.7-0.7c-0.6-0.1-1.1-0.5-1.1-1.1l-0.7-7.7c0-0.4,0.1-0.7,0.4-1
			l20.8-20.7c-2-5.9-0.5-12.2,3.9-16.7c3.1-3.1,7.1-4.7,11.4-4.7s8.5,1.6,11.5,4.7c3.1,3.1,4.7,7.1,4.7,11.5c0,4.2-1.6,8.4-4.7,11.4
			c-3.1,3.1-7.1,4.7-11.5,4.7c-0.8,0-1.5,0-2.3-0.2l-9.9,9.9c-0.2,0.2-0.5,0.4-0.8,0.4L43.8,66.2z M42.8,64l3.7-0.3l10-9.9
			c0.3-0.4,0.7-0.5,1.2-0.4c0.8,0.2,1.6,0.3,2.5,0.3c3.8,0,7.1-1.4,9.7-4s4.1-6,4.1-9.6c0-3.8-1.4-7.1-4.1-9.7s-6-4-9.7-4
			c-3.7,0-7,1.4-9.6,4c-3.9,4-5.1,9.6-3.1,14.8c0.2,0.4,0,1-0.3,1.3L26.2,67.2l0.6,6.1l6.1,0.6L42.8,64z"/>
	</g>
</g>
</svg>
