<?xml version="1.0" encoding="utf-8"?>
<!-- Generator: Adobe Illustrator 19.2.0, SVG Export Plug-In . SVG Version: 6.00 Build 0)  -->
<!DOCTYPE svg PUBLIC "-//W3C//DTD SVG 1.1//EN" "http://www.w3.org/Graphics/SVG/1.1/DTD/svg11.dtd">
<svg version="1.1" id="Layer_1" xmlns="http://www.w3.org/2000/svg" xmlns:xlink="http://www.w3.org/1999/xlink" x="0px" y="0px"
	 viewBox="0 0 100 100" style="enable-background:new 0 0 100 100;" xml:space="preserve">
<metadata><?xpacket begin="﻿" id="W5M0MpCehiHzreSzNTczkc9d"?>
<x:xmpmeta xmlns:x="adobe:ns:meta/" x:xmptk="Adobe XMP Core 5.6-c111 79.158366, 2015/09/25-01:12:00        ">
   <rdf:RDF xmlns:rdf="http://www.w3.org/1999/02/22-rdf-syntax-ns#">
      <rdf:Description rdf:about=""/>
   </rdf:RDF>
</x:xmpmeta>
                                                                                                    
                                                                                                    
                                                                                                    
                                                                                                    
                                                                                                    
                                                                                                    
                                                                                                    
                                                                                                    
                                                                                                    
                                                                                                    
                                                                                                    
                                                                                                    
                                                                                                    
                                                                                                    
                                                                                                    
                                                                                                    
                                                                                                    
                                                                                                    
                                                                                                    
                                                                                                    
                           
<?xpacket end="w"?></metadata>
<style type="text/css">
	.st0{fill:#E4E4E4;}
	.st1{fill:#FDDE2C;}
	.st2{fill:#FFFFFF;}
	.st3{fill:#231F20;}
</style>
<circle class="st0" cx="50" cy="50" r="50"/>
<g>
	<g id="XMLID_1_">
		<g>
			<path class="st1" d="M50,34c2.9,0,5.1,2.2,5.1,5.1s-2.2,5.1-5.1,5.1s-5.1-2.2-5.1-5.1S47.1,34,50,34z"/>
			<path class="st2" d="M63.6,39.1c0,7.4-6.2,13.6-13.6,13.6c-7.5,0-13.6-6.1-13.6-13.6S42.5,25.5,50,25.5S63.6,31.7,63.6,39.1z
				 M57.7,39.1c0-4.2-3.5-7.7-7.7-7.7s-7.7,3.5-7.7,7.7s3.5,7.7,7.7,7.7S57.7,43.4,57.7,39.1z"/>
			<path class="st1" d="M58.7,52.5v24.1l-7.8-7.7c-0.5-0.5-1.3-0.5-1.7,0l-7.8,7.7V52.5c2.5,1.6,5.5,2.6,8.7,2.6
				C53.2,55.1,56.2,54.2,58.7,52.5z"/>
			<path class="st3" d="M42.3,39.1c0-4.2,3.5-7.7,7.7-7.7s7.7,3.5,7.7,7.7s-3.5,7.7-7.7,7.7S42.3,43.4,42.3,39.1z M44.9,39.1
				c0,2.9,2.2,5.1,5.1,5.1s5.1-2.2,5.1-5.1S52.9,34,50,34S44.9,36.2,44.9,39.1z"/>
			<path class="st3" d="M50,71.4l-9.1,9c-0.9,0.9-2,0.4-2-0.9V50.6c-3.1-2.9-5-7-5-11.6c0-8.9,7.1-16,16-16c8.8,0,16,7.1,16,16
				c0,4.5-1.9,8.6-5,11.5v29c0,1.4-1.4,1.4-2,0.9L50,71.4z M36.4,39.1c0,7.5,6.1,13.6,13.6,13.6c7.4,0,13.6-6.2,13.6-13.6
				c0-7.5-6.1-13.6-13.6-13.6S36.4,31.7,36.4,39.1z M50,55.1c-3.2,0-6.2-1-8.7-2.6v24.1l7.8-7.7c0.5-0.5,1.3-0.5,1.7,0l7.8,7.7V52.5
				C56.2,54.2,53.2,55.1,50,55.1z"/>
		</g>
	</g>
</g>
</svg>
