<?xml version="1.0" encoding="utf-8"?>
<!-- Generator: Adobe Illustrator 19.2.0, SVG Export Plug-In . SVG Version: 6.00 Build 0)  -->
<!DOCTYPE svg PUBLIC "-//W3C//DTD SVG 1.1//EN" "http://www.w3.org/Graphics/SVG/1.1/DTD/svg11.dtd">
<svg version="1.1" id="Layer_1" xmlns="http://www.w3.org/2000/svg" xmlns:xlink="http://www.w3.org/1999/xlink" x="0px" y="0px"
	 viewBox="0 0 100 100" style="enable-background:new 0 0 100 100;" xml:space="preserve">
<metadata><?xpacket begin="﻿" id="W5M0MpCehiHzreSzNTczkc9d"?>
<x:xmpmeta xmlns:x="adobe:ns:meta/" x:xmptk="Adobe XMP Core 5.6-c111 79.158366, 2015/09/25-01:12:00        ">
   <rdf:RDF xmlns:rdf="http://www.w3.org/1999/02/22-rdf-syntax-ns#">
      <rdf:Description rdf:about=""/>
   </rdf:RDF>
</x:xmpmeta>
                                                                                                    
                                                                                                    
                                                                                                    
                                                                                                    
                                                                                                    
                                                                                                    
                                                                                                    
                                                                                                    
                                                                                                    
                                                                                                    
                                                                                                    
                                                                                                    
                                                                                                    
                                                                                                    
                                                                                                    
                                                                                                    
                                                                                                    
                                                                                                    
                                                                                                    
                                                                                                    
                           
<?xpacket end="w"?></metadata>
<style type="text/css">
	.st0{fill:#FFFFFF;}
	.st1{fill:#FFF100;}
	.st2{fill:#231F20;}
</style>
<g>
	<g id="XMLID_1_">
		<g>
			<path class="st0" d="M50,30c3.2,0,5.7,2.5,5.7,5.7c0,3.2-2.5,5.7-5.7,5.7s-5.7-2.5-5.7-5.7C44.3,32.5,46.8,30,50,30z"/>
			<path class="st1" d="M65.1,35.7c0,8.2-6.9,15.1-15.1,15.1c-8.3,0-15.1-6.8-15.1-15.1S41.7,20.6,50,20.6S65.1,27.4,65.1,35.7z
				 M58.6,35.7c0-4.7-3.9-8.6-8.6-8.6s-8.6,3.9-8.6,8.6s3.9,8.6,8.6,8.6S58.6,40.4,58.6,35.7z"/>
			<path class="st1" d="M59.7,50.6v26.8L51,68.8c-0.6-0.6-1.4-0.6-1.9,0l-8.7,8.6V50.6c2.8,1.8,6.1,2.9,9.7,2.9
				C53.6,53.5,56.9,52.4,59.7,50.6z"/>
			<path class="st2" d="M41.4,35.7c0-4.7,3.9-8.6,8.6-8.6s8.6,3.9,8.6,8.6s-3.9,8.6-8.6,8.6S41.4,40.4,41.4,35.7z M44.3,35.7
				c0,3.2,2.5,5.7,5.7,5.7s5.7-2.5,5.7-5.7c0-3.2-2.5-5.7-5.7-5.7S44.3,32.5,44.3,35.7z"/>
			<path class="st2" d="M50,71.6L39.9,81.6c-1,1-2.2,0.4-2.2-1V48.5c-3.4-3.2-5.5-7.8-5.5-12.9c0-9.9,7.9-17.8,17.8-17.8
				c9.8,0,17.8,7.9,17.8,17.8c0,5-2.1,9.6-5.5,12.8v32.2c0,1.6-1.5,1.6-2.2,1L50,71.6z M34.9,35.7c0,8.3,6.8,15.1,15.1,15.1
				c8.2,0,15.1-6.9,15.1-15.1c0-8.3-6.8-15.1-15.1-15.1S34.9,27.4,34.9,35.7z M50,53.5c-3.6,0-6.9-1.1-9.7-2.9v26.8l8.7-8.6
				c0.6-0.6,1.4-0.6,1.9,0l8.7,8.6V50.6C56.9,52.4,53.6,53.5,50,53.5z"/>
		</g>
		<g>
		</g>
	</g>
</g>
</svg>
