<?xml version="1.0" encoding="utf-8"?>
<!-- Generator: Adobe Illustrator 19.2.0, SVG Export Plug-In . SVG Version: 6.00 Build 0)  -->
<!DOCTYPE svg PUBLIC "-//W3C//DTD SVG 1.1//EN" "http://www.w3.org/Graphics/SVG/1.1/DTD/svg11.dtd">
<svg version="1.1" id="Layer_1" xmlns="http://www.w3.org/2000/svg" xmlns:xlink="http://www.w3.org/1999/xlink" x="0px" y="0px"
	 viewBox="0 0 100 100" style="enable-background:new 0 0 100 100;" xml:space="preserve">
<metadata><?xpacket begin="﻿" id="W5M0MpCehiHzreSzNTczkc9d"?>
<x:xmpmeta xmlns:x="adobe:ns:meta/" x:xmptk="Adobe XMP Core 5.6-c111 79.158366, 2015/09/25-01:12:00        ">
   <rdf:RDF xmlns:rdf="http://www.w3.org/1999/02/22-rdf-syntax-ns#">
      <rdf:Description rdf:about=""/>
   </rdf:RDF>
</x:xmpmeta>
                                                                                                    
                                                                                                    
                                                                                                    
                                                                                                    
                                                                                                    
                                                                                                    
                                                                                                    
                                                                                                    
                                                                                                    
                                                                                                    
                                                                                                    
                                                                                                    
                                                                                                    
                                                                                                    
                                                                                                    
                                                                                                    
                                                                                                    
                                                                                                    
                                                                                                    
                                                                                                    
                           
<?xpacket end="w"?></metadata>
<style type="text/css">
	.st0{fill:#FDDE2C;}
	.st1{fill:#231F20;}
</style>
<g id="XMLID_1_">
	<g>
		<path class="st0" d="M72.1,27.9c2.9,2.9,4.5,6.7,4.5,10.8c0,4.1-1.6,7.8-4.5,10.7c-2.9,2.9-6.7,4.5-10.8,4.5c-1,0-1.9-0.1-2.8-0.3
			c-0.5-0.1-1,0-1.3,0.4L46,65.2L42,65.5l-11,11l-6.8-0.7l-0.7-6.8l23.3-23.2c0.3-0.4,0.5-1,0.3-1.5c-2.3-5.7-1-12.1,3.4-16.4
			c2.9-2.9,6.7-4.5,10.7-4.5C65.4,23.5,69.2,25,72.1,27.9z M71.5,35.5c0-2.1-0.9-4.1-2.3-5.5c-2.9-2.9-8-2.9-10.9,0
			c-1.5,1.5-2.3,3.4-2.3,5.5c0,2,0.9,4,2.3,5.4c1.5,1.5,3.4,2.3,5.4,2.3c2.1,0,4.1-0.9,5.5-2.3C70.6,39.5,71.5,37.5,71.5,35.5z"/>
		<path class="st1" d="M60.1,39.1c1.9,1.8,5.3,1.8,7.2,0c1-1,1.5-2.2,1.5-3.6c0-1.4-0.6-2.7-1.5-3.6c-0.9-1-2.2-1.5-3.6-1.5
			c-1.3,0-2.6,0.6-3.6,1.5c-1,0.9-1.5,2.2-1.5,3.6C58.6,36.8,59.1,38.1,60.1,39.1z M69.2,40.9c-1.5,1.5-3.4,2.3-5.5,2.3
			c-2,0-4-0.9-5.4-2.3c-1.5-1.5-2.3-3.4-2.3-5.4c0-2.1,0.9-4.1,2.3-5.5c2.9-2.9,8-2.9,10.9,0c1.4,1.5,2.3,3.4,2.3,5.5
			C71.5,37.5,70.6,39.5,69.2,40.9z"/>
		<path class="st1" d="M43.1,68L32.4,78.8c-0.3,0.3-0.6,0.4-1.1,0.4l-8.5-0.8c-0.7-0.1-1.2-0.6-1.2-1.2l-0.8-8.5
			c0-0.4,0.1-0.8,0.4-1.1l23.1-23c-2.2-6.5-0.6-13.6,4.3-18.6c3.4-3.4,7.9-5.2,12.7-5.2c4.8,0,9.4,1.8,12.8,5.2
			c3.4,3.4,5.2,7.9,5.2,12.8c0,4.7-1.8,9.3-5.2,12.7c-3.4,3.4-7.9,5.2-12.8,5.2c-0.9,0-1.7,0-2.6-0.2l-11,11
			c-0.2,0.2-0.6,0.4-0.9,0.4L43.1,68z M42,65.5l4.1-0.3l11.1-11c0.3-0.4,0.8-0.5,1.3-0.4c0.9,0.2,1.8,0.3,2.8,0.3
			c4.2,0,7.9-1.6,10.8-4.5c2.9-2.9,4.5-6.7,4.5-10.7c0-4.2-1.6-7.9-4.5-10.8c-2.9-2.9-6.7-4.5-10.8-4.5c-4.1,0-7.8,1.6-10.7,4.5
			c-4.3,4.4-5.7,10.7-3.4,16.4c0.2,0.5,0,1.1-0.3,1.5L23.5,69.1l0.7,6.8l6.8,0.7L42,65.5z"/>
	</g>
	<g>
	</g>
</g>
</svg>
