<?xml version="1.0" encoding="utf-8"?>
<!-- Generator: Adobe Illustrator 19.2.0, SVG Export Plug-In . SVG Version: 6.00 Build 0)  -->
<!DOCTYPE svg PUBLIC "-//W3C//DTD SVG 1.1//EN" "http://www.w3.org/Graphics/SVG/1.1/DTD/svg11.dtd">
<svg version="1.1" id="Layer_1" xmlns="http://www.w3.org/2000/svg" xmlns:xlink="http://www.w3.org/1999/xlink" x="0px" y="0px"
	 viewBox="0 0 100 100" style="enable-background:new 0 0 100 100;" xml:space="preserve">
<metadata><?xpacket begin="﻿" id="W5M0MpCehiHzreSzNTczkc9d"?>
<x:xmpmeta xmlns:x="adobe:ns:meta/" x:xmptk="Adobe XMP Core 5.6-c111 79.158366, 2015/09/25-01:12:00        ">
   <rdf:RDF xmlns:rdf="http://www.w3.org/1999/02/22-rdf-syntax-ns#">
      <rdf:Description rdf:about=""/>
   </rdf:RDF>
</x:xmpmeta>
                                                                                                    
                                                                                                    
                                                                                                    
                                                                                                    
                                                                                                    
                                                                                                    
                                                                                                    
                                                                                                    
                                                                                                    
                                                                                                    
                                                                                                    
                                                                                                    
                                                                                                    
                                                                                                    
                                                                                                    
                                                                                                    
                                                                                                    
                                                                                                    
                                                                                                    
                                                                                                    
                           
<?xpacket end="w"?></metadata>
<style type="text/css">
	.st0{fill:#E4E4E4;}
	.st1{fill:#FFFFFF;}
	.st2{fill:#FDDE2C;}
</style>
<circle class="st0" cx="50" cy="50" r="50"/>
<g>
	<g id="XMLID_1_">
		<g>
			<path class="st1" d="M71.2,34.6c3.7,3.7,3.8,12.3,2.9,16.1h-0.4c-0.1-2.4-0.8-8.2-5-12.3c-0.4-0.5-1.2-0.5-1.7,0l-8.2,8.2
				l-3.3-3.3l8.2-8.2c0.4-0.5,0.4-1.3,0-1.7l-1.2-1.2c-0.7-0.7-1.5-0.7-2.2-0.6c-0.9,0-1.5,0.1-2.3-0.7l-2.1-2.1l4.8-4.8l2.1,2.1
				c0.6,0.6,0.8,1.5,0.4,2.1l2.5,2.5c0.5-0.4,1.4-0.3,2,0.3L71.2,34.6z"/>
			<polygon points="74.4,64 78.2,67.9 67.8,78.2 64,74.3 			"/>
			<path class="st2" d="M69.3,60.6l-8.6,8.6L26.3,35l-2.1-10.7L35,26.3L69.3,60.6z M63.7,61.2L35.4,32.9l-2.5,2.5l28.3,28.4
				L63.7,61.2z"/>
			<polygon points="35.4,32.9 63.7,61.2 61.3,63.7 32.9,35.4 			"/>
			<path class="st2" d="M31.9,76.3c-0.2,0.3-0.5,0.3-0.8,0l0,0l-5.4-5.5c-0.1-0.2-0.2-0.3-0.2-0.4c0-0.1,0-0.2,0.1-0.3l16.2-16.2
				l6.2,6.3L31.9,76.3z"/>
			<path d="M48.1,60.2L31.9,76.4c-0.2,0.2-0.6,0.2-0.8-0.1c0.3,0.3,0.6,0.3,0.8,0L48.1,60.2L48.1,60.2z"/>
			<path d="M25.7,70.8l5.4,5.5L25.7,70.8c-0.2-0.1-0.2-0.3-0.2-0.4C25.5,70.5,25.6,70.6,25.7,70.8z"/>
			<path d="M62.6,26.1L60.5,24l-4.8,4.8l2.1,2.1c0.8,0.8,1.4,0.7,2.3,0.7c0.7-0.1,1.5-0.1,2.2,0.6l1.2,1.2c0.4,0.5,0.4,1.2,0,1.7
				l-8.2,8.2l3.3,3.3l8.2-8.2c0.5-0.5,1.3-0.5,1.7,0c4.2,4.1,4.9,9.9,5,12.3H74c0.9-3.8,0.8-12.4-2.9-16.1l-3.7-3.7
				c-0.5-0.5-1.4-0.6-2-0.3L63,28.1C63.4,27.6,63.2,26.7,62.6,26.1z M26.3,35l34.3,34.3l8.6-8.6L35,26.3l-10.7-2.1L26.3,35z
				 M31.1,76.3c0.2,0.3,0.6,0.3,0.8,0.1l16.2-16.2H48h0.1l-6.3-6.3L25.6,70.1c-0.1,0.1-0.1,0.3-0.1,0.4c0,0.2,0,0.4,0.2,0.5
				L31.1,76.3L31.1,76.3z M33.5,78c-1.2,1.2-3,1.2-4.2,0l-5.4-5.4c-1.2-1.2-1.2-3.1,0-4.2l16.2-16.2L24.7,36.7
				c-0.4-0.4-0.6-0.8-0.7-1.4l-2.1-11.2c-0.3-1.4,1.3-2.7,2.9-2.3l10.6,2.1c0.5,0.1,0.9,0.4,1.3,0.6l16.8,17l7.4-7.4l-0.3-0.3
				L60.2,34c-0.7,0.3-2.5,0.1-4.1-1.4l-2.9-2.9c-0.5-0.5-0.4-1.3,0.1-1.7l6.6-6.5c0.5-0.5,1.2-0.5,1.6-0.1l2.9,2.9
				c1.3,1.3,1.2,2.5,1.3,3.2l0.4,0.5c1.1-0.2,2.2,0.4,3.2,1.2l3.7,3.7c5.2,5.2,4.3,16.6,3.2,19.5c-0.2,0.9-0.3,0.8-3.7,0.7
				c-0.7,0-1.1-0.5-1.3-1.3c0.1-0.3,0.3-6.3-3.4-10.8l-7.4,7.3l10.5,10.5c1,0.9,1,2.5,0,3.4l-8.6,8.6c-1,1-2.4,1-3.4,0l-9-9.1
				L33.5,78z"/>
		</g>
	</g>
</g>
</svg>
