<?xml version="1.0" encoding="utf-8"?>
<!-- Generator: Adobe Illustrator 19.2.0, SVG Export Plug-In . SVG Version: 6.00 Build 0)  -->
<!DOCTYPE svg PUBLIC "-//W3C//DTD SVG 1.1//EN" "http://www.w3.org/Graphics/SVG/1.1/DTD/svg11.dtd">
<svg version="1.1" id="Layer_1" xmlns="http://www.w3.org/2000/svg" xmlns:xlink="http://www.w3.org/1999/xlink" x="0px" y="0px"
	 viewBox="0 0 150 150" style="enable-background:new 0 0 150 150;" xml:space="preserve">
<metadata><?xpacket begin="﻿" id="W5M0MpCehiHzreSzNTczkc9d"?>
<x:xmpmeta xmlns:x="adobe:ns:meta/" x:xmptk="Adobe XMP Core 5.6-c111 79.158366, 2015/09/25-01:12:00        ">
   <rdf:RDF xmlns:rdf="http://www.w3.org/1999/02/22-rdf-syntax-ns#">
      <rdf:Description rdf:about=""/>
   </rdf:RDF>
</x:xmpmeta>
                                                                                                    
                                                                                                    
                                                                                                    
                                                                                                    
                                                                                                    
                                                                                                    
                                                                                                    
                                                                                                    
                                                                                                    
                                                                                                    
                                                                                                    
                                                                                                    
                                                                                                    
                                                                                                    
                                                                                                    
                                                                                                    
                                                                                                    
                                                                                                    
                                                                                                    
                                                                                                    
                           
<?xpacket end="w"?></metadata>
<style type="text/css">
	.st0{fill:#CDCCCC;}
	.st1{fill:#FCDE2B;stroke:#010101;stroke-width:2;stroke-miterlimit:10;}
	.st2{fill:#FFFFFF;stroke:#010101;stroke-width:2;stroke-miterlimit:10;}
	.st3{fill:#FCDE2B;}
	.st4{fill:#010101;}
</style>
<circle class="st0" cx="75" cy="75" r="75"/>
<g>
	
		<rect x="75.8" y="35.7" transform="matrix(0.7071 -0.7071 0.7071 0.7071 -33.6771 80.8252)" class="st1" width="9.8" height="90.7"/>
	<path class="st2" d="M49.8,35.1c0,0,3.5-3.5,6.9,0l3.5,3.5l2.9-2.9c0,0-3.8-3.8-5.8-5.8s-6.6-4.9-13.3,1.7l-7.5,7.5l-2.9,2.9
		c0,0,2.5,3.2,0,5.8c-2.5,2.5-5.8,0-5.8,0L25,50.7l11.6,11.6l2.9-2.9c0,0-2.5-3.2,0-5.8c2.5-2.5,5.8,0,5.8,0l8.1-8.1l-3.5-3.5
		C49.8,42.1,46.4,38.6,49.8,35.1z"/>
	
		<rect x="89.7" y="71.3" transform="matrix(0.7071 -0.7071 0.7071 0.7071 -39.7777 95.5532)" class="st2" width="11.4" height="49"/>
</g>
<g>
	<path class="st2" d="M67.5,73.3l-28.9,28.9c0,0-5.7,5.8-1.2,10.4s10.4-1.2,10.4-1.2l28.9-28.9L67.5,73.3z"/>
	
		<rect x="82.1" y="41.6" transform="matrix(0.7071 0.7071 -0.7071 0.7071 69.925 -43.1569)" class="st2" width="9.9" height="42.5"/>
	<path class="st1" d="M102.7,47.3c-2.8-2.8,0-5.8,0-5.8l2.3-2.3c0,0,3.9,0.7,6.9-2.3l1.2,1.2c-3,3-2.3,6.9-2.3,6.9l-2.3,2.3
		C108.5,47.3,105.5,50.1,102.7,47.3"/>
	<line class="st2" x1="112.6" y1="37.4" x2="106" y2="43.9"/>
	<g>
		
			<rect x="37.4" y="93.4" transform="matrix(0.7071 -0.7071 0.7071 0.7071 -51.2809 66.5998)" class="st3" width="34.7" height="3.6"/>
		<path class="st4" d="M65.7,83.1l1.2,1.2l-23.1,23.1l-1.2-1.2L65.7,83.1 M65.7,80.2l-1.4,1.4l-23.1,23.1l-1.4,1.4l1.4,1.4l1.2,1.2
			l1.4,1.4l1.4-1.4l23.1-23.1l1.4-1.4l-1.4-1.4l-1.2-1.2L65.7,80.2L65.7,80.2z"/>
	</g>
</g>
</svg>
