<?xml version="1.0" encoding="utf-8"?>
<!-- Generator: Adobe Illustrator 19.2.0, SVG Export Plug-In . SVG Version: 6.00 Build 0)  -->
<!DOCTYPE svg PUBLIC "-//W3C//DTD SVG 1.1//EN" "http://www.w3.org/Graphics/SVG/1.1/DTD/svg11.dtd">
<svg version="1.1" id="Layer_1" xmlns="http://www.w3.org/2000/svg" xmlns:xlink="http://www.w3.org/1999/xlink" x="0px" y="0px"
	 viewBox="0 0 100 100" style="enable-background:new 0 0 100 100;" xml:space="preserve">
<metadata><?xpacket begin="﻿" id="W5M0MpCehiHzreSzNTczkc9d"?>
<x:xmpmeta xmlns:x="adobe:ns:meta/" x:xmptk="Adobe XMP Core 5.6-c111 79.158366, 2015/09/25-01:12:00        ">
   <rdf:RDF xmlns:rdf="http://www.w3.org/1999/02/22-rdf-syntax-ns#">
      <rdf:Description rdf:about=""/>
   </rdf:RDF>
</x:xmpmeta>
                                                                                                    
                                                                                                    
                                                                                                    
                                                                                                    
                                                                                                    
                                                                                                    
                                                                                                    
                                                                                                    
                                                                                                    
                                                                                                    
                                                                                                    
                                                                                                    
                                                                                                    
                                                                                                    
                                                                                                    
                                                                                                    
                                                                                                    
                                                                                                    
                                                                                                    
                                                                                                    
                           
<?xpacket end="w"?></metadata>
<style type="text/css">
	.st0{fill:#FDDE2C;}
</style>
<g>
	<g id="XMLID_1_">
		<g>
			<path class="st0" d="M71.4,61.8l-9.6,9.6L23.7,33.3l-2.3-11.9l11.9,2.3L71.4,61.8z M65.2,62.5L33.8,31L31,33.8l31.5,31.5
				L65.2,62.5z"/>
			<path class="st0" d="M29,79.2l-6-6c-0.3-0.3-0.3-0.7-0.1-0.9l18-18l7,7l-18,18C29.7,79.5,29.2,79.5,29,79.2z"/>
			<polygon points="77.1,65.6 81.3,69.9 69.8,81.3 65.6,77 			"/>
			<polygon points="33.8,31 65.2,62.5 62.5,65.2 31,33.8 			"/>
			<path d="M64,23.4l-2.3-2.3l-5.3,5.3l2.3,2.3c0.9,0.9,1.6,0.8,2.6,0.8c0.8-0.1,1.7-0.1,2.5,0.7l1.3,1.3c0.5,0.5,0.5,1.3,0,1.9
				l-9.1,9.1l3.7,3.7l9.1-9.1c0.6-0.5,1.5-0.5,1.9,0c4.7,4.6,5.5,11,5.6,13.7h0.4c1-4.2,0.9-13.8-3.2-17.9l-4.1-4.1
				c-0.6-0.6-1.6-0.7-2.2-0.3l-2.8-2.8C64.9,25.1,64.7,24.1,64,23.4z M23.7,33.3l38.1,38.1l9.6-9.6L33.3,23.7l-11.9-2.3L23.7,33.3z
				 M29,79.2c0.3,0.3,0.7,0.3,0.9,0l18-18l-7-7l-18,18c-0.2,0.2-0.2,0.6,0.1,0.9L29,79.2z M31.7,81.1c-1.3,1.3-3.3,1.3-4.7,0l-6-6
				c-1.3-1.3-1.3-3.4,0-4.7l18-18L21.9,35.2c-0.4-0.4-0.7-0.9-0.8-1.5l-2.3-12.4c-0.3-1.6,1.4-3,3.2-2.6l11.8,2.3
				c0.6,0.1,1,0.4,1.5,0.7L54,40.6l8.2-8.2l-0.3-0.3l-0.6,0.1c-0.8,0.3-2.8,0.1-4.6-1.6l-3.2-3.2c-0.5-0.5-0.4-1.4,0.1-1.9l7.3-7.2
				c0.5-0.5,1.3-0.5,1.8-0.1l3.2,3.2c1.4,1.4,1.3,2.8,1.4,3.6l0.5,0.5c1.2-0.2,2.5,0.4,3.5,1.3l4.1,4.1c5.8,5.8,4.8,18.4,3.5,21.7
				c-0.2,1-0.3,0.9-4.1,0.8c-0.8,0-1.2-0.5-1.4-1.4c0.1-0.3,0.3-7-3.8-12l-8.2,8.1l11.7,11.7c1.1,1,1.1,2.8,0,3.8l-9.6,9.6
				c-1.1,1.1-2.7,1.1-3.8,0L49.7,63.1L31.7,81.1z"/>
		</g>
		<g>
		</g>
	</g>
</g>
</svg>
