<?xml version="1.0" encoding="utf-8"?>
<!-- Generator: Adobe Illustrator 19.2.0, SVG Export Plug-In . SVG Version: 6.00 Build 0)  -->
<!DOCTYPE svg PUBLIC "-//W3C//DTD SVG 1.1//EN" "http://www.w3.org/Graphics/SVG/1.1/DTD/svg11.dtd">
<svg version="1.1" id="Layer_1" xmlns="http://www.w3.org/2000/svg" xmlns:xlink="http://www.w3.org/1999/xlink" x="0px" y="0px"
	 viewBox="0 0 100 100" style="enable-background:new 0 0 100 100;" xml:space="preserve">
<metadata><?xpacket begin="﻿" id="W5M0MpCehiHzreSzNTczkc9d"?>
<x:xmpmeta xmlns:x="adobe:ns:meta/" x:xmptk="Adobe XMP Core 5.6-c111 79.158366, 2015/09/25-01:12:00        ">
   <rdf:RDF xmlns:rdf="http://www.w3.org/1999/02/22-rdf-syntax-ns#">
      <rdf:Description rdf:about=""/>
   </rdf:RDF>
</x:xmpmeta>
                                                                                                    
                                                                                                    
                                                                                                    
                                                                                                    
                                                                                                    
                                                                                                    
                                                                                                    
                                                                                                    
                                                                                                    
                                                                                                    
                                                                                                    
                                                                                                    
                                                                                                    
                                                                                                    
                                                                                                    
                                                                                                    
                                                                                                    
                                                                                                    
                                                                                                    
                                                                                                    
                           
<?xpacket end="w"?></metadata>
<style type="text/css">
	.st0{fill:#E4E4E4;}
	.st1{fill:#FFFFFF;}
	.st2{fill:#FDDE2C;}
	.st3{fill:#231F20;}
</style>
<circle class="st0" cx="50" cy="50" r="50"/>
<g id="XMLID_1_">
	<g>
		<path class="st1" d="M50,35.7c3.9,0,6.8,3.1,6.8,6.8s-3,6.8-6.8,6.8c-4.5,0-6.8-4.1-6.8-6.8C43.2,38.7,46.1,35.7,50,35.7z"/>
		<path class="st2" d="M62.7,42.6c0,1.7-0.3,3.3-1.1,5L50,74.3L38.3,47.6c-0.8-1.7-1.1-3.3-1.1-5c0-7,5.7-12.7,12.7-12.7
			S62.7,35.5,62.7,42.6z M59.3,42.6c0-5.1-4.1-9.4-9.3-9.4s-9.3,4.1-9.3,9.3c0,3.8,2.8,9.4,9.3,9.4C55.1,51.8,59.3,47.7,59.3,42.6z"
			/>
		<path class="st3" d="M56.8,42.6c0-3.9-3.1-6.8-6.8-6.8s-6.8,3.1-6.8,6.8c0,2.7,2.3,6.8,6.8,6.8C53.9,49.4,56.8,46.4,56.8,42.6z
			 M50,33.2c5.1,0,9.3,4.1,9.3,9.3s-4.1,9.4-9.3,9.4c-6.6,0-9.3-5.6-9.3-9.4C40.7,37.4,44.9,33.2,50,33.2z"/>
		<path class="st3" d="M34.9,42.6c0-8.4,6.8-15.1,15.1-15.1s15.1,6.8,15.1,15.1c0,2-0.4,4-1.2,5.8L51.2,77.9
			c-0.3,0.4-0.7,0.7-1.2,0.7c-0.5,0-1-0.3-1.2-0.7L36,48.4C35.3,46.5,34.9,44.5,34.9,42.6z M62.7,42.6c0-7-5.7-12.7-12.7-12.7
			s-12.7,5.7-12.7,12.7c0,1.7,0.3,3.3,1.1,5l11.7,26.7l11.6-26.7C62.4,45.9,62.7,44.3,62.7,42.6z"/>
	</g>
</g>
</svg>
