<?xml version="1.0" encoding="utf-8"?>
<!-- Generator: Adobe Illustrator 19.1.0, SVG Export Plug-In . SVG Version: 6.00 Build 0)  -->
<!DOCTYPE svg PUBLIC "-//W3C//DTD SVG 1.1//EN" "http://www.w3.org/Graphics/SVG/1.1/DTD/svg11.dtd">
<svg version="1.1" id="Layer_1" xmlns="http://www.w3.org/2000/svg" xmlns:xlink="http://www.w3.org/1999/xlink" x="0px" y="0px"
	 viewBox="-59 259 608 275" enable-background="new -59 259 608 275" xml:space="preserve">
<metadata><?xpacket begin="﻿" id="W5M0MpCehiHzreSzNTczkc9d"?>
<x:xmpmeta xmlns:x="adobe:ns:meta/" x:xmptk="Adobe XMP Core 5.6-c067 79.157747, 2015/03/30-23:40:42        ">
   <rdf:RDF xmlns:rdf="http://www.w3.org/1999/02/22-rdf-syntax-ns#">
      <rdf:Description rdf:about=""/>
   </rdf:RDF>
</x:xmpmeta>
                                                                                                    
                                                                                                    
                                                                                                    
                                                                                                    
                                                                                                    
                                                                                                    
                                                                                                    
                                                                                                    
                                                                                                    
                                                                                                    
                                                                                                    
                                                                                                    
                                                                                                    
                                                                                                    
                                                                                                    
                                                                                                    
                                                                                                    
                                                                                                    
                                                                                                    
                                                                                                    
                           
<?xpacket end="w"?></metadata>
<g>
	<path d="M-23.9,416.4c-14.7,0-28.1-12.2-28.1-28.7c0-15.9,13-28,27.5-28c6.1,0,11.2,2,15.3,5.9v-4.9H1.9v20.1h-13
		c-2.9-5.2-7.9-7.6-13-7.6c-7.9,0-14.3,5.9-14.3,14.4c0,8.3,6.4,15.3,14.6,15.3c5.3,0,10.1-2.8,12.7-7.9H3.6
		C-0.5,408.8-12.7,416.4-23.9,416.4z"/>
	<path d="M35.4,415.3v-4.2c-2.7,3.4-7.3,5-11.4,5c-7.7,0-14.4-5.6-14.4-15.6v-15.2H5.2v-11.1h16.5V397c0,5.4,2.3,7.9,6.2,7.9
		c4.6,0,6.6-2.9,6.6-8.4v-11.3H30v-11.1h16.9V404h4.3v11.2H35.4z"/>
	<path d="M71.1,396.4v7.6h4.3v11.2H54.6V404H59v-18.8h-4.3v-11.1H70v6.2c3.4-5,6.6-6.4,11.7-6.8V386C74.8,386.4,71.1,390,71.1,396.4
		z"/>
	<path d="M102,396.4v7.6h4.3v11.2H85.5V404h4.3v-18.8h-4.3v-11.1h15.4v6.2c3.4-5,6.6-6.4,11.7-6.8V386
		C105.7,386.4,102,390,102,396.4z"/>
	<path d="M156,399.2h-30.5c2,4.3,5.9,6.6,10.1,6.6c2.8,0,5.3-0.9,7.1-2.8H155c-3.4,8.1-10.8,13.6-19.4,13.6
		c-11.6,0-21.7-9-21.7-21.8c0-12.5,9.7-21.8,21.4-21.8c11.3,0,21.4,8.8,21.4,21.5C156.6,396.4,156.3,397.9,156,399.2z M135.1,383.6
		c-4.1,0-8.1,2.5-9.7,6.8h20.1C143.5,385.7,139.4,383.6,135.1,383.6z"/>
	<path d="M189.2,415.3v-23.1c0-4.8-2.4-6.9-6.4-6.9c-6.9,0-7.3,5.2-7.3,9.5v9.3h4.3v11.2H159V404h4.3v-18.8H159v-11.1h16.5v5.3
		c2.4-4,6.2-6.2,11-6.2c6.6,0,12.1,3.7,14.1,9.1c0.7,1.8,0.8,4.1,0.8,6.3V404h4.3v11.2H189.2z"/>
	<path d="M210.9,415.3v-30h-5.6v-11.1h5.6v-13.3H223v13.3h5.6v11.1H223V404h5.9v11.2H210.9z"/>
	<path d="M254.2,415.3V404h5.3v-32h-5.3v-11.2h23.9V372h-5.3v31.2H283v-5.9h13.3v17.9H254.2z"/>
	<path d="M300.5,415.3V404h4.3v-18.8h-4.3v-11.1h16.5V404h4.3v11.2H300.5z M304.8,372v-11.2h12.1V372H304.8z"/>
	<path d="M343.2,416.2c-5.6,0-8.3-1.8-10.4-3.5v2.6h-8.3v-11.8H336c0.5,2.8,2.1,4,5.1,4c2.6,0,4.1-1.3,4.1-3.3c0-2.9-2.9-3.6-11-5.8
		c-6.7-1.8-10.8-6.2-10.8-12.2c0-7.2,5.9-13,14.9-13c5.4,0,7.4,1.9,8.8,3.3V374h8v11.9h-11c-0.2-2.4-1.7-3.7-4.1-3.7
		c-2.2,0-3.9,1.2-3.9,3c0,6.6,21.8,2.1,21.8,17.8C358,410.3,352.4,416.2,343.2,416.2z"/>
	<path d="M364,415.3v-30h-5.6v-11.1h5.6v-13.3h12.1v13.3h5.6v11.1h-5.6V404h5.9v11.2H364z"/>
	<path d="M385.5,415.3V404h4.3v-18.8h-4.3v-11.1h16.5V404h4.3v11.2H385.5z M389.8,372v-11.2h12.1V372H389.8z"/>
	<path d="M439.8,415.3v-23.1c0-4.8-2.4-6.9-6.4-6.9c-6.9,0-7.3,5.2-7.3,9.5v9.3h4.3v11.2h-20.7V404h4.3v-18.8h-4.3v-11.1h16.5v5.3
		c2.4-4,6.2-6.2,11-6.2c6.6,0,12.1,3.7,14.1,9.1c0.7,1.8,0.8,4.1,0.8,6.3V404h4.3v11.2H439.8z"/>
	<path d="M500.9,385.3v25.8c0,7.8-1.4,13-7.9,17.3c-4,2.7-8.3,3.7-13.2,3.7c-10.4,0-18.1-4.7-20.2-13.6h14.1
		c1.1,2.4,3.5,3.4,6.3,3.4c5.2,0,9.2-3.4,9.2-9.2v-1.5c-1.7,2.1-4.3,5-10.8,5c-11,0-20.6-9.2-20.6-21.4c0-11.7,9.5-21.4,21-21.4
		c4.9,0,8.7,1.7,11.3,5v-4.1h15.3v11.1H500.9z M479.9,384.8c-5.6,0-10,4.4-10,9.9c0,5.5,4.5,10,10.1,10c5.6,0,10.1-4.5,10.1-10.1
		C490,389,485.3,384.8,479.9,384.8z"/>
	<path d="M527.2,416.2c-5.6,0-8.3-1.8-10.4-3.5v2.6h-8.3v-11.8H520c0.5,2.8,2.1,4,5.1,4c2.6,0,4.1-1.3,4.1-3.3c0-2.9-2.9-3.6-11-5.8
		c-6.7-1.8-10.8-6.2-10.8-12.2c0-7.2,5.9-13,14.9-13c5.4,0,7.4,1.9,8.8,3.3V374h8v11.9h-11c-0.2-2.4-1.7-3.7-4.1-3.7
		c-2.2,0-3.9,1.2-3.9,3c0,6.6,21.8,2.1,21.8,17.8C542,410.3,536.4,416.2,527.2,416.2z"/>
</g>
</svg>
