<?xml version="1.0" encoding="utf-8"?>
<!-- Generator: Adobe Illustrator 19.1.0, SVG Export Plug-In . SVG Version: 6.00 Build 0)  -->
<!DOCTYPE svg PUBLIC "-//W3C//DTD SVG 1.1//EN" "http://www.w3.org/Graphics/SVG/1.1/DTD/svg11.dtd">
<svg version="1.1" id="Layer_1" xmlns="http://www.w3.org/2000/svg" xmlns:xlink="http://www.w3.org/1999/xlink" x="0px" y="0px"
	 viewBox="1017 173.2 2434.4 154.8" enable-background="new 1017 173.2 2434.4 154.8" xml:space="preserve">
<metadata><?xpacket begin="﻿" id="W5M0MpCehiHzreSzNTczkc9d"?>
<x:xmpmeta xmlns:x="adobe:ns:meta/" x:xmptk="Adobe XMP Core 5.6-c067 79.157747, 2015/03/30-23:40:42        ">
   <rdf:RDF xmlns:rdf="http://www.w3.org/1999/02/22-rdf-syntax-ns#">
      <rdf:Description rdf:about=""/>
   </rdf:RDF>
</x:xmpmeta>
                                                                                                    
                                                                                                    
                                                                                                    
                                                                                                    
                                                                                                    
                                                                                                    
                                                                                                    
                                                                                                    
                                                                                                    
                                                                                                    
                                                                                                    
                                                                                                    
                                                                                                    
                                                                                                    
                                                                                                    
                                                                                                    
                                                                                                    
                                                                                                    
                                                                                                    
                                                                                                    
                           
<?xpacket end="w"?></metadata>
<g>
	<rect x="1153.1" y="295.8" width="124.8" height="31.2"/>
	<rect x="1020.4" y="295.8" width="124.8" height="31.2"/>
	<rect x="1153.1" y="256.6" width="124.8" height="31.2"/>
	<rect x="1285.9" y="295.8" width="124.8" height="31.2"/>
	<rect x="1285.9" y="256.6" width="124.8" height="31.2"/>
	<rect x="1285.9" y="217.5" width="124.8" height="31.2"/>
	<rect x="1418.6" y="295.8" width="124.8" height="31.2"/>
	<rect x="1418.6" y="256.6" width="124.8" height="31.2"/>
	<polygon points="1543.4,209.6 1418.6,209.6 1481,178.3 	"/>
	<rect x="1418.6" y="217.5" width="124.8" height="31.2"/>
</g>
<g>
	<path d="M1793.9,185v135h20.2v5.3h-45.9V320h19.8V185.4h-0.4l-68.5,139.9h-3.5l-68.7-139.9h-0.4V320h20.4v5.3H1621V320h19.6V185
		H1621v-5.3h29.2l67.3,136.3l67.3-136.3h29.4v5.3C1814.2,185,1793.9,185,1793.9,185z"/>
	<path d="M1939.4,320h19.4l-19.6-45.3h-76.3l-19.6,45.3h20v5.3h-45.1V320h18.8l57.9-135h-25.3v-5.3h35.3l60.2,140.3h19.4v5.3h-45.1
		L1939.4,320L1939.4,320z M1865.3,269.4h71.2l-35.7-84.2L1865.3,269.4z"/>
	<path d="M2077.3,185v89.1c0.2,13.3-0.4,32.8-17.5,44.9c-7.5,5.5-17.1,9-27.1,9s-19.6-3.5-27.1-9c-17.1-12-17.7-31.6-17.5-44.9V185
		h-19.8v-5.3h45.9v5.3H1994v89.1c0,14.1,0,23.3,9.2,35.1c6.3,8.2,18.4,13.3,30,13.3c11,0,23.1-5.1,29.4-13.3c9-11.8,9-21,9-35.1V185
		H2052v-5.3h45.9v5.3H2077.3z"/>
	<path d="M2160.5,179.7c17.3,0,26.7,1.6,36.5,8.8c8.6,6.3,14.7,19.4,14.7,32.6c0,13.2-6.1,26.3-14.7,32.6
		c-9.8,7.1-19.6,8.8-36.5,8.8h-27.9V320h20.2v5.3h-45.9V320h19.8V185h-19.8v-5.3H2160.5z M2132.5,257.2h28.2c16.3,0,24.9-2,33-8.2
		c7.1-5.1,12-16.7,12-27.7c0-11.4-4.9-23.1-12-28.2c-8.2-6.1-16.5-8.2-33-8.2h-28.2V257.2z"/>
	<path d="M2241.5,185v135h20.2v5.3h-45.9V320h19.8V185h-19.8v-5.3h45.9v5.3H2241.5z"/>
	<path d="M2402.4,317.4h0.4V185h-20.6v-5.3h45.9v5.3h-19.4v140.3h-7.5l-101.4-139.9h-0.4V320h20.4v5.3h-45.9V320h19.6V185h-19.6
		v-5.3h28.6L2402.4,317.4z"/>
	<path d="M2551.8,179.7c36.7,0,54.3,17.3,54.3,44.7c0,23.9-18,43.7-47.3,43.9h-1.8l36.9,51.8h19.4v5.3h-22.4L2546,263h11
		c27.7,0,43.2-16.5,43.2-38.4c0-21.4-13.5-39.6-48.3-39.6h-32.2v135h20.4v5.3H2494V320h19.6V185H2494v-5.3H2551.8z"/>
	<path d="M2715,290.7h5.3v34.7h-98.9v-5.3h20v-135h-20v-5.3h98.9v34.7h-5.3V185h-67.7v64.3h62.8v5.3h-62.8v65.5h67.7V290.7z"/>
	<path d="M2849.6,320h19.4l-19.6-45.3h-76.3l-19.6,45.3h20v5.3h-45.1V320h18.8l57.9-135h-25.3v-5.3h35.3l60.2,140.3h19.4v5.3h-45.1
		L2849.6,320L2849.6,320z M2775.5,269.4h71.2l-35.7-84.2L2775.5,269.4z"/>
	<path d="M2898.8,325.3V320h19.6V185h-19.6v-5.3h45.9v5.3h-20.4v135h56.5v-29.4h5.3v34.7H2898.8z"/>
	<path d="M3081.1,179.7v35.1h-5.3V185h-38.4v135h20v5.3h-45.9V320h20V185h-38.4v29.8h-5.3v-35.1H3081.1z"/>
	<path d="M3159.9,177c41.6,0,75.5,31.6,75.5,75.5c0,43.7-33.9,75.5-75.5,75.5c-41.8,0-75.7-31.8-75.7-75.5
		C3084.2,208.6,3118.1,177,3159.9,177z M3159.9,322.5c38.6,0,69.8-29.6,69.8-70s-31.2-70.2-69.8-70.2c-38.8,0-69.8,29.8-69.8,70.2
		S3121.1,322.5,3159.9,322.5z"/>
	<path d="M3294.1,179.7c36.7,0,54.3,17.3,54.3,44.7c0,23.9-18,43.7-47.3,43.9h-1.8l36.9,51.8h19.4v5.3h-22.5l-44.9-62.4h11
		c27.7,0,43.2-16.5,43.2-38.4c0.1-21.5-13.4-39.6-48.3-39.6h-32.2v135h20.4v5.3h-45.9V320h19.6V185h-19.6v-5.3H3294.1z"/>
	<path d="M3372.9,290c5.5,27.9,25.1,32.4,36.3,32.4c18.4,0,36.3-13.7,36.3-34.7c0-26.7-23.7-32.6-37.7-36.3
		c-12.6-3.3-39.4-9-39.4-36.3c-0.6-24.3,18.6-37.9,39.6-37.9c12,0,24.1,5.1,31,16.3v-13.8h5.3v30.2h-5.1
		c-2.5-10.4-8.2-27.4-31.7-27.4c-18.5,0-33.2,12.5-33.2,31.7c-0.2,23,20.4,28.3,40.4,33.4c7.1,2,36.7,7.8,36.7,39.6
		c0,23.9-20.4,40.8-42,40.8c-17.3,0-29.6-8.6-36.3-22v19.4h-5.3v-35.3L3372.9,290L3372.9,290z"/>
</g>
</svg>
