<?xml version="1.0" encoding="utf-8"?>
<!-- Generator: Adobe Illustrator 19.1.0, SVG Export Plug-In . SVG Version: 6.00 Build 0)  -->
<!DOCTYPE svg PUBLIC "-//W3C//DTD SVG 1.1//EN" "http://www.w3.org/Graphics/SVG/1.1/DTD/svg11.dtd">
<svg version="1.1" id="Layer_1" xmlns="http://www.w3.org/2000/svg" xmlns:xlink="http://www.w3.org/1999/xlink" x="0px" y="0px"
	 viewBox="1247 24.9 2205 303" enable-background="new 1247 24.9 2205 303" xml:space="preserve">
<metadata><?xpacket begin="﻿" id="W5M0MpCehiHzreSzNTczkc9d"?>
<x:xmpmeta xmlns:x="adobe:ns:meta/" x:xmptk="Adobe XMP Core 5.6-c067 79.157747, 2015/03/30-23:40:42        ">
   <rdf:RDF xmlns:rdf="http://www.w3.org/1999/02/22-rdf-syntax-ns#">
      <rdf:Description rdf:about=""/>
   </rdf:RDF>
</x:xmpmeta>
                                                                                                    
                                                                                                    
                                                                                                    
                                                                                                    
                                                                                                    
                                                                                                    
                                                                                                    
                                                                                                    
                                                                                                    
                                                                                                    
                                                                                                    
                                                                                                    
                                                                                                    
                                                                                                    
                                                                                                    
                                                                                                    
                                                                                                    
                                                                                                    
                                                                                                    
                                                                                                    
                           
<?xpacket end="w"?></metadata>
<g>
	<rect x="2665.7" y="264.2" fill="#FDDE2C" width="251.2" height="62.8"/>
	<rect x="2398.6" y="264.2" fill="#FDDE2C" width="251.2" height="62.8"/>
	<rect x="2665.7" y="185.3" fill="#FDDE2C" width="251.2" height="62.8"/>
	<rect x="2933" y="264.2" fill="#FDDE2C" width="251.2" height="62.8"/>
	<rect x="2933" y="185.3" fill="#FDDE2C" width="251.2" height="62.8"/>
	<rect x="2933" y="106.6" fill="#FDDE2C" width="251.2" height="62.8"/>
	<rect x="3200.2" y="264.2" fill="#FDDE2C" width="251.2" height="62.8"/>
	<rect x="3200.2" y="185.3" fill="#FDDE2C" width="251.2" height="62.8"/>
	<polygon fill="#FDDE2C" points="3451.4,90.7 3200.2,90.7 3325.8,27.7 	"/>
	<rect x="3200.2" y="106.6" fill="#FDDE2C" width="251.2" height="62.8"/>
</g>
<g>
	<path d="M1422.6,31v130.8h19.6v5.1h-44.5v-5.1h19.2V31.4h-0.4L1350.1,167h-3.4l-66.6-135.6h-0.4v130.5h19.8v5.1H1255v-5.1h19V31
		h-19v-5.1h28.3l65.2,132.1l65.2-132.1h28.5V31C1442.3,31,1422.6,31,1422.6,31z"/>
	<path d="M1563.6,161.9h18.8l-19-43.9h-74l-19,43.9h19.4v5.1h-43.7v-5.1h18.2L1520.5,31H1496v-5.1h34.2l58.3,136h18.8v5.1h-43.7
		L1563.6,161.9L1563.6,161.9z M1491.8,112.8h69l-34.6-81.6L1491.8,112.8z"/>
	<path d="M1697.3,31v86.4c0.2,12.9-0.4,31.8-17,43.5c-7.3,5.3-16.6,8.7-26.3,8.7s-19-3.4-26.3-8.7c-16.6-11.6-17.2-30.6-17-43.5V31
		h-19.2v-5.1h44.5V31h-19.6v86.4c0,13.7,0,22.6,8.9,34c6.1,7.9,17.8,12.9,29.1,12.9c10.7,0,22.4-4.9,28.5-12.9
		c8.7-11.4,8.7-20.4,8.7-34V31h-19v-5.1h44.5V31H1697.3z"/>
	<path d="M1777.9,25.9c16.8,0,25.9,1.6,35.4,8.5c8.3,6.1,14.2,18.8,14.2,31.6s-5.9,25.5-14.2,31.6c-9.5,6.9-19,8.5-35.4,8.5h-27
		v55.7h19.6v5.1H1726v-5.1h19.2V31H1726v-5.1H1777.9z M1750.8,101h27.3c15.8,0,24.1-1.9,32-7.9c6.9-4.9,11.6-16.2,11.6-26.8
		c0-11-4.7-22.4-11.6-27.3c-7.9-5.9-16-7.9-32-7.9h-27.3V101z"/>
	<path d="M1856.4,31v130.8h19.6v5.1h-44.5v-5.1h19.2V31h-19.2v-5.1h44.5V31H1856.4z"/>
	<path d="M2012.4,159.4h0.4V31h-20v-5.1h44.5V31h-18.8v136h-7.3l-98.3-135.6h-0.4v130.5h19.8v5.1h-44.5v-5.1h19V31h-19v-5.1h27.7
		L2012.4,159.4z"/>
	<path d="M1311,185.2c35.6,0,52.6,16.8,52.6,43.3c0,23.2-17.4,42.4-45.8,42.5h-1.7l35.8,50.2h18.8v5.1h-21.7l-43.5-60.5h10.7
		c26.8,0,41.9-16,41.9-37.2c0-20.7-13.1-38.4-46.8-38.4h-31.2v130.8h19.8v5.1H1255v-5.1h19V190.3h-19v-5.1H1311z"/>
	<path d="M1469.2,292.8h5.1v33.6h-95.9v-5.1h19.4V190.4h-19.4v-5.1h95.9v33.6h-5.1v-28.6h-65.6v62.3h60.9v5.1h-60.9v63.5h65.6V292.8
		z"/>
	<path d="M1599.7,321.2h18.8l-19-43.9h-74l-19,43.9h19.4v5.1h-43.7v-5.1h18.2l56.1-130.8H1532v-5.1h34.2l58.3,136h18.8v5.1h-43.7
		L1599.7,321.2L1599.7,321.2z M1527.9,272.1h69l-34.6-81.6L1527.9,272.1z"/>
	<path d="M1647.4,326.3v-5.1h19V190.3h-19v-5.1h44.5v5.1h-19.8v130.8h54.8v-28.5h5.1v33.6L1647.4,326.3L1647.4,326.3z"/>
	<path d="M1824.1,185.2v34h-5.1v-28.9h-37.2v130.8h19.4v5.1h-44.5v-5.1h19.4V190.3h-37.2v28.9h-5.1v-34L1824.1,185.2L1824.1,185.2z"
		/>
	<path d="M1900.4,182.6c40.3,0,73.2,30.6,73.2,73.2c0,42.4-32.9,73.2-73.2,73.2c-40.5,0-73.4-30.8-73.4-73.2
		C1827.1,213.2,1859.9,182.6,1900.4,182.6z M1900.4,323.6c37.4,0,67.7-28.7,67.7-67.8s-30.2-68-67.7-68c-37.6,0-67.7,28.9-67.7,68
		S1862.8,323.6,1900.4,323.6z"/>
	<path d="M2030.5,185.2c35.6,0,52.6,16.8,52.6,43.3c0,23.2-17.4,42.4-45.8,42.5h-1.7l35.8,50.2h18.8v5.1h-21.8l-43.5-60.5h10.7
		c26.8,0,41.9-16,41.9-37.2c0.1-20.8-13-38.4-46.8-38.4h-31.2v130.8h19.8v5.1h-44.5v-5.1h19V190.3h-19v-5.1H2030.5z"/>
	<path d="M2106.9,292.1c5.3,27,24.3,31.4,35.2,31.4c17.8,0,35.2-13.3,35.2-33.6c0-25.9-23-31.6-36.5-35.2
		c-12.2-3.2-38.2-8.7-38.2-35.2c-0.6-23.6,18-36.7,38.4-36.7c11.6,0,23.4,4.9,30,15.8v-13.4h5.1v29.3h-4.9
		c-2.4-10.1-7.9-26.6-30.7-26.6c-17.9,0-32.2,12.1-32.2,30.7c-0.2,22.3,19.8,27.4,39.2,32.4c6.9,1.9,35.6,7.6,35.6,38.4
		c0,23.2-19.8,39.5-40.7,39.5c-16.8,0-28.7-8.3-35.2-21.3v18.8h-5.1v-34.2L2106.9,292.1L2106.9,292.1z"/>
</g>
</svg>
