<?xml version="1.0" encoding="utf-8"?>
<!-- Generator: Adobe Illustrator 19.1.0, SVG Export Plug-In . SVG Version: 6.00 Build 0)  -->
<svg version="1.1" id="Layer_1" xmlns="http://www.w3.org/2000/svg" xmlns:xlink="http://www.w3.org/1999/xlink" x="0px" y="0px"
	 viewBox="175 -37 550 275" style="enable-background:new 175 -37 550 275;" xml:space="preserve">
<metadata><?xpacket begin="﻿" id="W5M0MpCehiHzreSzNTczkc9d"?>
<x:xmpmeta xmlns:x="adobe:ns:meta/" x:xmptk="Adobe XMP Core 5.6-c067 79.157747, 2015/03/30-23:40:42        ">
   <rdf:RDF xmlns:rdf="http://www.w3.org/1999/02/22-rdf-syntax-ns#">
      <rdf:Description rdf:about=""
            xmlns:ExtensisFontSense="http://www.extensis.com/meta/FontSense/">
         <ExtensisFontSense:slug>
            <rdf:Bag>
               <rdf:li>
                  <rdf:Description>
                     <ExtensisFontSense:Family>Arial</ExtensisFontSense:Family>
                     <ExtensisFontSense:Version>5.01.2</ExtensisFontSense:Version>
                     <ExtensisFontSense:OutlineFileSize>0</ExtensisFontSense:OutlineFileSize>
                     <ExtensisFontSense:KerningChecksum>0</ExtensisFontSense:KerningChecksum>
                     <ExtensisFontSense:Foundry>Monotype Typography</ExtensisFontSense:Foundry>
                     <ExtensisFontSense:FontKind>OpenType - TT</ExtensisFontSense:FontKind>
                     <ExtensisFontSense:Checksum>2169611603</ExtensisFontSense:Checksum>
                     <ExtensisFontSense:PostScriptName>ArialMT</ExtensisFontSense:PostScriptName>
                     <ExtensisFontSense:FontSense_1.2_Checksum>2169611603</ExtensisFontSense:FontSense_1.2_Checksum>
                  </rdf:Description>
               </rdf:li>
            </rdf:Bag>
         </ExtensisFontSense:slug>
      </rdf:Description>
   </rdf:RDF>
</x:xmpmeta>
                                                                                                    
                                                                                                    
                                                                                                    
                                                                                                    
                                                                                                    
                                                                                                    
                                                                                                    
                                                                                                    
                                                                                                    
                                                                                                    
                                                                                                    
                                                                                                    
                                                                                                    
                                                                                                    
                                                                                                    
                                                                                                    
                                                                                                    
                                                                                                    
                                                                                                    
                                                                                                    
                           
<?xpacket end="w"?></metadata>
<style type="text/css">
	.st0{display:none;}
	.st1{display:inline;}
	.st2{enable-background:new    ;}
	.st3{fill:#FDDE2C;}
	.st4{fill:#F2F2F2;}
	.st5{fill:none;}
</style>
<g id="Layer_1_1_" class="st0">
	
		<text transform="matrix(1 0 0 1 1233.4258 -284.0687)" style="display:inline;fill:#FDDE2C; font-family:'ArialMT'; font-size:84.6367px;">Dev</text>
	
		<text transform="matrix(1 0 0 1 1386.0259 -284.0687)" style="display:inline;fill:#FDDE2C; font-family:'ArialMT'; font-size:84.6367px;">e</text>
	
		<text transform="matrix(1 0 0 1 1433.8258 -284.0687)" style="display:inline;fill:#FDDE2C; font-family:'ArialMT'; font-size:84.6367px;">l</text>
	
		<text transform="matrix(1 0 0 1 1458.4258 -284.0687)" style="display:inline;fill:#FDDE2C; font-family:'ArialMT'; font-size:84.6367px;">o</text>
	
		<text transform="matrix(1 0 0 1 1506.3258 -284.0687)" style="display:inline;fill:#FDDE2C; font-family:'ArialMT'; font-size:84.6367px;">pm</text>
	
		<text transform="matrix(1 0 0 1 1641.3258 -284.0687)" style="display:inline;fill:#FDDE2C; font-family:'ArialMT'; font-size:84.6367px;">e</text>
	
		<text transform="matrix(1 0 0 1 1688.126 -284.0687)" style="display:inline;fill:#FDDE2C; font-family:'ArialMT'; font-size:84.6367px;">n</text>
	
		<text transform="matrix(1 0 0 1 1739.4258 -284.0687)" style="display:inline;fill:#FDDE2C; font-family:'ArialMT'; font-size:84.6367px;">t</text>
	<text transform="matrix(1 0 0 1 1375.9221 -265.0679)" class="st1" style="font-family:'ArialMT'; font-size:21px;">Proven</text>
	<text transform="matrix(1 0 0 1 1321.4221 -247.0679)" class="st1" style="font-family:'ArialMT'; font-size:21px;">EXCELLENCE.</text>
</g>
<g id="Layer_2" class="st0">
	
		<text transform="matrix(1 0 0 1 1322.7244 -284.0687)" style="display:inline;fill:#F2F2F2; font-family:'ArialMT'; font-size:84.6367px;">A</text>
	
		<text transform="matrix(1 0 0 1 1384.9243 -284.0687)" style="display:inline;fill:#F2F2F2; font-family:'ArialMT'; font-size:84.6367px;">b</text>
	
		<text transform="matrix(1 0 0 1 1439.8242 -284.0687)" style="display:inline;fill:#F2F2F2; font-family:'ArialMT'; font-size:84.6367px;">o</text>
	
		<text transform="matrix(1 0 0 1 1487.8242 -284.0687)" style="display:inline;fill:#F2F2F2; font-family:'ArialMT'; font-size:84.6367px;">u</text>
	
		<text transform="matrix(1 0 0 1 1537.7244 -284.0687)" style="display:inline;fill:#F2F2F2; font-family:'ArialMT'; font-size:84.6367px;">t</text>
	
		<text transform="matrix(1 0 0 1 1564.1243 -284.0687)" style="display:inline;fill:#F2F2F2; font-family:'ArialMT'; font-size:84.6367px;"> U</text>
	
		<text transform="matrix(1 0 0 1 1635.7244 -284.0687)" style="display:inline;fill:#F2F2F2; font-family:'ArialMT'; font-size:84.6367px;">s</text>
	<text transform="matrix(1 0 0 1 1386.7235 -265.0679)" class="st1" style="font-family:'ArialMT'; font-size:21px;">Experience &amp;</text>
	<text transform="matrix(1 0 0 1 1386.7235 -247.0679)" class="st1" style="font-family:'ArialMT'; font-size:21px;">Integrity.</text>
</g>
<g id="Layer_3">
	<g>
		<path class="st3" d="M357.4,117.5h-27v-11.2h5.2v-32h-5.2v-11h26.1c10.4,0,15.8,5.6,15.8,13.8c0,5.2-2.3,9.2-6.9,11.4
			c5.9,2.5,9,7.3,9,13.5C374.3,110.7,368.4,117.5,357.4,117.5z M353.2,74.6h-4.1V84h4.2c3.5,0,6.8-0.4,6.8-4.7
			C360,75.2,356.9,74.6,353.2,74.6z M353.8,94.8H349v11h4.2c4.2,0,7.6-0.8,7.6-5.5C360.8,96.6,358.3,94.8,353.8,94.8z"/>
		<path class="st3" d="M404.7,117.5v-4.2c-2.7,3.4-7.3,5-11.4,5c-7.6,0-14.4-5.7-14.4-15.7v-15h-4.3V76.4h16.5v22.9
			c0,5.4,2.2,7.9,6.2,7.9c4.6,0,6.6-2.9,6.6-8.4V87.6h-4.4V76.4h16.8v29.9h4.3v11.2H404.7L404.7,117.5z"/>
		<path class="st3" d="M459.4,87.7l-13.8,33.1h4.2V132h-20.6v-11.2h3.7l1.7-4.5l-11.2-28.6h-4.1V76.5h19.8v11.2h-2.3l4.5,13.8
			l5-13.8h-2.5V76.5h19.3v11.2C463.1,87.7,459.4,87.7,459.4,87.7z"/>
		<path class="st3" d="M503.6,101.6h-30.5c2,4.3,5.9,6.6,10.1,6.6c2.8,0,5.3-0.9,7.1-2.8h12.3c-3.3,8.1-10.8,13.6-19.4,13.6
			c-11.6,0-21.6-9-21.6-21.8c0-12.5,9.6-21.8,21.3-21.8c11.2,0,21.3,8.7,21.3,21.5C504.3,98.7,503.9,100.3,503.6,101.6z M482.8,86
			c-4.1,0-8.1,2.5-9.7,6.8h20.1C491.1,88.1,487,86,482.8,86z"/>
		<path class="st3" d="M522,98.7v7.7h4.2v11.2h-20.7v-11.2h4.3V87.7h-4.3V76.5h15.4v6.2c3.3-5,6.7-6.4,11.7-6.8v12.4
			C525.7,88.7,522,92.3,522,98.7z"/>
		<path class="st3" d="M554.9,118.4c-5.7,0-8.3-1.7-10.4-3.5v2.6h-8.3v-11.8h11.6c0.5,2.8,2.1,4.1,5.1,4.1c2.6,0,4.1-1.3,4.1-3.2
			c0-2.9-2.9-3.6-11-5.8c-6.7-1.8-10.8-6.2-10.8-12.2c0-7.2,5.9-13,14.9-13c5.4,0,7.4,1.9,8.8,3.2v-2.5h8v11.9h-11.1
			c-0.3-2.3-1.7-3.7-4.1-3.7c-2.2,0-3.9,1.3-3.9,3c0,6.6,21.8,2.1,21.8,17.7C569.8,112.6,564.2,118.4,554.9,118.4z"/>
	</g>
	<g>
		<path d="M490,134.6l-3.4-5v2.2h0.8v2.8h-5.5v-2.8h1.3v-7.9h-1.3v-2.8h6.4c3.2,0,4.9,2.1,4.9,4.8c0,2-1.1,3.7-2.8,4l1.6,2h1.4v2.8
			L490,134.6L490,134.6z M488,124.1h-1.4v4h1.1c1.5,0,2.2-0.8,2.2-2C489.9,125.1,489.3,124.1,488,124.1z"/>
		<path d="M494.2,134.6v-2.8h1.3v-7.9h-1.3v-2.8h10.3v4.4h-3.3v-1.4h-2.4v2.3h3.1v2.6h-3.1v2.5h2.3v-1.3h3.3v4.4L494.2,134.6
			L494.2,134.6z"/>
		<path d="M516,134.6v-1.4c-1,1.1-2.3,1.7-4,1.7c-3.8,0-7-3.1-7-7.1c0-4.1,3.3-6.9,6.9-6.9c2,0,3.1,0.8,3.8,1.3v-1h2.8v4.4h-3.7
			c-0.7-0.9-1.5-1.3-2.7-1.3c-2.1,0-3.7,1.5-3.7,3.6c0,2.2,1.7,3.7,3.7,3.7c1.3,0,2.3-0.6,3-1.8h-3.9V127h7.6v7.6H516L516,134.6
			L516,134.6z"/>
		<path d="M519.8,134.6v-2.8h1.3v-7.9h-1.3v-2.8h5.9v2.8h-1.3v7.9h1.3v2.8H519.8z"/>
		<path d="M531.5,134.9c-1,0-1.7-0.3-2.3-0.9v0.6h-2.6v-4.3h3.1c0,1.2,0.6,1.7,1.4,1.7s1.3-0.5,1.3-1.3c0-1.5-2.5-1.2-4.5-2.8
			c-1-0.8-1.5-1.8-1.5-3c0-2.2,1.8-4.1,4.2-4.1c1.2,0,1.7,0.4,2.2,0.8v-0.5h2.5v3.9h-3c-0.1-0.9-0.6-1.3-1.3-1.3s-1.3,0.4-1.3,1.2
			c0,1.5,2.1,1.3,4,2.4c1.3,0.7,1.9,1.9,1.9,3.3C535.8,133,533.9,134.9,531.5,134.9z"/>
		<path d="M544.5,125.8v-1.7h-1.4v7.8h1.3v2.8h-5.9v-2.8h1.3v-7.8h-1.3v1.7h-2.6v-4.7h11.3v4.7H544.5L544.5,125.8z"/>
		<path d="M547.4,134.6v-2.8h1.3v-7.9h-1.3v-2.8h10.3v4.4h-3.3v-1.4h-2.3v2.3h3.1v2.6h-3.1v2.5h2.3v-1.3h3.3v4.4L547.4,134.6
			L547.4,134.6z"/>
		<path d="M566.3,134.6l-3.4-5v2.2h0.8v2.8h-5.5v-2.8h1.3v-7.9h-1.3v-2.8h6.4c3.2,0,4.9,2.1,4.9,4.8c0,2-1.1,3.7-2.8,4l1.6,2h1.3
			v2.8L566.3,134.6L566.3,134.6z M564.4,124.1H563v4h1.1c1.5,0,2.2-0.8,2.2-2C566.3,125.1,565.7,124.1,564.4,124.1z"/>
		<path d="M489.5,150.8V148h1.3v-2.5h-4.2v2.5h1.3v2.8H482V148h1.3v-7.9H482v-2.8h5.9v2.8h-1.3v2.3h4.2v-2.3h-1.3v-2.8h5.9v2.8h-1.3
			v7.9h1.3v2.8H489.5z"/>
		<path d="M496.3,150.8V148h1.3v-7.9h-1.3v-2.8h10.3v4.4h-3.3v-1.4H501v2.3h3.1v2.6H501v2.5h2.3v-1.3h3.3v4.4H496.3z"/>
		<path d="M515.3,150.8l-3.4-4.9v2.2h0.8v2.8h-5.5v-2.8h1.3v-7.9h-1.3v-2.8h6.4c3.2,0,4.9,2.1,4.9,4.8c0,2-1.1,3.7-2.8,4.1l1.6,2
			h1.4v2.8L515.3,150.8L515.3,150.8z M513.3,140.3h-1.5v4h1.1c1.5,0,2.2-0.8,2.2-2C515.2,141.3,514.6,140.3,513.3,140.3z"/>
		<path d="M519.5,150.8V148h1.3v-7.9h-1.3v-2.8h10.3v4.4h-3.3v-1.4h-2.3v2.3h3.2v2.6h-3.2v2.5h2.3v-1.3h3.3v4.4H519.5z"/>
		<path d="M530.6,150.8v-3h3.1v3.1h-3.1V150.8z"/>
	</g>
</g>
<g id="Layer_4" class="st0">
	<g class="st1">
		<path d="M1384.7-283c-4.3,0-7.5-1.1-10.3-3.9v2.8h-11.7v-19.4h13.6c0.1,5.3,2.6,7.8,6.5,7.8c3.6,0,6.2-2.4,6.2-5.8
			c0-7-11.1-5.4-20-12.5c-4.3-3.5-6.7-8-6.7-13.2c0-10.1,8.1-18.7,18.8-18.7c5.3,0,7.8,2.1,9.7,3.7v-2.4h11.3v17.6h-13.3
			c-0.3-4-2.6-6.1-5.8-6.1c-3.3,0-5.7,2-5.7,5.2c0,6.8,9.4,5.8,18.1,10.8c5.6,3.2,8.5,8.3,8.5,14.8
			C1404.1-291.3,1395.8-283,1384.7-283z"/>
		<path d="M1452-301.8h-33.9c2.2,4.8,6.5,7.3,11.2,7.3c3.1,0,5.9-1,7.9-3.1h13.7c-3.7,9-12,15.1-21.6,15.1c-12.9,0-24-10-24-24.2
			c0-13.9,10.7-24.2,23.7-24.2c12.5,0,23.7,9.7,23.7,23.9C1452.7-305,1452.4-303.3,1452-301.8z M1428.8-319.2c-4.6,0-9,2.8-10.7,7.5
			h22.3C1438.1-316.8,1433.6-319.2,1428.8-319.2z"/>
		<path d="M1454.3-284.1v-12.4h4.8V-332h-4.8v-12.4h18.3v48h4.8v12.4L1454.3-284.1L1454.3-284.1L1454.3-284.1z"/>
		<path d="M1479.5-284.1v-12.4h4.8V-332h-4.8v-12.4h18.3v48h4.8v12.4L1479.5-284.1L1479.5-284.1L1479.5-284.1z"/>
		<path d="M1550.9-301.8H1517c2.2,4.8,6.5,7.3,11.2,7.3c3.1,0,5.9-1,7.9-3.1h13.7c-3.7,9-12,15.1-21.6,15.1c-12.9,0-24-10-24-24.2
			c0-13.9,10.7-24.2,23.7-24.2c12.5,0,23.7,9.7,23.7,23.9C1551.5-305,1551.2-303.3,1550.9-301.8z M1527.7-319.2
			c-4.6,0-9,2.8-10.8,7.5h22.3C1537-316.8,1532.4-319.2,1527.7-319.2z"/>
		<path d="M1571.9-305v8.5h4.7v12.4h-23v-12.4h4.8v-20.8h-4.8v-12.4h17.1v6.9c3.7-5.6,7.4-7.1,13-7.5v13.8
			C1576-316.1,1571.9-312.1,1571.9-305z"/>
		<path d="M1607.7-283.1c-6.3,0-9.2-1.9-11.6-3.9v2.9h-9.2v-13.1h12.9c0.5,3.1,2.3,4.5,5.7,4.5c2.9,0,4.6-1.4,4.6-3.6
			c0-3.2-3.2-4-12.2-6.4c-7.4-2-12-6.9-12-13.5c0-8,6.6-14.4,16.6-14.4c6,0,8.2,2.1,9.8,3.6v-2.8h8.9v13.2H1609
			c-0.3-2.6-1.9-4.1-4.6-4.1c-2.5,0-4.3,1.4-4.3,3.3c0,7.3,24.2,2.3,24.2,19.7C1624.2-289.6,1617.9-283.1,1607.7-283.1z"/>
	</g>
	<g class="st1">
		<path class="st4" d="M1488.9-265.1l-3.8-5.5v2.4h0.9v3.1h-6v-3.1h1.4v-8.8h-1.4v-3.1h7.1c3.6,0,5.5,2.3,5.5,5.3
			c0,2.2-1.2,4.1-3.1,4.5l1.8,2.2h1.5v3.1L1488.9-265.1L1488.9-265.1L1488.9-265.1z M1486.8-276.8h-1.6v4.4h1.2
			c1.7,0,2.5-0.9,2.5-2.2C1488.9-275.7,1488.3-276.8,1486.8-276.8z"/>
		<path class="st4" d="M1493.7-265.1v-3.1h1.4v-8.8h-1.4v-3.1h11.4v4.9h-3.7v-1.6h-2.6v2.6h3.5v2.9h-3.5v2.8h2.6v-1.5h3.7v4.9
			L1493.7-265.1L1493.7-265.1z"/>
		<path class="st4" d="M1517.8-265.1v-1.6c-1.1,1.2-2.6,1.9-4.5,1.9c-4.2,0-7.8-3.4-7.8-7.9s3.7-7.7,7.7-7.7c2.2,0,3.4,0.9,4.2,1.4
			v-1.1h3.1v4.9h-4.1c-0.8-1-1.7-1.5-3-1.5c-2.3,0-4.1,1.7-4.1,4c0,2.4,1.9,4.1,4.1,4.1c1.4,0,2.6-0.7,3.3-2h-4.3v-3.1h8.4v8.4h-3
			L1517.8-265.1L1517.8-265.1z"/>
		<path class="st4" d="M1522.1-265.1v-3.1h1.4v-8.8h-1.4v-3.1h6.6v3.1h-1.4v8.8h1.4v3.1H1522.1L1522.1-265.1z"/>
		<path class="st4" d="M1535-264.8c-1.1,0-1.9-0.3-2.6-1v0.7h-2.9v-4.8h3.4c0,1.3,0.7,1.9,1.6,1.9s1.5-0.6,1.5-1.4
			c0-1.7-2.8-1.3-5-3.1c-1.1-0.9-1.7-2-1.7-3.3c0-2.5,2-4.6,4.7-4.6c1.3,0,1.9,0.5,2.4,0.9v-0.6h2.8v4.3h-3.2
			c-0.1-1-0.7-1.5-1.4-1.5c-0.8,0-1.4,0.5-1.4,1.3c0,1.7,2.3,1.4,4.5,2.7c1.4,0.8,2.1,2.1,2.1,3.7
			C1539.8-266.9,1537.7-264.8,1535-264.8z"/>
		<path class="st4" d="M1549.5-274.9v-1.9h-1.5v8.7h1.4v3.1h-6.6v-3.1h1.4v-8.7h-1.5v1.9h-2.9v-5.2h12.6v5.2H1549.5L1549.5-274.9z"
			/>
		<path class="st4" d="M1552.7-265.1v-3.1h1.4v-8.8h-1.4v-3.1h11.4v4.9h-3.7v-1.6h-2.6v2.6h3.5v2.9h-3.5v2.8h2.6v-1.5h3.7v4.9
			L1552.7-265.1L1552.7-265.1z"/>
		<path class="st4" d="M1573.8-265.1l-3.8-5.5v2.4h0.9v3.1h-6.1v-3.1h1.4v-8.8h-1.4v-3.1h7.1c3.6,0,5.5,2.3,5.5,5.3
			c0,2.2-1.2,4.1-3.1,4.5l1.8,2.2h1.5v3.1L1573.8-265.1L1573.8-265.1L1573.8-265.1z M1571.6-276.8h-1.6v4.4h1.2
			c1.7,0,2.5-0.9,2.5-2.2C1573.7-275.7,1573.1-276.8,1571.6-276.8z"/>
		<path class="st4" d="M1488.5-247.1v-3.1h1.4v-2.8h-4.7v2.8h1.4v3.1h-6.6v-3.1h1.4v-8.8h-1.4v-3.1h6.6v3.1h-1.4v2.6h4.7v-2.6h-1.4
			v-3.1h6.6v3.1h-1.4v8.8h1.4v3.1H1488.5L1488.5-247.1z"/>
		<path class="st4" d="M1496-247.1v-3.1h1.4v-8.8h-1.4v-3.1h11.4v4.9h-3.7v-1.6h-2.6v2.6h3.5v2.9h-3.5v2.8h2.6v-1.5h3.7v4.9
			C1507.4-247.1,1496-247.1,1496-247.1z"/>
		<path class="st4" d="M1517-247.1l-3.8-5.5v2.4h0.9v3.1h-6.1v-3.1h1.4v-8.8h-1.4v-3.1h7.1c3.6,0,5.5,2.3,5.5,5.3
			c0,2.2-1.2,4.1-3.1,4.5l1.8,2.2h1.5v3.1L1517-247.1L1517-247.1z M1514.9-258.8h-1.6v4.4h1.2c1.7,0,2.5-0.9,2.5-2.2
			C1517-257.7,1516.3-258.8,1514.9-258.8z"/>
		<path class="st4" d="M1521.7-247.1v-3.1h1.4v-8.8h-1.4v-3.1h11.4v4.9h-3.7v-1.6h-2.6v2.6h3.5v2.9h-3.5v2.8h2.6v-1.5h3.7v4.9
			C1533.1-247.1,1521.7-247.1,1521.7-247.1z"/>
		<path class="st4" d="M1534.1-247.1v-3.4h3.4v3.4H1534.1z"/>
	</g>
</g>
<rect x="175" y="-36.2" class="st5" width="550" height="275"/>
</svg>
