<?xml version="1.0" encoding="utf-8"?>
<!-- Generator: Adobe Illustrator 19.1.0, SVG Export Plug-In . SVG Version: 6.00 Build 0)  -->
<!DOCTYPE svg PUBLIC "-//W3C//DTD SVG 1.1//EN" "http://www.w3.org/Graphics/SVG/1.1/DTD/svg11.dtd">
<svg version="1.1" id="Layer_1" xmlns="http://www.w3.org/2000/svg" xmlns:xlink="http://www.w3.org/1999/xlink" x="0px" y="0px"
	 viewBox="75 50.5 550 400" enable-background="new 75 50.5 550 400" xml:space="preserve">
<metadata><?xpacket begin="﻿" id="W5M0MpCehiHzreSzNTczkc9d"?>
<x:xmpmeta xmlns:x="adobe:ns:meta/" x:xmptk="Adobe XMP Core 5.6-c067 79.157747, 2015/03/30-23:40:42        ">
   <rdf:RDF xmlns:rdf="http://www.w3.org/1999/02/22-rdf-syntax-ns#">
      <rdf:Description rdf:about=""
            xmlns:ExtensisFontSense="http://www.extensis.com/meta/FontSense/">
         <ExtensisFontSense:slug>
            <rdf:Bag>
               <rdf:li>
                  <rdf:Description>
                     <ExtensisFontSense:Family>Arial</ExtensisFontSense:Family>
                     <ExtensisFontSense:Version>5.01.2</ExtensisFontSense:Version>
                     <ExtensisFontSense:OutlineFileSize>0</ExtensisFontSense:OutlineFileSize>
                     <ExtensisFontSense:KerningChecksum>0</ExtensisFontSense:KerningChecksum>
                     <ExtensisFontSense:Foundry>Monotype Typography</ExtensisFontSense:Foundry>
                     <ExtensisFontSense:FontKind>OpenType - TT</ExtensisFontSense:FontKind>
                     <ExtensisFontSense:Checksum>2169611603</ExtensisFontSense:Checksum>
                     <ExtensisFontSense:PostScriptName>ArialMT</ExtensisFontSense:PostScriptName>
                     <ExtensisFontSense:FontSense_1.2_Checksum>2169611603</ExtensisFontSense:FontSense_1.2_Checksum>
                  </rdf:Description>
               </rdf:li>
            </rdf:Bag>
         </ExtensisFontSense:slug>
      </rdf:Description>
   </rdf:RDF>
</x:xmpmeta>
                                                                                                    
                                                                                                    
                                                                                                    
                                                                                                    
                                                                                                    
                                                                                                    
                                                                                                    
                                                                                                    
                                                                                                    
                                                                                                    
                                                                                                    
                                                                                                    
                                                                                                    
                                                                                                    
                                                                                                    
                                                                                                    
                                                                                                    
                                                                                                    
                                                                                                    
                                                                                                    
                           
<?xpacket end="w"?></metadata>
<g id="Layer_1_2_">
	<g id="Layer_1_1_" display="none">
		
			<text transform="matrix(1 0 0 1 1170.9258 -239.8599)" display="inline" fill="#FDDE2C" font-family="'ArialMT'" font-size="84.6367px">Dev</text>
		
			<text transform="matrix(1 0 0 1 1323.526 -239.8599)" display="inline" fill="#FDDE2C" font-family="'ArialMT'" font-size="84.6367px">e</text>
		
			<text transform="matrix(1 0 0 1 1371.3259 -239.8599)" display="inline" fill="#FDDE2C" font-family="'ArialMT'" font-size="84.6367px">l</text>
		
			<text transform="matrix(1 0 0 1 1395.9259 -239.8599)" display="inline" fill="#FDDE2C" font-family="'ArialMT'" font-size="84.6367px">o</text>
		
			<text transform="matrix(1 0 0 1 1443.8259 -239.8599)" display="inline" fill="#FDDE2C" font-family="'ArialMT'" font-size="84.6367px">pm</text>
		
			<text transform="matrix(1 0 0 1 1578.8259 -239.8599)" display="inline" fill="#FDDE2C" font-family="'ArialMT'" font-size="84.6367px">e</text>
		
			<text transform="matrix(1 0 0 1 1625.6261 -239.8599)" display="inline" fill="#FDDE2C" font-family="'ArialMT'" font-size="84.6367px">n</text>
		
			<text transform="matrix(1 0 0 1 1676.9259 -239.8599)" display="inline" fill="#FDDE2C" font-family="'ArialMT'" font-size="84.6367px">t</text>
		<text transform="matrix(1 0 0 1 1313.4222 -220.8591)" display="inline" font-family="'ArialMT'" font-size="21px">Proven</text>
		<text transform="matrix(1 0 0 1 1258.9222 -202.8591)" display="inline" font-family="'ArialMT'" font-size="21px">EXCELLENCE.</text>
	</g>
	<g id="Layer_3" display="none">
		<g display="inline">
			<path fill="#FDDE2C" d="M810.6-239.9h-30v-12.4h5.8v-35.5h-5.8v-12.4h29c11.5,0,17.6,6.2,17.6,15.3c0,5.8-2.6,10.2-7.7,12.7
				c6.5,2.8,10,8.1,10,15C829.4-247.5,822.8-239.9,810.6-239.9z M805.9-287.6h-4.6v10.4h4.7c3.9,0,7.6-0.4,7.6-5.2
				C813.5-286.9,810-287.6,805.9-287.6z M806.6-265.2h-5.3v12.2h4.7c4.7,0,8.5-0.9,8.5-6.1C814.4-263.2,811.6-265.2,806.6-265.2z"/>
			<path fill="#FDDE2C" d="M863.1-239.9v-4.7c-3,3.8-8.1,5.6-12.7,5.6c-8.5,0-16-6.3-16-17.4v-16.8h-4.8v-12.4h18.3v25.4
				c0,6,2.5,8.8,6.9,8.8c5.1,0,7.3-3.2,7.3-9.3v-12.5h-4.9v-12.4h18.7v33.2h4.8v12.4L863.1-239.9L863.1-239.9z"/>
			<path fill="#FDDE2C" d="M923.9-273.1l-15.3,36.8h4.7v12.4h-22.9v-12.4h4.1l1.9-5l-12.5-31.8h-4.6v-12.4h22v12.4h-2.6l5,15.3
				l5.5-15.3h-2.6v-12.4h21.5v12.4C928.1-273.1,923.9-273.1,923.9-273.1z"/>
			<path fill="#FDDE2C" d="M973.1-257.6h-33.9c2.2,4.8,6.5,7.3,11.2,7.3c3.1,0,5.9-1,7.9-3.1H972c-3.7,9-12,15.1-21.6,15.1
				c-12.9,0-24-10-24-24.2c0-13.9,10.7-24.2,23.7-24.2c12.5,0,23.7,9.7,23.7,23.9C973.8-260.8,973.4-259.1,973.1-257.6z M949.9-275
				c-4.6,0-9,2.8-10.8,7.5h22.3C959.2-272.6,954.6-275,949.9-275z"/>
			<path fill="#FDDE2C" d="M993.5-260.8v8.5h4.7v12.4h-23v-12.4h4.8v-20.8h-4.8v-12.4h17.1v6.9c3.7-5.6,7.4-7.1,13-7.5v13.8
				C997.6-271.9,993.5-267.9,993.5-260.8z"/>
			<path fill="#FDDE2C" d="M1030.1-238.9c-6.3,0-9.2-1.9-11.6-3.9v2.9h-9.2V-253h12.9c0.5,3.1,2.3,4.5,5.7,4.5
				c2.9,0,4.6-1.4,4.6-3.6c0-3.2-3.2-4-12.2-6.4c-7.4-2-12-6.9-12-13.5c0-8,6.6-14.4,16.6-14.4c6,0,8.2,2.1,9.8,3.6v-2.8h8.9v13.2
				h-12.3c-0.3-2.6-1.9-4.1-4.6-4.1c-2.5,0-4.3,1.4-4.3,3.3c0,7.3,24.2,2.3,24.2,19.7C1046.6-245.4,1040.4-238.9,1030.1-238.9z"/>
		</g>
		<g display="inline">
			<path fill="#F2F2F2" d="M957.9-220.9l-3.8-5.5v2.4h0.9v3.1h-6.1v-3.1h1.4v-8.8h-1.4v-3.1h7.1c3.6,0,5.5,2.3,5.5,5.3
				c0,2.2-1.2,4.1-3.1,4.5l1.8,2.2h1.5v3.1L957.9-220.9L957.9-220.9L957.9-220.9z M955.7-232.6h-1.6v4.4h1.2c1.7,0,2.5-0.9,2.5-2.2
				C957.8-231.5,957.2-232.6,955.7-232.6z"/>
			<path fill="#F2F2F2" d="M962.6-220.9v-3.1h1.4v-8.8h-1.4v-3.1H974v4.9h-3.7v-1.6h-2.6v2.6h3.5v2.9h-3.5v2.8h2.6v-1.5h3.7v4.9
				L962.6-220.9L962.6-220.9z"/>
			<path fill="#F2F2F2" d="M986.8-220.9v-1.6c-1.1,1.2-2.6,1.9-4.5,1.9c-4.2,0-7.8-3.4-7.8-7.9s3.7-7.7,7.7-7.7
				c2.2,0,3.4,0.9,4.2,1.4v-1.1h3.1v4.9h-4.1c-0.8-1-1.7-1.5-3-1.5c-2.3,0-4.1,1.7-4.1,4c0,2.4,1.9,4.1,4.1,4.1c1.4,0,2.6-0.7,3.3-2
				h-4.3v-3.1h8.4v8.4h-3L986.8-220.9L986.8-220.9z"/>
			<path fill="#F2F2F2" d="M991.1-220.9v-3.1h1.4v-8.8h-1.4v-3.1h6.6v3.1h-1.4v8.8h1.4v3.1H991.1L991.1-220.9z"/>
			<path fill="#F2F2F2" d="M1004-220.6c-1.1,0-1.9-0.3-2.6-1v0.7h-2.9v-4.8h3.4c0,1.3,0.7,1.9,1.6,1.9s1.5-0.6,1.5-1.4
				c0-1.7-2.8-1.3-5-3.1c-1.1-0.9-1.7-2-1.7-3.3c0-2.5,2-4.6,4.7-4.6c1.3,0,1.9,0.5,2.4,0.9v-0.6h2.8v4.3h-3.3
				c-0.1-1-0.7-1.5-1.4-1.5c-0.8,0-1.4,0.5-1.4,1.3c0,1.7,2.3,1.4,4.5,2.7c1.4,0.8,2.1,2.1,2.1,3.7
				C1008.8-222.7,1006.7-220.6,1004-220.6z"/>
			<path fill="#F2F2F2" d="M1018.5-230.7v-1.9h-1.6v8.7h1.4v3.1h-6.6v-3.1h1.4v-8.7h-1.5v1.9h-2.9v-5.2h12.6v5.2H1018.5
				L1018.5-230.7z"/>
			<path fill="#F2F2F2" d="M1021.7-220.9v-3.1h1.4v-8.8h-1.4v-3.1h11.4v4.9h-3.7v-1.6h-2.6v2.6h3.5v2.9h-3.5v2.8h2.6v-1.5h3.7v4.9
				L1021.7-220.9L1021.7-220.9z"/>
			<path fill="#F2F2F2" d="M1042.7-220.9l-3.8-5.5v2.4h0.9v3.1h-6.1v-3.1h1.4v-8.8h-1.4v-3.1h7.1c3.6,0,5.5,2.3,5.5,5.3
				c0,2.2-1.2,4.1-3.1,4.5l1.8,2.2h1.5v3.1L1042.7-220.9L1042.7-220.9L1042.7-220.9z M1040.6-232.6h-1.6v4.4h1.2
				c1.7,0,2.5-0.9,2.5-2.2C1042.7-231.5,1042-232.6,1040.6-232.6z"/>
			<path fill="#F2F2F2" d="M957.4-202.9v-3.1h1.4v-2.8h-4.7v2.8h1.4v3.1h-6.6v-3.1h1.4v-8.8h-1.4v-3.1h6.6v3.1h-1.4v2.6h4.7v-2.6
				h-1.4v-3.1h6.6v3.1h-1.4v8.8h1.4v3.1L957.4-202.9L957.4-202.9z"/>
			<path fill="#F2F2F2" d="M964.9-202.9v-3.1h1.4v-8.8h-1.4v-3.1h11.4v4.9h-3.7v-1.6H970v2.6h3.5v2.9H970v2.8h2.6v-1.5h3.7v4.9
				C976.3-202.9,964.9-202.9,964.9-202.9z"/>
			<path fill="#F2F2F2" d="M986-202.9l-3.8-5.5v2.4h0.9v3.1H977v-3.1h1.4v-8.8H977v-3.1h7.1c3.6,0,5.5,2.3,5.5,5.3
				c0,2.2-1.2,4.1-3.1,4.5l1.8,2.2h1.5v3.1L986-202.9L986-202.9L986-202.9z M983.8-214.6h-1.6v4.4h1.2c1.7,0,2.5-0.9,2.5-2.2
				C985.9-213.5,985.3-214.6,983.8-214.6z"/>
			<path fill="#F2F2F2" d="M990.7-202.9v-3.1h1.4v-8.8h-1.4v-3.1h11.4v4.9h-3.7v-1.6h-2.6v2.6h3.5v2.9h-3.5v2.8h2.6v-1.5h3.7v4.9
				C1002.1-202.9,990.7-202.9,990.7-202.9z"/>
			<path fill="#F2F2F2" d="M1003.1-202.9v-3.4h3.4v3.4H1003.1z"/>
		</g>
	</g>
	<g id="Layer_4" display="none">
		<g display="inline">
			<path d="M805-238.8c-4.3,0-7.5-1.1-10.3-3.9v2.8H783v-19.4h13.6c0.1,5.3,2.6,7.8,6.5,7.8c3.6,0,6.2-2.4,6.2-5.8
				c0-7-11.1-5.4-20-12.5c-4.3-3.5-6.7-8-6.7-13.2c0-10.1,8.1-18.7,18.8-18.7c5.3,0,7.8,2.1,9.7,3.7v-2.4h11.3v17.6h-13.3
				c-0.3-4-2.6-6.1-5.8-6.1c-3.3,0-5.7,2-5.7,5.2c0,6.8,9.4,5.8,18.1,10.8c5.6,3.2,8.5,8.3,8.5,14.8
				C824.4-247.1,816.1-238.8,805-238.8z"/>
			<path d="M872.3-257.6h-33.9c2.2,4.8,6.5,7.3,11.2,7.3c3.1,0,5.9-1,7.9-3.1h13.7c-3.7,9-12,15.1-21.6,15.1c-12.9,0-24-10-24-24.2
				c0-13.9,10.7-24.2,23.7-24.2c12.5,0,23.7,9.7,23.7,23.9C873-260.8,872.7-259.1,872.3-257.6z M849.1-275c-4.6,0-9,2.8-10.7,7.5
				h22.3C858.4-272.6,853.9-275,849.1-275z"/>
			<path d="M874.6-239.9v-12.4h4.8v-35.5h-4.8v-12.4h18.3v48h4.8v12.4L874.6-239.9L874.6-239.9L874.6-239.9z"/>
			<path d="M899.8-239.9v-12.4h4.8v-35.5h-4.8v-12.4h18.3v48h4.8v12.4L899.8-239.9L899.8-239.9L899.8-239.9z"/>
			<path d="M971.2-257.6h-33.9c2.2,4.8,6.5,7.3,11.2,7.3c3.1,0,5.9-1,7.9-3.1h13.7c-3.7,9-12,15.1-21.6,15.1c-12.9,0-24-10-24-24.2
				c0-13.9,10.7-24.2,23.7-24.2c12.5,0,23.7,9.7,23.7,23.9C971.8-260.8,971.5-259.1,971.2-257.6z M948-275c-4.6,0-9,2.8-10.8,7.5
				h22.3C957.3-272.6,952.7-275,948-275z"/>
			<path d="M992.2-260.8v8.5h4.7v12.4h-23v-12.4h4.8v-20.8h-4.8v-12.4H991v6.9c3.7-5.6,7.4-7.1,13-7.5v13.8
				C996.3-271.9,992.2-267.9,992.2-260.8z"/>
			<path d="M1028-238.9c-6.3,0-9.2-1.9-11.6-3.9v2.9h-9.2V-253h12.9c0.5,3.1,2.3,4.5,5.7,4.5c2.9,0,4.6-1.4,4.6-3.6
				c0-3.2-3.2-4-12.2-6.4c-7.4-2-12-6.9-12-13.5c0-8,6.6-14.4,16.6-14.4c6,0,8.2,2.1,9.8,3.6v-2.8h8.9v13.2h-12.2
				c-0.3-2.6-1.9-4.1-4.6-4.1c-2.5,0-4.3,1.4-4.3,3.3c0,7.3,24.2,2.3,24.2,19.7C1044.5-245.4,1038.2-238.9,1028-238.9z"/>
		</g>
		<g display="inline">
			<path fill="#F2F2F2" d="M909.2-220.9l-3.8-5.5v2.4h0.9v3.1h-6v-3.1h1.4v-8.8h-1.4v-3.1h7.1c3.6,0,5.5,2.3,5.5,5.3
				c0,2.2-1.2,4.1-3.1,4.5l1.8,2.2h1.5v3.1L909.2-220.9L909.2-220.9L909.2-220.9z M907.1-232.6h-1.6v4.4h1.2c1.7,0,2.5-0.9,2.5-2.2
				C909.2-231.5,908.6-232.6,907.1-232.6z"/>
			<path fill="#F2F2F2" d="M914-220.9v-3.1h1.4v-8.8H914v-3.1h11.4v4.9h-3.7v-1.6h-2.6v2.6h3.5v2.9h-3.5v2.8h2.6v-1.5h3.7v4.9
				L914-220.9L914-220.9z"/>
			<path fill="#F2F2F2" d="M938.1-220.9v-1.6c-1.1,1.2-2.6,1.9-4.5,1.9c-4.2,0-7.8-3.4-7.8-7.9s3.7-7.7,7.7-7.7
				c2.2,0,3.4,0.9,4.2,1.4v-1.1h3.1v4.9h-4.1c-0.8-1-1.7-1.5-3-1.5c-2.3,0-4.1,1.7-4.1,4c0,2.4,1.9,4.1,4.1,4.1c1.4,0,2.6-0.7,3.3-2
				h-4.3v-3.1h8.4v8.4h-3L938.1-220.9L938.1-220.9z"/>
			<path fill="#F2F2F2" d="M942.4-220.9v-3.1h1.4v-8.8h-1.4v-3.1h6.6v3.1h-1.4v8.8h1.4v3.1H942.4L942.4-220.9z"/>
			<path fill="#F2F2F2" d="M955.3-220.6c-1.1,0-1.9-0.3-2.6-1v0.7h-2.9v-4.8h3.4c0,1.3,0.7,1.9,1.6,1.9s1.5-0.6,1.5-1.4
				c0-1.7-2.8-1.3-5-3.1c-1.1-0.9-1.7-2-1.7-3.3c0-2.5,2-4.6,4.7-4.6c1.3,0,1.9,0.5,2.4,0.9v-0.6h2.8v4.3h-3.2
				c-0.1-1-0.7-1.5-1.4-1.5c-0.8,0-1.4,0.5-1.4,1.3c0,1.7,2.3,1.4,4.5,2.7c1.4,0.8,2.1,2.1,2.1,3.7
				C960.1-222.7,958-220.6,955.3-220.6z"/>
			<path fill="#F2F2F2" d="M969.8-230.7v-1.9h-1.5v8.7h1.4v3.1h-6.6v-3.1h1.4v-8.7H963v1.9h-2.9v-5.2h12.6v5.2H969.8L969.8-230.7z"
				/>
			<path fill="#F2F2F2" d="M973-220.9v-3.1h1.4v-8.8H973v-3.1h11.4v4.9h-3.7v-1.6h-2.6v2.6h3.5v2.9h-3.5v2.8h2.6v-1.5h3.7v4.9
				L973-220.9L973-220.9z"/>
			<path fill="#F2F2F2" d="M994.1-220.9l-3.8-5.5v2.4h0.9v3.1h-6.1v-3.1h1.4v-8.8h-1.4v-3.1h7.1c3.6,0,5.5,2.3,5.5,5.3
				c0,2.2-1.2,4.1-3.1,4.5l1.8,2.2h1.5v3.1L994.1-220.9L994.1-220.9L994.1-220.9z M991.9-232.6h-1.6v4.4h1.2c1.7,0,2.5-0.9,2.5-2.2
				C994-231.5,993.4-232.6,991.9-232.6z"/>
			<path fill="#F2F2F2" d="M908.8-202.9v-3.1h1.4v-2.8h-4.7v2.8h1.4v3.1h-6.6v-3.1h1.4v-8.8h-1.4v-3.1h6.6v3.1h-1.4v2.6h4.7v-2.6
				h-1.4v-3.1h6.6v3.1H914v8.8h1.4v3.1L908.8-202.9L908.8-202.9z"/>
			<path fill="#F2F2F2" d="M916.3-202.9v-3.1h1.4v-8.8h-1.4v-3.1h11.4v4.9H924v-1.6h-2.6v2.6h3.5v2.9h-3.5v2.8h2.6v-1.5h3.7v4.9
				C927.7-202.9,916.3-202.9,916.3-202.9z"/>
			<path fill="#F2F2F2" d="M937.3-202.9l-3.8-5.5v2.4h0.9v3.1h-6.1v-3.1h1.4v-8.8h-1.4v-3.1h7.1c3.6,0,5.5,2.3,5.5,5.3
				c0,2.2-1.2,4.1-3.1,4.5l1.8,2.2h1.5v3.1L937.3-202.9L937.3-202.9z M935.2-214.6h-1.6v4.4h1.2c1.7,0,2.5-0.9,2.5-2.2
				C937.3-213.5,936.6-214.6,935.2-214.6z"/>
			<path fill="#F2F2F2" d="M942-202.9v-3.1h1.4v-8.8H942v-3.1h11.4v4.9h-3.7v-1.6h-2.6v2.6h3.5v2.9h-3.5v2.8h2.6v-1.5h3.7v4.9
				C953.4-202.9,942-202.9,942-202.9z"/>
			<path fill="#F2F2F2" d="M954.4-202.9v-3.4h3.4v3.4H954.4z"/>
		</g>
	</g>
	<g id="Layer_2">
		<g>
			<path fill="#FFFFFF" d="M222.1,270.9v-9.7h5.2l-1.6-4.9h-15.2l-1.4,4.9h5.2v9.7h-24.1v-11.2h5.2l13.1-32h-5.2v-11h21l17.5,43.2
				h5.2v11.2L222.1,270.9L222.1,270.9z M218,232.2l-4.3,13.7h8.6L218,232.2z"/>
			<path fill="#FFFFFF" d="M277.3,271.8c-4.9,0-8.5-1.8-11.6-5.3v4.5h-16.5v-11.2h4.4v-32h-4.4v-11h16.5v17.4
				c2.6-3.2,6.3-4.9,11.2-4.9c11.5,0,20.2,10.2,20.2,21.5C297.1,262.8,287.3,271.8,277.3,271.8z M275.2,240.5
				c-5.5,0-9.8,4.4-9.8,9.8c0,5.4,4.3,10.1,9.9,10.1c5.4,0,9.6-4.5,9.6-9.9C284.9,245,280.7,240.5,275.2,240.5z"/>
			<path fill="#FFFFFF" d="M320,272.3c-12.1,0-21.9-9.8-21.9-21.9c0-12.1,9.7-21.8,21.9-21.8s21.9,9.6,21.9,21.7
				C341.9,262.4,332.1,272.3,320,272.3z M320,240.5c-5.3,0-9.6,4.5-9.6,9.9c0,5.4,4.2,10,9.6,10s9.6-4.6,9.6-10
				C329.6,244.9,325.4,240.5,320,240.5z"/>
			<path fill="#FFFFFF" d="M371.4,270.9v-4.2c-2.7,3.4-7.3,5-11.4,5c-7.6,0-14.4-5.7-14.4-15.7v-15h-4.3v-11.2h16.5v22.9
				c0,5.4,2.2,7.9,6.2,7.9c4.6,0,6.6-2.9,6.6-8.4V241h-4.4v-11.2H383v29.9h4.3v11.2H371.4L371.4,270.9z"/>
			<path fill="#FFFFFF" d="M391.1,270.9v-30h-5.7v-11.1h5.7v-13.3h12.1v13.3h5.7V241h-5.7v18.7h5.9v11.2H391.1L391.1,270.9z"/>
			<path fill="#FFFFFF" d="M470.8,227.7v25c0,11.6-7.1,19.3-20.4,19.3c-13.2,0-20.2-7.7-20.2-19.3v-25h-5.3v-11.1h22.6v11.2h-4v23.6
				c0,5.6,2.8,8.1,7,8.1s6.9-2.5,6.9-8.1v-23.7h-4v-11.1H476v11.2L470.8,227.7L470.8,227.7z"/>
			<path fill="#FFFFFF" d="M494,271.8c-5.7,0-8.3-1.7-10.4-3.5v2.6h-8.3v-11.8h11.6c0.5,2.8,2.1,4,5.1,4c2.6,0,4.1-1.3,4.1-3.2
				c0-2.9-2.9-3.6-11-5.8c-6.7-1.8-10.8-6.2-10.8-12.1c0-7.2,5.9-13,14.9-13c5.4,0,7.4,1.9,8.8,3.2v-2.5h8v11.9h-11
				c-0.3-2.3-1.7-3.7-4.1-3.7c-2.2,0-3.9,1.3-3.9,3c0,6.6,21.8,2.1,21.8,17.7C508.8,266,503.2,271.8,494,271.8z"/>
		</g>
		<g>
			<path d="M249,288v-2.8h1.3v-7.9H249v-2.8h10.3v4.4H256v-1.4h-2.3v2.3h3.1v2.6h-3.1v2.5h2.3v-1.3h3.3v4.4H249L249,288z"/>
			<path d="M266.7,288v-2.6h1.2l-1.8-2l-1.8,2h1.1v2.6h-6v-2.8h1.3l3.5-4.1l-3.4-4h-1.2v-2.8h5.9v2.6h-0.9l1.5,1.8l1.6-1.8h-0.9
				v-2.6h6v2.8h-1.3l-3.5,4l3.5,4.1h1.3v2.8H266.7z"/>
			<path d="M279.1,283.8h-1.6v1.5h1.3v2.8h-5.9v-2.8h1.3v-8h-1.3v-2.8h5.5c1.1,0,2,0.2,2.7,0.4c1.6,0.6,2.7,2.2,2.7,4.1
				C283.8,281.7,282,283.8,279.1,283.8z M278.5,277.5h-1v3.3h1.2c1.2,0,1.7-0.7,1.7-1.6C280.4,278.3,279.8,277.5,278.5,277.5z"/>
			<path d="M284.2,288v-2.8h1.3v-7.9h-1.3v-2.8h10.3v4.4h-3.3v-1.4h-2.3v2.3h3.2v2.6h-3.2v2.5h2.3v-1.3h3.3v4.4H284.2L284.2,288z"/>
			<path d="M303.2,288l-3.4-5v2.2h0.8v2.8h-5.5v-2.8h1.3v-7.9h-1.3v-2.8h6.4c3.2,0,5,2.1,5,4.8c0,2-1.1,3.7-2.8,4.1l1.6,2h1.4v2.8
				L303.2,288L303.2,288z M301.3,277.5h-1.4v4h1.1c1.5,0,2.2-0.8,2.2-2C303.2,278.5,302.6,277.5,301.3,277.5z"/>
			<path d="M307.5,288v-2.8h1.3v-7.9h-1.3v-2.8h5.9v2.8h-1.3v7.9h1.3v2.8H307.5z"/>
			<path d="M314.2,288v-2.8h1.3v-7.9h-1.3v-2.8h10.3v4.4h-3.3v-1.4h-2.3v2.3h3.2v2.6h-3.2v2.5h2.3v-1.3h3.3v4.4H314.2L314.2,288z"/>
			<path d="M338,277.3V288h-3.1l-5.2-7.4v4.6h1.3v2.8h-5.9v-2.8h1.3v-7.9h-1.3v-2.8h4.2l5.3,7.6v-4.8h-1.3v-2.8h5.9v2.8
				C339.2,277.3,338,277.3,338,277.3z"/>
			<path d="M346.6,288.3c-3.7,0-6.9-3.1-6.9-7.1s3.2-6.9,6.8-6.9c1.5,0,2.8,0.5,3.8,1.4v-1.2h2.8v5h-3.2c-0.7-1.3-2-1.9-3.2-1.9
				c-2,0-3.5,1.4-3.5,3.6c0,2.1,1.6,3.8,3.6,3.8c1.3,0,2.5-0.7,3.1-2h3.6C352.5,286.4,349.4,288.3,346.6,288.3z"/>
			<path d="M353.9,288v-2.8h1.3v-7.9h-1.3v-2.8h10.3v4.4h-3.3v-1.4h-2.3v2.3h3.1v2.6h-3.1v2.5h2.3v-1.3h3.3v4.4H353.9L353.9,288z"/>
			<path d="M379.5,288.6l-1.8-1.8c-1.2,1-2.3,1.5-4,1.5c-2.3,0-4.5-1.5-4.5-3.8c0-1.9,1.2-2.8,2.5-3.7l-0.1-0.2
				c-0.5-0.6-1.1-1.4-1.1-2.8c0-2.2,1.7-3.5,3.7-3.5c1.9,0,3.5,1.3,3.5,3.2c0,1.3-0.6,2.3-1.8,3.3l1.6,1.6l1-2.2h3.1v2.7h-1.2
				l-0.9,1.6l2,2.1L379.5,288.6z M373.6,282.6c-0.7,0.4-1.1,0.9-1.1,1.5c0,0.8,0.5,1.3,1.4,1.3c0.7,0,1.3-0.4,1.7-0.9L373.6,282.6z
				 M374.2,276.8c-0.5,0-0.7,0.4-0.7,0.9s0.3,1.1,0.5,1.3l0.2,0.2c0.4-0.4,0.8-1,0.8-1.4C375,277.2,374.6,276.8,374.2,276.8z"/>
			<path d="M249,304.2v-2.8h1.3v-7.9H249v-2.8h5.9v2.8h-1.3v7.9h1.3v2.8H249z"/>
			<path d="M268.7,293.5v10.7h-3.1l-5.2-7.4v4.6h1.3v2.8h-5.9v-2.8h1.3v-7.9h-1.3v-2.8h4.2l5.3,7.6v-4.8H264v-2.8h5.9v2.8H268.7
				L268.7,293.5z"/>
			<path d="M278.6,295.4v-1.7h-1.4v7.8h1.3v2.8h-5.9v-2.8h1.3v-7.8h-1.4v1.7h-2.6v-4.7h11.3v4.7H278.6z"/>
			<path d="M281.5,304.2v-2.8h1.3v-7.9h-1.3v-2.8h10.3v4.4h-3.3v-1.4h-2.3v2.3h3.1v2.6h-3.1v2.5h2.3v-1.3h3.3v4.4H281.5z"/>
			<path d="M303.2,304.2v-1.4c-1,1.1-2.3,1.7-4,1.7c-3.8,0-7-3.1-7-7.1s3.3-6.9,6.9-6.9c2,0,3.1,0.8,3.8,1.3v-1h2.8v4.4H302
				c-0.7-0.9-1.5-1.4-2.7-1.4c-2.1,0-3.7,1.5-3.7,3.6c0,2.2,1.7,3.7,3.7,3.7c1.3,0,2.3-0.6,3-1.8h-3.9v-2.8h7.6v7.6L303.2,304.2
				L303.2,304.2L303.2,304.2z"/>
			<path d="M315.1,304.2l-3.4-4.9v2.2h0.8v2.8H307v-2.8h1.3v-7.9H307v-2.8h6.4c3.2,0,5,2.1,5,4.8c0,2-1.1,3.7-2.8,4.1l1.6,2h1.4v2.8
				L315.1,304.2L315.1,304.2z M313.2,293.7h-1.4v4h1.1c1.5,0,2.2-0.8,2.2-2C315,294.7,314.5,293.7,313.2,293.7z"/>
			<path d="M319.3,304.2v-2.8h1.3v-7.9h-1.3v-2.8h5.9v2.8h-1.3v7.9h1.3v2.8H319.3z"/>
			<path d="M334.3,295.4v-1.7h-1.4v7.8h1.3v2.8h-5.9v-2.8h1.3v-7.8h-1.4v1.7h-2.6v-4.7h11.3v4.7H334.3z"/>
			<path d="M347.9,293.5l-3.3,5.9v2.1h1.3v2.8H340v-2.8h1.3v-2.1l-3.2-5.9h-1.2v-2.8h5.6v2.8h-1l1.5,3.1l1.6-3.1h-1v-2.8h5.5v2.8
				H347.9z"/>
			<path d="M348.6,304.2v-3h3.1v3.1h-3.1V304.2z"/>
		</g>
	</g>
</g>
<g id="Layer_2_1_">
</g>
<rect x="73.6" y="49.2" fill="none" width="551.8" height="400.5"/>
</svg>
