<?xml version="1.0" encoding="utf-8"?>
<!-- Generator: Adobe Illustrator 19.1.0, SVG Export Plug-In . SVG Version: 6.00 Build 0)  -->
<!DOCTYPE svg PUBLIC "-//W3C//DTD SVG 1.1//EN" "http://www.w3.org/Graphics/SVG/1.1/DTD/svg11.dtd">
<svg version="1.1" id="Layer_1" xmlns="http://www.w3.org/2000/svg" xmlns:xlink="http://www.w3.org/1999/xlink" x="0px" y="0px"
	 viewBox="104 100.5 608 300" enable-background="new 104 100.5 608 300" xml:space="preserve">
<metadata><?xpacket begin="﻿" id="W5M0MpCehiHzreSzNTczkc9d"?>
<x:xmpmeta xmlns:x="adobe:ns:meta/" x:xmptk="Adobe XMP Core 5.6-c067 79.157747, 2015/03/30-23:40:42        ">
   <rdf:RDF xmlns:rdf="http://www.w3.org/1999/02/22-rdf-syntax-ns#">
      <rdf:Description rdf:about=""/>
   </rdf:RDF>
</x:xmpmeta>
                                                                                                    
                                                                                                    
                                                                                                    
                                                                                                    
                                                                                                    
                                                                                                    
                                                                                                    
                                                                                                    
                                                                                                    
                                                                                                    
                                                                                                    
                                                                                                    
                                                                                                    
                                                                                                    
                                                                                                    
                                                                                                    
                                                                                                    
                                                                                                    
                                                                                                    
                                                                                                    
                           
<?xpacket end="w"?></metadata>
<g>
	<path d="M265.1,271.1c-15.7,0-28.7-12.7-28.7-28.6c0-15.8,12.9-28.6,28.9-28.6c15.9,0,28.6,12.6,28.6,28.3
		C293.9,258.2,281,271.1,265.1,271.1z M265.1,227.5c-8.4,0-15,6.6-15,14.9c0,8.5,6.9,15.1,15,15.1c8.3,0,15.1-6.9,15.1-15.2
		C280.2,234.1,273.5,227.5,265.1,227.5z"/>
	<path d="M313.2,239.6v18.9h4.3v11.3h-20.9v-11.3h4.4v-18.9h-4.4v-11.2h4.4c0.5-11.9,6.5-15.4,17.4-15.4v10.7
		c-0.3-0.1-0.6-0.1-1.1-0.1c-3.1,0-4,1.9-4.1,4.8h5.2v11.2H313.2z"/>
	<path d="M338.8,239.6v18.9h4.3v11.3h-20.9v-11.3h4.4v-18.9h-4.4v-11.2h4.4c0.5-11.9,6.5-15.4,17.4-15.4v10.7
		c-0.3-0.1-0.6-0.1-1.1-0.1c-3.1,0-4,1.9-4.1,4.8h5.2v11.2H338.8z"/>
	<path d="M388.2,253.7h-30.8c2,4.4,5.9,6.6,10.2,6.6c2.8,0,5.4-0.9,7.2-2.8h12.5c-3.4,8.2-10.9,13.7-19.6,13.7
		c-11.7,0-21.9-9.1-21.9-22c0-12.6,9.8-22,21.6-22c11.4,0,21.6,8.9,21.6,21.7C388.8,250.9,388.5,252.4,388.2,253.7z M367.1,238
		c-4.2,0-8.2,2.5-9.8,6.9h20.2C375.6,240.1,371.4,238,367.1,238z"/>
	<path d="M407.9,250.9v7.7h4.3v11.3h-20.9v-11.3h4.4v-18.9h-4.4v-11.2h15.6v6.2c3.4-5.1,6.7-6.5,11.8-6.9v12.6
		C411.7,240.7,407.9,244.4,407.9,250.9z"/>
	<path d="M422.1,269.9v-11.3h4.4v-18.9h-4.4v-11.2h16.6v30.2h4.3v11.3H422.1z M426.5,226.2v-11.3h12.2v11.3H426.5z"/>
	<path d="M476.6,269.9v-23.3c0-4.9-2.4-7-6.5-7c-6.9,0-7.4,5.2-7.4,9.6v9.4h4.3v11.3h-20.9v-11.3h4.4v-18.9h-4.4v-11.2h16.6v5.4
		c2.4-4.1,6.2-6.2,11.1-6.2c6.7,0,12.2,3.7,14.2,9.2c0.7,1.8,0.8,4.2,0.8,6.4v15.5h4.4v11.3H476.6z"/>
	<path d="M538.4,239.6v26c0,7.9-1.5,13.2-8,17.5c-4.1,2.7-8.4,3.8-13.3,3.8c-10.5,0-18.3-4.8-20.4-13.8h14.2
		c1.1,2.4,3.5,3.4,6.3,3.4c5.2,0,9.2-3.5,9.2-9.3v-1.5c-1.7,2.1-4.3,5.1-10.9,5.1c-11.1,0-20.8-9.3-20.8-21.6
		c0-11.9,9.6-21.6,21.2-21.6c4.9,0,8.8,1.7,11.4,5v-4.2h15.5v11.2H538.4z M517.2,239.1c-5.6,0-10.1,4.5-10.1,10s4.5,10.1,10.2,10.1
		c5.6,0,10.2-4.5,10.2-10.2C527.5,243.4,522.7,239.1,517.2,239.1z"/>
	<path d="M564.7,270.8c-5.7,0-8.4-1.8-10.5-3.5v2.6h-8.4V258h11.7c0.5,2.8,2.1,4.1,5.2,4.1c2.6,0,4.2-1.3,4.2-3.3
		c0-2.9-2.9-3.6-11.1-5.9c-6.8-1.8-10.9-6.2-10.9-12.3c0-7.3,6-13.1,15.1-13.1c5.5,0,7.5,1.9,8.9,3.3v-2.5h8.1v12h-11.1
		c-0.2-2.4-1.7-3.7-4.2-3.7c-2.2,0-3.9,1.2-3.9,3c0,6.6,22,2.1,22,17.9C579.8,264.9,574.1,270.8,564.7,270.8z"/>
</g>
<g>
	<path fill="#FFFFFF" d="M411.3,285.9c-3.7,0-7-3-7-7.1c0-4,3.2-7,6.9-7c1.5,0,2.8,0.5,3.8,1.5V272h2.8v5h-3.2
		c-0.7-1.3-2-1.9-3.2-1.9c-2,0-3.6,1.5-3.6,3.6c0,2.1,1.6,3.8,3.6,3.8c1.3,0,2.5-0.7,3.2-2h3.6C417.1,284,414.1,285.9,411.3,285.9z"
		/>
	<path fill="#FFFFFF" d="M429.8,274.8v6.2c0,2.9-1.8,4.8-5.1,4.8c-3.3,0-5.1-1.9-5.1-4.8v-6.2h-1.3V272h5.6v2.8h-1v5.9
		c0,1.4,0.7,2,1.7,2c1.1,0,1.7-0.6,1.7-2v-5.9h-1V272h5.6v2.8H429.8z"/>
	<path fill="#FFFFFF" d="M439.7,285.6l-3.4-5v2.2h0.8v2.8h-5.5v-2.8h1.3v-8h-1.3V272h6.4c3.3,0,5,2.1,5,4.8c0,2-1.1,3.7-2.8,4l1.7,2
		h1.4v2.8H439.7z M437.7,275h-1.4v4h1c1.5,0,2.3-0.8,2.3-2C439.6,275.9,439,275,437.7,275z"/>
	<path fill="#FFFFFF" d="M452,285.6l-3.4-5v2.2h0.8v2.8h-5.5v-2.8h1.3v-8h-1.3V272h6.4c3.3,0,5,2.1,5,4.8c0,2-1.1,3.7-2.8,4l1.7,2
		h1.4v2.8H452z M450,275h-1.4v4h1c1.5,0,2.3-0.8,2.3-2C451.9,275.9,451.3,275,450,275z"/>
	<path fill="#FFFFFF" d="M456.2,285.6v-2.8h1.3v-8h-1.3V272h10.3v4.5h-3.3V275h-2.3v2.4h3.2v2.6h-3.2v2.6h2.3v-1.5h3.3v4.5H456.2z"
		/>
	<path fill="#FFFFFF" d="M480.1,274.8v10.8h-3l-5.2-7.4v4.6h1.3v2.8h-6v-2.8h1.3v-8h-1.3V272h4.2l5.4,7.6v-4.8h-1.3V272h6v2.8H480.1
		z"/>
	<path fill="#FFFFFF" d="M490.9,276.7v-1.7h-1.4v7.8h1.3v2.8h-6v-2.8h1.3v-7.8h-1.3v1.7h-2.6V272h11.4v4.7H490.9z"/>
	<path fill="#FFFFFF" d="M406.6,302.1v-2.8h1.3v-8h-1.3v-2.8h6v2.8h-1.3v7.8h2.5v-1.5h3.3v4.5H406.6z"/>
	<path fill="#FFFFFF" d="M417.5,302.1v-2.8h1.3v-8h-1.3v-2.8h6v2.8h-1.3v8h1.3v2.8H417.5z"/>
	<path fill="#FFFFFF" d="M429.1,302.3c-1,0-1.7-0.2-2.3-0.9v0.6h-2.6v-4.4h3.1c0,1.2,0.6,1.7,1.5,1.7c0.8,0,1.4-0.5,1.4-1.3
		c0-1.6-2.5-1.2-4.5-2.8c-1-0.8-1.5-1.8-1.5-3c0-2.3,1.8-4.2,4.2-4.2c1.2,0,1.7,0.5,2.2,0.8v-0.5h2.5v3.9h-3
		c-0.1-0.9-0.6-1.4-1.3-1.4c-0.7,0-1.3,0.5-1.3,1.2c0,1.5,2.1,1.3,4.1,2.4c1.3,0.7,1.9,1.9,1.9,3.3
		C433.5,300.4,431.6,302.3,429.1,302.3z"/>
	<path fill="#FFFFFF" d="M442.5,293.2v-1.7h-1.4v7.8h1.3v2.8h-6v-2.8h1.3v-7.8h-1.3v1.7h-2.6v-4.7h11.4v4.7H442.5z"/>
	<path fill="#FFFFFF" d="M445.5,302.1v-2.8h1.3v-8h-1.3v-2.8h6v2.8h-1.3v8h1.3v2.8H445.5z"/>
	<path fill="#FFFFFF" d="M465.2,291.3v10.8h-3l-5.2-7.4v4.6h1.3v2.8h-6v-2.8h1.3v-8h-1.3v-2.8h4.2l5.4,7.6v-4.8h-1.3v-2.8h6v2.8
		H465.2z"/>
	<path fill="#FFFFFF" d="M478,302.1v-1.4c-1,1.1-2.3,1.7-4,1.7c-3.8,0-7-3.1-7-7.1c0-4.1,3.3-7,7-7c2,0,3.1,0.8,3.8,1.3v-1h2.8v4.5
		h-3.7c-0.7-0.9-1.6-1.3-2.8-1.3c-2.1,0-3.7,1.5-3.7,3.6c0,2.2,1.7,3.7,3.7,3.7c1.3,0,2.4-0.6,3-1.8h-3.9v-2.8h7.6v7.6H478z"/>
	<path fill="#FFFFFF" d="M486.7,302.3c-1,0-1.7-0.2-2.3-0.9v0.6h-2.6v-4.4h3.1c0,1.2,0.6,1.7,1.5,1.7c0.8,0,1.4-0.5,1.4-1.3
		c0-1.6-2.5-1.2-4.5-2.8c-1-0.8-1.5-1.8-1.5-3c0-2.3,1.8-4.2,4.2-4.2c1.2,0,1.7,0.5,2.2,0.8v-0.5h2.5v3.9h-3
		c-0.1-0.9-0.6-1.4-1.3-1.4c-0.7,0-1.3,0.5-1.3,1.2c0,1.5,2.1,1.3,4.1,2.4c1.3,0.7,1.9,1.9,1.9,3.3
		C491,300.4,489.2,302.3,486.7,302.3z"/>
</g>
</svg>
