<?xml version="1.0" encoding="utf-8"?>
<!-- Generator: Adobe Illustrator 19.1.0, SVG Export Plug-In . SVG Version: 6.00 Build 0)  -->
<!DOCTYPE svg PUBLIC "-//W3C//DTD SVG 1.1//EN" "http://www.w3.org/Graphics/SVG/1.1/DTD/svg11.dtd">
<svg version="1.1" id="Layer_1" xmlns="http://www.w3.org/2000/svg" xmlns:xlink="http://www.w3.org/1999/xlink" x="0px" y="0px"
	 viewBox="0 0 1280 300" enable-background="new 0 0 1280 300" xml:space="preserve">
<metadata><?xpacket begin="﻿" id="W5M0MpCehiHzreSzNTczkc9d"?>
<x:xmpmeta xmlns:x="adobe:ns:meta/" x:xmptk="Adobe XMP Core 5.6-c067 79.157747, 2015/03/30-23:40:42        ">
   <rdf:RDF xmlns:rdf="http://www.w3.org/1999/02/22-rdf-syntax-ns#">
      <rdf:Description rdf:about=""/>
   </rdf:RDF>
</x:xmpmeta>
                                                                                                    
                                                                                                    
                                                                                                    
                                                                                                    
                                                                                                    
                                                                                                    
                                                                                                    
                                                                                                    
                                                                                                    
                                                                                                    
                                                                                                    
                                                                                                    
                                                                                                    
                                                                                                    
                                                                                                    
                                                                                                    
                                                                                                    
                                                                                                    
                                                                                                    
                                                                                                    
                           
<?xpacket end="w"?></metadata>
<g>
	<path fill="#FFFFFF" d="M28.9,69.7c0.4,15.2,11.9,21.7,21.4,21.7c12,0,21-7.9,21-20.9c0-10.5-7.6-20.4-23.4-20.4l-4.3,0v-2.9h4.3
		c12.6,0,18.9-8.2,18.9-17.2c0-8.2-5.6-15.9-15.7-15.9c-8.8,0-16.3,5.9-17,15.2l-3,0c0.7-12.2,11.1-18.1,19.7-18.1
		c12.4,0,19.2,8.9,19.2,18.9c0,8.4-5.7,15.7-12.9,18.2v0.2c9.8,2.7,17.3,11,17.3,21.2c0,13.3-8.8,24.6-24.6,24.6
		c-14.7,0-24.2-11.1-24.3-24.7H28.9z"/>
	<path fill="#FFFFFF" d="M80,37.4c0-23,19.6-26.3,25.4-26.3c14.1,0,25.9,10,25.9,25.4l0,32.5c0,20.5-18.5,25.4-25.4,25.4
		C96.6,94.4,80,88.5,80,69L80,37.4z M83.3,69c0,14.4,11,22.4,22.5,22.4c7.8,0,22.5-5,22.5-22.4l0-32.5c0-10.6-7-22.5-22.8-22.5
		c-11.6,0-22.1,7.8-22.1,23L83.3,69z"/>
	<path fill="#FFFFFF" d="M163.8,61.9v25.8h-3l0-25.8l-23.2,0v-3l23.2,0V33h3l0,25.8l23.2,0v3L163.8,61.9z"/>
	<path fill="#FFFFFF" d="M234.1,113.1l11.6,0l8.9-20.5l-21.6-54.5l-11.4,0v-2.7l26.6,0v2.7l-11.9,0l20.1,50.3l21.5-50.3l-11.5,0
		v-2.7l26.6,0v2.7l-11.6,0l-32.3,74.9l11.5,0v2.7l-26.6,0V113.1z"/>
	<path fill="#FFFFFF" d="M292.7,64.4c0.2,18.7,15.9,27,27.1,26.8c10.6,0,19.9-5.4,24.5-15.1h3.4c-5.4,12.2-16.3,18.1-28,18
		c-17.4,0-30.1-13-30.1-30.1v0.1c0-17.2,13.2-30.2,30.2-30.2c15.4,0,29.3,11.1,30.1,28.7l-0.1,1.7L292.7,64.4z M346.8,61.7
		c-0.7-13.9-13.5-25.3-27-24.7c-14.1,0-26.1,10.2-27,24.7L346.8,61.7z"/>
	<path fill="#FFFFFF" d="M412.3,78.4h-0.2c-5,9.7-14.5,15.8-26.6,15.8c-18.8,0-30.1-14.7-30.1-30.1c0-15.8,11.6-30.1,30.1-30.1
		c13.9,0,23.8,8.6,26.6,16h0.2V35.5l14.9,0v2.7l-11.9,0l0,51.9h11.9l0,2.7h-14.9V78.4z M412.6,64.1c0-15.7-11.9-27.2-27.2-27.2
		c-14.9,0-27.1,11.1-27.1,27.2c0.1,13,8.9,27.2,27.4,27.2C401.6,91.3,412.6,78.9,412.6,64.1z"/>
	<path fill="#FFFFFF" d="M432.2,35.5l14.9,0v10.4h0.2c5.3-10.8,15.1-11.5,20-11.9v3c-3.5,0.1-7.4,0.2-12.5,3.9
		c-6.8,6.2-7.7,12.9-7.7,20.8v28.3l11.7,0v2.7l-26.6,0l0-2.7l11.9,0V38.2l-11.9,0V35.5z"/>
	<path fill="#FFFFFF" d="M504.1,48.5c-0.4-8.3-7-11.5-13.4-11.5c-9.1,0-13.5,5.7-13.5,11.7c0,6.3,3.4,9.2,14.1,12
		c11.1,2.9,18.7,6.3,18.7,17.3c0,8.4-7.3,16.2-18.2,16.2c-7.9,0-13.2-3.4-16.1-7.9v6.5h-2.9V76.9h3c0.1,9.2,7.6,14.4,16,14.4
		c9.1,0,15.2-5.9,15.2-13.3c0-7.5-4-11.4-15.8-14.3c-10.3-2.6-17-5.6-17-14.8c0-9.5,8.2-14.9,16.7-14.9c6.3,0,10.6,2.3,13.3,6.2
		v-4.7h2.9l0,13.6h-2.9V48.5z"/>
	<path fill="#FFFFFF" d="M577.4,34c17.2,0,30.2,13,30.2,30.1c0,17.2-13,30.1-30.2,30.1c-17.1,0-30.1-12.9-30.1-30.1
		C547.3,47,560.3,34,577.4,34z M577.4,91.3c15.4,0,27.2-11.6,27.2-27.2s-11.7-27.2-27.2-27.2c-15.4,0-27.1,11.6-27.1,27.2
		S561.9,91.3,577.4,91.3z"/>
	<path fill="#FFFFFF" d="M606.5,90.1h11.9V38.3l-11.9,0v-2.8l11.9,0v-5.6c0-11.9,6.3-18,17.9-18.5v2.9c-8.3,0.2-14.9,3.9-14.9,15.2
		v5.9l12.4,0v2.8l-12.4,0l0,51.8l12.4,0v2.7l-27.3,0V90.1z"/>
	<path fill="#FFFFFF" d="M674.9,64.4c0.2,18.7,15.9,27,27.1,26.8c10.6,0,19.9-5.4,24.5-15.1h3.4c-5.4,12.2-16.3,18.1-28,18
		c-17.4,0-30.1-13-30.1-30.1v0.1C671.8,47,685,34,702,34c15.4,0,29.3,11.1,30.1,28.7l-0.1,1.7L674.9,64.4z M728.9,61.7
		c-0.7-13.9-13.5-25.3-27-24.7c-14.1,0-26.1,10.2-27,24.7L728.9,61.7z"/>
	<path fill="#FFFFFF" d="M727.5,90.1l11.5,0L756.3,64L739,38.2l-11.5,0v-2.7l26.6,0v2.7l-11.3,0l15.3,22.9l15.4-22.9l-11.2,0v-2.7
		l26.6,0v2.7l-11.7,0L759.9,64l17.3,26.1H789v2.7l-26.6,0v-2.7h11.2l-15.4-23.2l-15.3,23.2l11.3,0v2.7l-26.6,0V90.1z"/>
	<path fill="#FFFFFF" d="M792,35.5l14.9,0v14.3h0.2c5-9.7,14.5-15.8,26.6-15.8c18.8,0,30.1,14.7,30.1,30.1
		c0,15.8-11.6,30.1-30.1,30.1c-13.9,0-23.8-8.6-26.6-16h-0.2v34.9l11.7,0v2.7l-26.6,0v-2.7l11.9,0V38.2l-11.9,0V35.5z M806.5,64.1
		c0,15.7,11.9,27.2,27.2,27.2c14.9,0,27.1-11.1,27.1-27.2c-0.1-13-8.9-27.2-27.4-27.2C817.6,36.9,806.5,49.3,806.5,64.1z"/>
	<path fill="#FFFFFF" d="M872.5,64.4c0.2,18.7,15.9,27,27.1,26.8c10.6,0,19.9-5.4,24.5-15.1h3.4c-5.4,12.2-16.3,18.1-28,18
		c-17.4,0-30.1-13-30.1-30.1v0.1c0-17.2,13.2-30.2,30.2-30.2c15.4,0,29.3,11.1,30.1,28.7l-0.1,1.7L872.5,64.4z M926.5,61.7
		c-0.7-13.9-13.5-25.3-27-24.7c-14.1,0-26.1,10.2-27,24.7L926.5,61.7z"/>
	<path fill="#FFFFFF" d="M929,35.5l14.9,0v10.4h0.2c5.3-10.8,15.1-11.5,20-11.9v3c-3.5,0.1-7.4,0.2-12.5,3.9
		c-6.8,6.2-7.7,12.9-7.7,20.8v28.3l11.7,0v2.7l-26.6,0v-2.7h11.9V38.2l-11.9,0L929,35.5z"/>
	<path fill="#FFFFFF" d="M968,35.5l14.9,0v54.6l11.7,0v2.7l-26.6,0v-2.7h11.9V38.2l-11.9,0V35.5z M982.9,22.6h-3v-9.7l3,0V22.6z"/>
	<path fill="#FFFFFF" d="M997.2,64.4c0.2,18.7,15.9,27,27.1,26.8c10.6,0,19.9-5.4,24.5-15.1h3.4c-5.4,12.2-16.3,18.1-28,18
		c-17.4,0-30.1-13-30.1-30.1v0.1c0-17.2,13.2-30.2,30.2-30.2c15.4,0,29.3,11.1,30.1,28.7l-0.1,1.7L997.2,64.4z M1051.2,61.7
		c-0.7-13.9-13.5-25.3-27-24.7c-14.1,0-26.1,10.2-27,24.7L1051.2,61.7z"/>
	<path fill="#FFFFFF" d="M1054.8,35.5l14.9,0v11.1h0.2c3.6-8.4,14-12.6,23-12.5c7.4,0,13.4,2,17.9,5.8c5.7,4.7,8.4,12.4,8.4,22.7
		v27.5h11.7v2.7l-26.6,0v-2.7l11.9,0V62.5c0-10-2.7-16.3-7-20.2c-4.5-4-10.4-5.4-16.2-5.4c-14.3,0.2-23.3,8.5-23.3,22.8v30.3l11.7,0
		v2.7l-26.6,0v-2.7h11.9V38.2l-11.9,0V35.5z"/>
	<path fill="#FFFFFF" d="M1183.2,52.1c-3.5-9.3-12.1-15.3-24.2-15.2c-8.1,0.1-13.4,2.3-19.3,7.6c-4.6,4.2-7.8,11.7-7.8,19.6
		c0,16.2,12.5,27.2,27.1,27.2c13-0.1,22.3-8.1,25.1-16.6h3.4c-4,11.6-14.8,19.2-28.4,19.5c-16.7,0-30.1-12.1-30.1-30
		c0-17,12.7-30.2,30.1-30.2c11.4,0,19.6,4.7,24.3,11.7V35.5l2.9,0v16.7L1183.2,52.1z"/>
	<path fill="#FFFFFF" d="M1196.6,64.4c0.2,18.7,15.9,27,27.1,26.8c10.6,0,19.9-5.4,24.5-15.1h3.4c-5.4,12.2-16.3,18.1-28,18
		c-17.4,0-30.1-13-30.1-30.1v0.1c0-17.2,13.2-30.2,30.2-30.2c15.4,0,29.3,11.1,30.1,28.7l-0.1,1.7L1196.6,64.4z M1250.7,61.7
		c-0.7-13.9-13.5-25.3-27-24.7c-14.1,0-26.1,10.2-27,24.7L1250.7,61.7z"/>
	<path fill="#FFFFFF" d="M205.3,140.5h14.9l0,54.6l11.7,0v2.7h-26.6v-2.7h11.9l0-51.9h-11.9V140.5z M220.2,127.7h-3v-9.7h3V127.7z"
		/>
	<path fill="#FFFFFF" d="M235.9,140.5h14.9v11.1h0.2c3.6-8.4,14-12.6,23-12.5c7.4,0,13.4,2,17.9,5.8c5.7,4.7,8.4,12.4,8.4,22.7v27.5
		l11.7,0v2.7h-26.6v-2.7h11.9v-27.5c0-10-2.7-16.3-7-20.2c-4.5-4-10.4-5.4-16.2-5.4c-14.3,0.2-23.3,8.5-23.3,22.8l0,30.3h11.7v2.7
		l-26.6,0v-2.7h11.9l0-51.9l-11.9,0V140.5z"/>
	<path fill="#FFFFFF" d="M357.4,117.8h3v22.7h14.7v2.8l-14.7,0l0,51.8h14.7v2.7l-17.7,0l0-54.5h-12.6v-2.8l12.6,0V117.8z"/>
	<path fill="#FFFFFF" d="M378.2,117.9l15,0l0,33.7h0.2c3.6-8.4,14-12.6,23-12.5c7.4,0,13.4,2,17.9,5.8c5.7,4.7,8.4,12.4,8.4,22.7
		l0,27.5h11.6v2.7h-26.6v-2.7l12,0l0-27.5c0-10-2.7-16.3-7-20.2c-4.5-4-10.4-5.4-16.2-5.4c-14.3,0.2-23.3,8.5-23.3,22.8v30.3l11.6,0
		v2.7h-26.6v-2.7h12l0-74.5l-12,0V117.9z"/>
	<path fill="#FFFFFF" d="M453.4,169.5c0.2,18.7,15.9,27,27.1,26.8c10.6,0,19.9-5.4,24.5-15.1h3.4c-5.4,12.2-16.3,18.1-28,18
		c-17.4,0-30.1-13-30.1-30.1v0.1c0-17.2,13.2-30.2,30.2-30.2c15.4,0,29.3,11.1,30.1,28.7l-0.1,1.7L453.4,169.5z M507.4,166.7
		c-0.7-13.9-13.5-25.3-27-24.7c-14.1,0-26.1,10.2-27,24.7L507.4,166.7z"/>
	<path fill="#FFFFFF" d="M579.4,153.5c-0.4-8.3-7-11.5-13.4-11.5c-9.1,0-13.5,5.7-13.5,11.7c0,6.3,3.4,9.2,14.1,12
		c11.1,2.9,18.7,6.3,18.7,17.3c0,8.4-7.3,16.2-18.2,16.2c-7.9,0-13.2-3.4-16.1-7.9v6.5H548v-15.9h3c0.1,9.2,7.6,14.4,16,14.4
		c9.1,0,15.2-5.9,15.2-13.3c0-7.5-4-11.4-15.8-14.3c-10.3-2.6-17-5.6-17-14.8c0-9.5,8.2-14.9,16.7-14.9c6.3,0,10.6,2.3,13.3,6.2
		v-4.7h2.9v13.6h-2.9V153.5z"/>
	<path fill="#FFFFFF" d="M620.5,139.1c17.2,0,30.2,13,30.2,30.1c0,17.2-13,30.1-30.2,30.1c-17.1,0-30.1-12.9-30.1-30.1
		C590.4,152,603.4,139.1,620.5,139.1z M620.5,196.3c15.4,0,27.2-11.6,27.2-27.2c0-15.5-11.7-27.2-27.2-27.2
		c-15.4,0-27.1,11.6-27.1,27.2C593.4,184.7,605.1,196.3,620.5,196.3z"/>
	<path fill="#FFFFFF" d="M712.3,140.5l0,54.6h11.9v2.7l-14.9,0v-11.5h-0.2c-3.6,8.8-13.5,13.1-23,13c-7.4,0-13.4-2-17.9-5.8
		c-5.7-4.7-8.4-12.4-8.4-22.7l0-27.5h-11.9v-2.7l14.9,0l0,30.2c0,10,2.8,16.3,7,20.2c4.5,4,10.4,5.4,16.2,5.4
		c14.4-0.1,23.3-8.5,23.3-23.3v-29.9h-11.9v-2.7H712.3z"/>
	<path fill="#FFFFFF" d="M732.2,117.8h3v22.7l14.7,0v2.8h-14.7l0,51.8l14.7,0l0,2.7h-17.7l0-54.5h-12.6v-2.8h12.6V117.8z"/>
	<path fill="#FFFFFF" d="M756,117.9l15,0v33.7h0.2c3.6-8.4,14-12.6,23-12.5c7.4,0,13.4,2,17.9,5.8c5.7,4.7,8.4,12.4,8.4,22.7v27.5
		l11.6,0v2.7h-26.6v-2.7h12v-27.5c0-10-2.7-16.3-7-20.2c-4.5-4-10.4-5.4-16.2-5.4c-14.3,0.2-23.3,8.5-23.3,22.8l0,30.3l11.6,0v2.7
		H756v-2.7h12l0-74.5l-12,0V117.9z"/>
	<path fill="#FFFFFF" d="M836.5,117.9h14.9v37.1h0.2c4-8.3,12.7-15.8,26.6-16c18.5,0,30.1,14.3,30.1,30.1
		c0,15.4-11.3,30.1-30.1,30.1c-12.1,0-21.6-6-26.6-15.8h-0.2v14.3l-14.9,0v-2.7h11.9v-74.5h-11.9V117.9z M905.2,169.1
		c0-16.1-12.2-27.2-27.1-27.2c-15.3,0-27.2,11.5-27.2,27.2c0,14.8,11.1,27.2,26.8,27.2C896.3,196.3,905.1,182.1,905.2,169.1z"/>
	<path fill="#FFFFFF" d="M970.8,183.5h-0.2c-5,9.7-14.5,15.8-26.6,15.8c-18.8,0-30.1-14.7-30.1-30.1c0-15.8,11.6-30.1,30.1-30.1
		c13.9,0,23.8,8.6,26.6,16h0.2v-14.5h14.9v2.7h-11.9v51.9h11.9v2.7h-14.9V183.5z M971.1,169.1c0-15.7-11.9-27.2-27.2-27.2
		c-14.9,0-27.1,11.1-27.1,27.2c0.1,13,8.9,27.2,27.4,27.2C960,196.3,971.1,183.9,971.1,169.1z"/>
	<path fill="#FFFFFF" d="M1003.1,218.1h11.6l8.9-20.5l-21.6-54.5h-11.4v-2.7l26.6,0v2.7l-11.9,0l20.1,50.3l21.5-50.3h-11.5v-2.7
		l26.6,0v2.7l-11.6,0l-32.3,74.9h11.5v2.7l-26.6,0V218.1z"/>
	<path fill="#FFFFFF" d="M1062.6,197.8h-3.2v-8.7h3.2V197.8z"/>
</g>
<g>
	<rect x="590.8" y="279.4" fill="#FDDC2F" width="47.4" height="11.9"/>
	<rect x="540.3" y="279.4" fill="#FDDC2F" width="47.4" height="11.9"/>
	<rect x="590.8" y="264.6" fill="#FDDC2F" width="47.4" height="11.9"/>
	<rect x="641.2" y="279.4" fill="#FDDC2F" width="47.4" height="11.9"/>
	<rect x="641.2" y="264.6" fill="#FDDC2F" width="47.4" height="11.9"/>
	<rect x="641.2" y="249.7" fill="#FDDC2F" width="47.4" height="11.9"/>
	<rect x="691.7" y="279.4" fill="#FDDC2F" width="47.4" height="11.9"/>
	<rect x="691.7" y="264.6" fill="#FDDC2F" width="47.4" height="11.9"/>
	<polygon fill="#FDDC2F" points="739.1,246.6 691.7,246.6 715.4,234.8 	"/>
	<rect x="691.7" y="249.7" fill="#FDDC2F" width="47.4" height="11.9"/>
</g>
</svg>
