<?xml version="1.0" encoding="utf-8"?>
<!-- Generator: Adobe Illustrator 19.1.0, SVG Export Plug-In . SVG Version: 6.00 Build 0)  -->
<svg version="1.1" id="Layer_1" xmlns="http://www.w3.org/2000/svg" xmlns:xlink="http://www.w3.org/1999/xlink" x="0px" y="0px"
	 viewBox="175 -37 550 275" style="enable-background:new 175 -37 550 275;" xml:space="preserve">
<metadata><?xpacket begin="﻿" id="W5M0MpCehiHzreSzNTczkc9d"?>
<x:xmpmeta xmlns:x="adobe:ns:meta/" x:xmptk="Adobe XMP Core 5.6-c067 79.157747, 2015/03/30-23:40:42        ">
   <rdf:RDF xmlns:rdf="http://www.w3.org/1999/02/22-rdf-syntax-ns#">
      <rdf:Description rdf:about=""
            xmlns:ExtensisFontSense="http://www.extensis.com/meta/FontSense/">
         <ExtensisFontSense:slug>
            <rdf:Bag>
               <rdf:li>
                  <rdf:Description>
                     <ExtensisFontSense:Family>Arial</ExtensisFontSense:Family>
                     <ExtensisFontSense:Version>5.01.2</ExtensisFontSense:Version>
                     <ExtensisFontSense:OutlineFileSize>0</ExtensisFontSense:OutlineFileSize>
                     <ExtensisFontSense:KerningChecksum>0</ExtensisFontSense:KerningChecksum>
                     <ExtensisFontSense:Foundry>Monotype Typography</ExtensisFontSense:Foundry>
                     <ExtensisFontSense:FontKind>OpenType - TT</ExtensisFontSense:FontKind>
                     <ExtensisFontSense:Checksum>2169611603</ExtensisFontSense:Checksum>
                     <ExtensisFontSense:PostScriptName>ArialMT</ExtensisFontSense:PostScriptName>
                     <ExtensisFontSense:FontSense_1.2_Checksum>2169611603</ExtensisFontSense:FontSense_1.2_Checksum>
                  </rdf:Description>
               </rdf:li>
            </rdf:Bag>
         </ExtensisFontSense:slug>
      </rdf:Description>
   </rdf:RDF>
</x:xmpmeta>
                                                                                                    
                                                                                                    
                                                                                                    
                                                                                                    
                                                                                                    
                                                                                                    
                                                                                                    
                                                                                                    
                                                                                                    
                                                                                                    
                                                                                                    
                                                                                                    
                                                                                                    
                                                                                                    
                                                                                                    
                                                                                                    
                                                                                                    
                                                                                                    
                                                                                                    
                                                                                                    
                           
<?xpacket end="w"?></metadata>
<style type="text/css">
	.st0{display:none;}
	.st1{display:inline;}
	.st2{enable-background:new    ;}
	.st3{fill:#FDDE2C;}
	.st4{fill:#F2F2F2;}
	.st5{fill:#FFFFFF;}
</style>
<g id="Layer_1_1_" class="st0">
	
		<text transform="matrix(1 0 0 1 1233.4258 -372.0687)" style="display:inline;fill:#FDDE2C; font-family:'ArialMT'; font-size:84.6367px;">Dev</text>
	
		<text transform="matrix(1 0 0 1 1386.0259 -372.0687)" style="display:inline;fill:#FDDE2C; font-family:'ArialMT'; font-size:84.6367px;">e</text>
	
		<text transform="matrix(1 0 0 1 1433.8258 -372.0687)" style="display:inline;fill:#FDDE2C; font-family:'ArialMT'; font-size:84.6367px;">l</text>
	
		<text transform="matrix(1 0 0 1 1458.4258 -372.0687)" style="display:inline;fill:#FDDE2C; font-family:'ArialMT'; font-size:84.6367px;">o</text>
	
		<text transform="matrix(1 0 0 1 1506.3258 -372.0687)" style="display:inline;fill:#FDDE2C; font-family:'ArialMT'; font-size:84.6367px;">pm</text>
	
		<text transform="matrix(1 0 0 1 1641.3258 -372.0687)" style="display:inline;fill:#FDDE2C; font-family:'ArialMT'; font-size:84.6367px;">e</text>
	
		<text transform="matrix(1 0 0 1 1688.126 -372.0687)" style="display:inline;fill:#FDDE2C; font-family:'ArialMT'; font-size:84.6367px;">n</text>
	
		<text transform="matrix(1 0 0 1 1739.4258 -372.0687)" style="display:inline;fill:#FDDE2C; font-family:'ArialMT'; font-size:84.6367px;">t</text>
	<text transform="matrix(1 0 0 1 1375.9221 -353.0679)" class="st1" style="font-family:'ArialMT'; font-size:21px;">Proven</text>
	<text transform="matrix(1 0 0 1 1321.4221 -335.0679)" class="st1" style="font-family:'ArialMT'; font-size:21px;">EXCELLENCE.</text>
</g>
<g id="Layer_2" class="st0">
	
		<text transform="matrix(1 0 0 1 1322.7244 -372.0687)" style="display:inline;fill:#F2F2F2; font-family:'ArialMT'; font-size:84.6367px;">A</text>
	
		<text transform="matrix(1 0 0 1 1384.9243 -372.0687)" style="display:inline;fill:#F2F2F2; font-family:'ArialMT'; font-size:84.6367px;">b</text>
	
		<text transform="matrix(1 0 0 1 1439.8242 -372.0687)" style="display:inline;fill:#F2F2F2; font-family:'ArialMT'; font-size:84.6367px;">o</text>
	
		<text transform="matrix(1 0 0 1 1487.8242 -372.0687)" style="display:inline;fill:#F2F2F2; font-family:'ArialMT'; font-size:84.6367px;">u</text>
	
		<text transform="matrix(1 0 0 1 1537.7244 -372.0687)" style="display:inline;fill:#F2F2F2; font-family:'ArialMT'; font-size:84.6367px;">t</text>
	
		<text transform="matrix(1 0 0 1 1564.1243 -372.0687)" style="display:inline;fill:#F2F2F2; font-family:'ArialMT'; font-size:84.6367px;"> U</text>
	
		<text transform="matrix(1 0 0 1 1635.7244 -372.0687)" style="display:inline;fill:#F2F2F2; font-family:'ArialMT'; font-size:84.6367px;">s</text>
	<text transform="matrix(1 0 0 1 1386.7235 -353.0679)" class="st1" style="font-family:'ArialMT'; font-size:21px;">Experience &amp;</text>
	<text transform="matrix(1 0 0 1 1386.7235 -335.0679)" class="st1" style="font-family:'ArialMT'; font-size:21px;">Integrity.</text>
</g>
<g id="Layer_3" class="st0">
	<g class="st1">
		<path class="st3" d="M1383.3-372.1h-30v-12.4h5.8V-420h-5.8v-12.4h29c11.5,0,17.6,6.2,17.6,15.3c0,5.8-2.6,10.2-7.7,12.7
			c6.5,2.8,10,8.1,10,15C1402.1-379.7,1395.5-372.1,1383.3-372.1z M1378.6-419.8h-4.6v10.4h4.7c3.9,0,7.6-0.4,7.6-5.2
			C1386.2-419.1,1382.7-419.8,1378.6-419.8z M1379.3-397.4h-5.3v12.2h4.7c4.7,0,8.5-0.9,8.5-6.1
			C1387.1-395.4,1384.3-397.4,1379.3-397.4z"/>
		<path class="st3" d="M1435.8-372.1v-4.7c-3,3.8-8.1,5.6-12.7,5.6c-8.5,0-16-6.3-16-17.4v-16.8h-4.8v-12.4h18.3v25.4
			c0,6,2.5,8.8,6.9,8.8c5.1,0,7.3-3.2,7.3-9.3v-12.5h-4.9v-12.4h18.7v33.2h4.8v12.4L1435.8-372.1L1435.8-372.1z"/>
		<path class="st3" d="M1496.6-405.3l-15.3,36.8h4.7v12.4h-22.9v-12.4h4.1l1.9-5l-12.5-31.8h-4.6v-12.4h22v12.4h-2.6l5,15.3
			l5.5-15.3h-2.6v-12.4h21.5v12.4C1500.8-405.3,1496.6-405.3,1496.6-405.3z"/>
		<path class="st3" d="M1545.8-389.8h-33.9c2.2,4.8,6.5,7.3,11.2,7.3c3.1,0,5.9-1,7.9-3.1h13.7c-3.7,9-12,15.1-21.6,15.1
			c-12.9,0-24-10-24-24.2c0-13.9,10.7-24.2,23.7-24.2c12.5,0,23.7,9.7,23.7,23.9C1546.5-393,1546.1-391.3,1545.8-389.8z
			 M1522.6-407.2c-4.6,0-9,2.8-10.8,7.5h22.3C1531.9-404.8,1527.3-407.2,1522.6-407.2z"/>
		<path class="st3" d="M1566.2-393v8.5h4.7v12.4h-23v-12.4h4.8v-20.8h-4.8v-12.4h17.1v6.9c3.7-5.6,7.4-7.1,13-7.5v13.8
			C1570.3-404.1,1566.2-400.1,1566.2-393z"/>
		<path class="st3" d="M1602.8-371.1c-6.3,0-9.2-1.9-11.6-3.9v2.9h-9.2v-13.1h12.9c0.5,3.1,2.3,4.5,5.7,4.5c2.9,0,4.6-1.4,4.6-3.6
			c0-3.2-3.2-4-12.2-6.4c-7.4-2-12-6.9-12-13.5c0-8,6.6-14.4,16.6-14.4c6,0,8.2,2.1,9.8,3.6v-2.8h8.9v13.2H1604
			c-0.3-2.6-1.9-4.1-4.6-4.1c-2.5,0-4.3,1.4-4.3,3.3c0,7.3,24.2,2.3,24.2,19.7C1619.3-377.6,1613.1-371.1,1602.8-371.1z"/>
	</g>
	<g class="st1">
		<path class="st4" d="M1530.6-353.1l-3.8-5.5v2.4h0.9v3.1h-6.1v-3.1h1.4v-8.8h-1.4v-3.1h7.1c3.6,0,5.5,2.3,5.5,5.3
			c0,2.2-1.2,4.1-3.1,4.5l1.8,2.2h1.5v3.1L1530.6-353.1L1530.6-353.1L1530.6-353.1z M1528.4-364.8h-1.6v4.4h1.2
			c1.7,0,2.5-0.9,2.5-2.2C1530.5-363.7,1529.9-364.8,1528.4-364.8z"/>
		<path class="st4" d="M1535.3-353.1v-3.1h1.4v-8.8h-1.4v-3.1h11.4v4.9h-3.7v-1.6h-2.6v2.6h3.5v2.9h-3.5v2.8h2.6v-1.5h3.7v4.9
			L1535.3-353.1L1535.3-353.1z"/>
		<path class="st4" d="M1559.5-353.1v-1.6c-1.1,1.2-2.6,1.9-4.5,1.9c-4.2,0-7.8-3.4-7.8-7.9s3.7-7.7,7.7-7.7c2.2,0,3.4,0.9,4.2,1.4
			v-1.1h3.1v4.9h-4.1c-0.8-1-1.7-1.5-3-1.5c-2.3,0-4.1,1.7-4.1,4c0,2.4,1.9,4.1,4.1,4.1c1.4,0,2.6-0.7,3.3-2h-4.3v-3.1h8.4v8.4h-3
			L1559.5-353.1L1559.5-353.1z"/>
		<path class="st4" d="M1563.8-353.1v-3.1h1.4v-8.8h-1.4v-3.1h6.6v3.1h-1.4v8.8h1.4v3.1H1563.8L1563.8-353.1z"/>
		<path class="st4" d="M1576.7-352.8c-1.1,0-1.9-0.3-2.6-1v0.7h-2.9v-4.8h3.4c0,1.3,0.7,1.9,1.6,1.9s1.5-0.6,1.5-1.4
			c0-1.7-2.8-1.3-5-3.1c-1.1-0.9-1.7-2-1.7-3.3c0-2.5,2-4.6,4.7-4.6c1.3,0,1.9,0.5,2.4,0.9v-0.6h2.8v4.3h-3.3
			c-0.1-1-0.7-1.5-1.4-1.5c-0.8,0-1.4,0.5-1.4,1.3c0,1.7,2.3,1.4,4.5,2.7c1.4,0.8,2.1,2.1,2.1,3.7
			C1581.5-354.9,1579.4-352.8,1576.7-352.8z"/>
		<path class="st4" d="M1591.2-362.9v-1.9h-1.6v8.7h1.4v3.1h-6.6v-3.1h1.4v-8.7h-1.5v1.9h-2.9v-5.2h12.6v5.2H1591.2L1591.2-362.9z"
			/>
		<path class="st4" d="M1594.4-353.1v-3.1h1.4v-8.8h-1.4v-3.1h11.4v4.9h-3.7v-1.6h-2.6v2.6h3.5v2.9h-3.5v2.8h2.6v-1.5h3.7v4.9
			L1594.4-353.1L1594.4-353.1z"/>
		<path class="st4" d="M1615.4-353.1l-3.8-5.5v2.4h0.9v3.1h-6.1v-3.1h1.4v-8.8h-1.4v-3.1h7.1c3.6,0,5.5,2.3,5.5,5.3
			c0,2.2-1.2,4.1-3.1,4.5l1.8,2.2h1.5v3.1L1615.4-353.1L1615.4-353.1L1615.4-353.1z M1613.3-364.8h-1.6v4.4h1.2
			c1.7,0,2.5-0.9,2.5-2.2C1615.4-363.7,1614.7-364.8,1613.3-364.8z"/>
		<path class="st4" d="M1530.1-335.1v-3.1h1.4v-2.8h-4.7v2.8h1.4v3.1h-6.6v-3.1h1.4v-8.8h-1.4v-3.1h6.6v3.1h-1.4v2.6h4.7v-2.6h-1.4
			v-3.1h6.6v3.1h-1.4v8.8h1.4v3.1H1530.1L1530.1-335.1z"/>
		<path class="st4" d="M1537.6-335.1v-3.1h1.4v-8.8h-1.4v-3.1h11.4v4.9h-3.7v-1.6h-2.6v2.6h3.5v2.9h-3.5v2.8h2.6v-1.5h3.7v4.9
			C1549-335.1,1537.6-335.1,1537.6-335.1z"/>
		<path class="st4" d="M1558.7-335.1l-3.8-5.5v2.4h0.9v3.1h-6.1v-3.1h1.4v-8.8h-1.4v-3.1h7.1c3.6,0,5.5,2.3,5.5,5.3
			c0,2.2-1.2,4.1-3.1,4.5l1.8,2.2h1.5v3.1L1558.7-335.1L1558.7-335.1L1558.7-335.1z M1556.5-346.8h-1.6v4.4h1.2
			c1.7,0,2.5-0.9,2.5-2.2C1558.6-345.7,1558-346.8,1556.5-346.8z"/>
		<path class="st4" d="M1563.4-335.1v-3.1h1.4v-8.8h-1.4v-3.1h11.4v4.9h-3.7v-1.6h-2.6v2.6h3.5v2.9h-3.5v2.8h2.6v-1.5h3.7v4.9
			C1574.8-335.1,1563.4-335.1,1563.4-335.1z"/>
		<path class="st4" d="M1575.8-335.1v-3.4h3.4v3.4H1575.8z"/>
	</g>
</g>
<g id="Layer_4">
	<g>
		<path d="M352.3,120.5c-3.9,0-6.8-1-9.3-3.5v2.5h-10.5V102h12.2c0.1,4.8,2.3,7,5.9,7c3.2,0,5.6-2.2,5.6-5.2c0-6.3-10-4.9-18-11.2
			c-3.9-3.2-6-7.2-6-11.9c0-9.1,7.3-16.8,16.9-16.8c4.8,0,7,1.9,8.7,3.3V65H368v15.8h-12c-0.3-3.6-2.3-5.5-5.2-5.5
			c-3,0-5.1,1.8-5.1,4.7c0,6.1,8.5,5.2,16.3,9.7c5,2.9,7.6,7.5,7.6,13.3C369.7,113,362.2,120.5,352.3,120.5z"/>
		<path d="M412.8,103.5h-30.5c2,4.3,5.9,6.6,10.1,6.6c2.8,0,5.3-0.9,7.1-2.8h12.3c-3.3,8.1-10.8,13.6-19.4,13.6
			c-11.6,0-21.6-9-21.6-21.8c0-12.5,9.6-21.8,21.3-21.8c11.2,0,21.3,8.7,21.3,21.5C413.5,100.7,413.2,102.2,412.8,103.5z
			 M391.9,87.9c-4.1,0-8.1,2.5-9.6,6.8h20.1C400.3,90,396.3,87.9,391.9,87.9z"/>
		<path d="M414.9,119.5v-11.2h4.3v-32h-4.3V65.2h16.5v43.2h4.3v11.2L414.9,119.5L414.9,119.5z"/>
		<path d="M437.6,119.5v-11.2h4.3v-32h-4.3V65.2h16.5v43.2h4.3v11.2L437.6,119.5L437.6,119.5z"/>
		<path d="M501.8,103.5h-30.5c2,4.3,5.9,6.6,10.1,6.6c2.8,0,5.3-0.9,7.1-2.8h12.3c-3.3,8.1-10.8,13.6-19.4,13.6
			c-11.6,0-21.6-9-21.6-21.8c0-12.5,9.6-21.8,21.3-21.8c11.2,0,21.3,8.7,21.3,21.5C502.4,100.7,502.1,102.2,501.8,103.5z M481,87.9
			c-4.1,0-8.1,2.5-9.7,6.8h20.1C489.3,90,485.2,87.9,481,87.9z"/>
		<path d="M520.7,100.7v7.7h4.2v11.2h-20.7v-11.2h4.3V89.6h-4.3V78.4h15.5v6.2c3.3-5,6.7-6.4,11.7-6.8v12.4
			C524.4,90.7,520.7,94.3,520.7,100.7z"/>
		<path d="M553,120.4c-5.7,0-8.3-1.7-10.4-3.5v2.6h-8.3v-11.8h11.6c0.5,2.8,2.1,4,5.1,4c2.6,0,4.1-1.3,4.1-3.2c0-2.9-2.9-3.6-11-5.8
			c-6.7-1.8-10.8-6.2-10.8-12.1c0-7.2,5.9-13,14.9-13c5.4,0,7.4,1.9,8.8,3.2v-2.5h8v11.9h-11c-0.3-2.3-1.7-3.7-4.1-3.7
			c-2.2,0-3.9,1.3-3.9,3c0,6.6,21.8,2.1,21.8,17.7C567.8,114.5,562.1,120.4,553,120.4z"/>
	</g>
	<g>
		<path class="st5" d="M487.9,136.6l-3.4-5v2.2h0.8v2.8h-5.4v-2.8h1.3v-7.9h-1.3v-2.8h6.4c3.2,0,5,2.1,5,4.8c0,2-1.1,3.7-2.8,4.1
			l1.6,2h1.3v2.8L487.9,136.6L487.9,136.6z M486,126h-1.4v4h1.1c1.5,0,2.2-0.8,2.2-2C487.9,127,487.4,126,486,126z"/>
		<path class="st5" d="M492.3,136.6v-2.8h1.3v-7.9h-1.3v-2.8h10.3v4.4h-3.3v-1.4H497v2.3h3.1v2.6H497v2.5h2.3v-1.3h3.3v4.4
			L492.3,136.6L492.3,136.6z"/>
		<path class="st5" d="M513.9,136.6v-1.4c-1,1.1-2.3,1.7-4,1.7c-3.8,0-7-3.1-7-7.1s3.3-6.9,6.9-6.9c2,0,3.1,0.8,3.8,1.3v-1h2.8v4.4
			h-3.7c-0.7-0.9-1.5-1.3-2.7-1.3c-2.1,0-3.7,1.5-3.7,3.6c0,2.2,1.7,3.7,3.7,3.7c1.3,0,2.3-0.6,3-1.8h-3.9v-3h7.6v7.6H514
			L513.9,136.6L513.9,136.6z"/>
		<path class="st5" d="M517.8,136.6v-2.8h1.3v-7.9h-1.3v-2.8h5.9v2.8h-1.3v7.9h1.3v2.8H517.8z"/>
		<path class="st5" d="M529.4,136.8c-1,0-1.7-0.3-2.3-0.9v0.6h-2.6v-4.3h3.1c0,1.2,0.6,1.7,1.4,1.7c0.8,0,1.4-0.5,1.4-1.3
			c0-1.5-2.5-1.2-4.5-2.8c-1-0.8-1.5-1.8-1.5-3c0-2.2,1.8-4.1,4.2-4.1c1.2,0,1.7,0.4,2.2,0.8V123h2.5v3.9h-2.9
			c-0.1-0.9-0.6-1.3-1.3-1.3s-1.3,0.5-1.3,1.2c0,1.5,2.1,1.3,4,2.4c1.3,0.7,1.9,1.9,1.9,3.3C533.7,134.9,531.9,136.8,529.4,136.8z"
			/>
		<path class="st5" d="M542.5,127.7V126h-1.4v7.8h1.3v2.8h-5.9v-2.8h1.3V126h-1.4v1.7h-2.6V123h11.3v4.7H542.5L542.5,127.7z"/>
		<path class="st5" d="M545.4,136.6v-2.8h1.3v-7.9h-1.3v-2.8h10.2v4.4h-3.3v-1.4H550v2.3h3.2v2.6H550v2.5h2.3v-1.3h3.3v4.4
			L545.4,136.6L545.4,136.6z"/>
		<path class="st5" d="M564.4,136.6l-3.4-5v2.2h0.8v2.8h-5.5v-2.8h1.3v-7.9h-1.3v-2.8h6.4c3.2,0,5,2.1,5,4.8c0,2-1.1,3.7-2.8,4.1
			l1.6,2h1.3v2.8L564.4,136.6L564.4,136.6z M562.4,126H561v4h1.1c1.5,0,2.2-0.8,2.2-2C564.3,127,563.7,126,562.4,126z"/>
		<path class="st5" d="M487.6,152.8V150h1.3v-2.5h-4.3v2.5h1.3v2.8H480V150h1.3v-7.9H480v-2.8h5.9v2.8h-1.3v2.3h4.2v-2.3h-1.2v-2.8
			h5.9v2.8h-1.3v7.9h1.3v2.8H487.6z"/>
		<path class="st5" d="M494.3,152.8V150h1.3v-7.9h-1.3v-2.8h10.3v4.4h-3.3v-1.4H499v2.3h3.1v2.6H499v2.5h2.3v-1.3h3.3v4.4H494.3z"/>
		<path class="st5" d="M513.2,152.8l-3.4-4.9v2.2h0.8v2.8h-5.5v-2.8h1.3v-7.9h-1.3v-2.8h6.4c3.2,0,4.9,2.1,4.9,4.8
			c0,2-1.1,3.7-2.8,4.1l1.6,2h1.4v2.8L513.2,152.8L513.2,152.8z M511.3,142.2h-1.4v4h1.1c1.5,0,2.2-0.8,2.2-2
			C513.2,143.2,512.6,142.2,511.3,142.2z"/>
		<path class="st5" d="M517.5,152.8V150h1.3v-7.9h-1.3v-2.8h10.3v4.4h-3.3v-1.4h-2.3v2.3h3.1v2.6h-3.1v2.5h2.3v-1.3h3.3v4.4H517.5z"
			/>
		<path class="st5" d="M528.6,152.8v-3.1h3.1v3.1H528.6z"/>
	</g>
</g>
</svg>
